<?xml version="1.0" encoding="UTF-8"?>
<svg xmlns="http://www.w3.org/2000/svg" xmlns:xlink="http://www.w3.org/1999/xlink" width="1560pt" height="599.999999pt" viewBox="0 0 1560 599.999999" version="1.2">
<defs>
<clipPath id="clip1">
  <path d="M 23.835938 3.816406 L 81 3.816406 L 81 220.566406 L 23.835938 220.566406 Z M 23.835938 3.816406 "/>
</clipPath>
<clipPath id="clip2">
  <path d="M 334.8125 106.40625 L 340.574219 106.40625 L 340.574219 112.945312 L 334.8125 112.945312 Z M 334.8125 106.40625 "/>
</clipPath>
<clipPath id="clip3">
  <path d="M 1269.125 85.285156 L 1347.5 85.285156 L 1347.5 236.734375 L 1269.125 236.734375 Z M 1269.125 85.285156 "/>
</clipPath>
<clipPath id="clip4">
  <path d="M 1273 91.136719 L 1357.503906 91.136719 L 1357.503906 236.734375 L 1273 236.734375 Z M 1273 91.136719 "/>
</clipPath>
<clipPath id="clip5">
  <path d="M 1271.210938 79.429688 L 1352.5 79.429688 L 1352.5 236.734375 L 1271.210938 236.734375 Z M 1271.210938 79.429688 "/>
</clipPath>
<clipPath id="clip6">
  <path d="M 1275 131.269531 L 1372.09375 131.269531 L 1372.09375 236.734375 L 1275 236.734375 Z M 1275 131.269531 "/>
</clipPath>
<clipPath id="clip7">
  <path d="M 1276.628906 194.8125 L 1287.46875 194.8125 L 1287.46875 236.734375 L 1276.628906 236.734375 Z M 1276.628906 194.8125 "/>
</clipPath>
<clipPath id="clip8">
  <path d="M 1278.714844 190.210938 L 1310.398438 190.210938 L 1310.398438 236.734375 L 1278.714844 236.734375 Z M 1278.714844 190.210938 "/>
</clipPath>
<clipPath id="clip9">
  <path d="M 1280.382812 201.082031 L 1290.386719 201.082031 L 1290.386719 236.734375 L 1280.382812 236.734375 Z M 1280.382812 201.082031 "/>
</clipPath>
<clipPath id="clip10">
  <path d="M 1282.464844 215.714844 L 1286.21875 215.714844 L 1286.21875 236.734375 L 1282.464844 236.734375 Z M 1282.464844 215.714844 "/>
</clipPath>
<clipPath id="clip11">
  <path d="M 1316.648438 168 L 1321.652344 168 L 1321.652344 236.734375 L 1316.648438 236.734375 Z M 1316.648438 168 "/>
</clipPath>
<clipPath id="clip12">
  <path d="M 1266.625 199 L 1267.457031 199 L 1267.457031 236.734375 L 1266.625 236.734375 Z M 1266.625 199 "/>
</clipPath>
<clipPath id="clip13">
  <path d="M 1263.707031 134.613281 L 1306.644531 134.613281 L 1306.644531 236.734375 L 1263.707031 236.734375 Z M 1263.707031 134.613281 "/>
</clipPath>
<clipPath id="clip14">
  <path d="M 1302.058594 215 L 1315.816406 215 L 1315.816406 236.734375 L 1302.058594 236.734375 Z M 1302.058594 215 "/>
</clipPath>
<clipPath id="clip15">
  <path d="M 1257.453125 107.023438 L 1296.640625 107.023438 L 1296.640625 236.734375 L 1257.453125 236.734375 Z M 1257.453125 107.023438 "/>
</clipPath>
<clipPath id="clip16">
  <path d="M 1255 214.039062 L 1255.785156 214.039062 L 1255.785156 236.734375 L 1255 236.734375 Z M 1255 214.039062 "/>
</clipPath>
<clipPath id="clip17">
  <path d="M 1259.539062 119 L 1300.808594 119 L 1300.808594 236.734375 L 1259.539062 236.734375 Z M 1259.539062 119 "/>
</clipPath>
<clipPath id="clip18">
  <path d="M 1262.039062 137 L 1282.882812 137 L 1282.882812 236.734375 L 1262.039062 236.734375 Z M 1262.039062 137 "/>
</clipPath>
<clipPath id="clip19">
  <path d="M 1253.242188 210 L 1258 210 L 1258 215 L 1253.242188 215 Z M 1253.242188 210 "/>
</clipPath>
<clipPath id="clip20">
  <path d="M 1496 118 L 1499.992188 118 L 1499.992188 122 L 1496 122 Z M 1496 118 "/>
</clipPath>
</defs>
<g id="surface1">
<path style=" stroke:none;fill-rule:nonzero;fill:rgb(100%,100%,100%);fill-opacity:1;" d="M 41.824219 159.742188 C 29.808594 129.527344 29.808594 94.871094 41.824219 64.65625 L 42.289062 64.84375 C 30.320312 94.9375 30.320312 129.460938 42.289062 159.554688 L 41.824219 159.742188 "/>
<path style=" stroke:none;fill-rule:nonzero;fill:rgb(100%,100%,100%);fill-opacity:1;" d="M 104.972656 217.460938 C 83.703125 209.121094 66.171875 194.308594 54.269531 174.621094 C 43.214844 156.335938 37.375 134.753906 37.375 112.199219 C 37.375 89.644531 43.214844 68.0625 54.269531 49.777344 C 66.171875 30.089844 83.703125 15.277344 104.972656 6.9375 L 105.15625 7.40625 C 63.65625 23.675781 37.875 63.832031 37.875 112.199219 C 37.875 160.566406 63.65625 200.71875 105.15625 216.992188 L 104.972656 217.460938 "/>
<path style=" stroke:none;fill-rule:nonzero;fill:rgb(100%,100%,100%);fill-opacity:1;" d="M 44.386719 136.777344 C 41.0625 120.699219 41.0625 103.699219 44.386719 87.621094 L 44.878906 87.726562 C 41.570312 103.734375 41.570312 120.664062 44.878906 136.671875 L 44.386719 136.777344 "/>
<path style=" stroke:none;fill-rule:nonzero;fill:rgb(100%,100%,100%);fill-opacity:1;" d="M 62.296875 160.875 C 54.847656 146.210938 50.910156 129.378906 50.910156 112.199219 C 50.910156 95.015625 54.847656 78.1875 62.296875 63.523438 L 62.742188 63.753906 C 47.5625 93.632812 47.5625 130.761719 62.742188 160.644531 L 62.296875 160.875 "/>
<path style=" stroke:none;fill-rule:nonzero;fill:rgb(100%,100%,100%);fill-opacity:1;" d="M 88.949219 181.019531 C 70.507812 164.367188 59.933594 139.28125 59.933594 112.199219 C 59.933594 85.113281 70.507812 60.03125 88.949219 43.378906 L 89.285156 43.75 C 70.949219 60.308594 60.4375 85.253906 60.4375 112.199219 C 60.4375 139.140625 70.949219 164.089844 89.285156 180.648438 L 88.949219 181.019531 "/>
<path style=" stroke:none;fill-rule:nonzero;fill:rgb(100%,100%,100%);fill-opacity:1;" d="M 117.710938 188.113281 C 102.375 182.097656 89.730469 171.414062 81.144531 157.214844 C 73.171875 144.03125 68.960938 128.464844 68.960938 112.199219 C 68.960938 95.933594 73.171875 80.371094 81.144531 67.183594 C 89.726562 52.984375 102.375 42.300781 117.710938 36.285156 L 117.898438 36.753906 C 88.019531 48.46875 69.460938 77.375 69.460938 112.199219 C 69.460938 147.023438 88.019531 175.929688 117.898438 187.644531 L 117.710938 188.113281 "/>
<path style=" stroke:none;fill-rule:nonzero;fill:rgb(100%,100%,100%);fill-opacity:1;" d="M 87.464844 197.546875 C 74.210938 187.9375 63.847656 175.203125 56.664062 159.703125 C 49.945312 145.21875 46.398438 128.792969 46.398438 112.199219 C 46.398438 95.605469 49.945312 79.179688 56.664062 64.695312 C 63.847656 49.195312 74.210938 36.460938 87.464844 26.851562 L 87.757812 27.257812 C 62.175781 45.8125 46.902344 77.566406 46.902344 112.199219 C 46.898438 146.832031 62.175781 178.585938 87.757812 197.140625 L 87.464844 197.546875 "/>
<path style=" stroke:none;fill-rule:nonzero;fill:rgb(100%,100%,100%);fill-opacity:1;" d="M 100.726562 195.1875 C 86.378906 186.996094 74.628906 174.671875 66.746094 159.546875 C 59.335938 145.335938 55.421875 128.964844 55.421875 112.199219 C 55.421875 95.433594 59.335938 79.0625 66.746094 64.851562 C 74.628906 49.726562 86.378906 37.402344 100.726562 29.210938 L 100.972656 29.648438 C 72.765625 45.753906 55.925781 76.613281 55.925781 112.199219 C 55.925781 147.785156 72.765625 178.644531 100.972656 194.75 L 100.726562 195.1875 "/>
<path style=" stroke:none;fill-rule:nonzero;fill:rgb(100%,100%,100%);fill-opacity:1;" d="M 84.535156 169.828125 C 71.582031 154.378906 64.445312 133.910156 64.445312 112.199219 C 64.445312 90.488281 71.582031 70.023438 84.535156 54.570312 L 84.921875 54.890625 C 58.429688 86.492188 58.429688 137.90625 84.921875 169.507812 L 84.535156 169.828125 "/>
<path style=" stroke:none;fill-rule:nonzero;fill:rgb(100%,100%,100%);fill-opacity:1;" d="M 83.394531 151.96875 C 70.152344 127.8125 70.152344 96.589844 83.394531 72.429688 L 83.835938 72.667969 C 70.675781 96.683594 70.675781 127.714844 83.835938 151.730469 L 83.394531 151.96875 "/>
<path style=" stroke:none;fill-rule:nonzero;fill:rgb(100%,100%,100%);fill-opacity:1;" d="M 104.296875 163.90625 C 90.441406 151.394531 82.496094 132.546875 82.496094 112.199219 C 82.496094 91.851562 90.441406 73.003906 104.296875 60.492188 L 104.632812 60.863281 C 90.882812 73.28125 83 91.992188 83 112.199219 C 83 132.40625 90.882812 151.117188 104.632812 163.535156 L 104.296875 163.90625 "/>
<path style=" stroke:none;fill-rule:nonzero;fill:rgb(100%,100%,100%);fill-opacity:1;" d="M 80.691406 132.996094 C 77.054688 119.390625 77.054688 105.007812 80.691406 91.398438 L 81.175781 91.527344 C 77.566406 105.050781 77.566406 119.347656 81.175781 132.867188 L 80.691406 132.996094 "/>
<path style=" stroke:none;fill-rule:nonzero;fill:rgb(100%,100%,100%);fill-opacity:1;" d="M 129.171875 172.808594 C 103.558594 164.828125 87.007812 141.039062 87.007812 112.199219 C 87.007812 83.363281 103.558594 59.570312 129.171875 51.585938 L 129.320312 52.070312 C 103.921875 59.984375 87.511719 83.585938 87.511719 112.199219 C 87.511719 140.8125 103.921875 164.414062 129.320312 172.332031 L 129.171875 172.808594 "/>
<path style=" stroke:none;fill-rule:nonzero;fill:rgb(100%,100%,100%);fill-opacity:1;" d="M 100.1875 134.242188 C 94.617188 120.234375 94.617188 104.164062 100.1875 90.15625 L 100.65625 90.34375 C 95.128906 104.234375 95.128906 120.167969 100.65625 134.058594 L 100.1875 134.242188 "/>
<path style=" stroke:none;fill-rule:nonzero;fill:rgb(100%,100%,100%);fill-opacity:1;" d="M 119.644531 146.792969 C 110.371094 138.417969 105.054688 125.8125 105.054688 112.199219 C 105.054688 98.585938 110.371094 85.980469 119.644531 77.605469 L 119.980469 77.980469 C 110.816406 86.257812 105.558594 98.726562 105.558594 112.199219 C 105.558594 125.667969 110.816406 138.140625 119.980469 146.417969 L 119.644531 146.792969 "/>
<path style=" stroke:none;fill-rule:nonzero;fill:rgb(100%,100%,100%);fill-opacity:1;" d="M 115.167969 121.566406 C 113.714844 115.4375 113.714844 108.957031 115.167969 102.832031 L 115.65625 102.949219 C 114.222656 109 114.222656 115.398438 115.65625 121.449219 L 115.167969 121.566406 "/>
<path style=" stroke:none;fill-rule:nonzero;fill:rgb(100%,100%,100%);fill-opacity:1;" d="M 105.300781 151.730469 C 96.414062 141.128906 91.519531 127.089844 91.519531 112.199219 C 91.519531 97.308594 96.414062 83.269531 105.300781 72.667969 L 105.6875 72.992188 C 87.5625 94.609375 87.5625 129.789062 105.6875 151.40625 L 105.300781 151.730469 "/>
<path style=" stroke:none;fill-rule:nonzero;fill:rgb(100%,100%,100%);fill-opacity:1;" d="M 110.304688 143.25 C 104.011719 134.625 100.542969 123.601562 100.542969 112.199219 C 100.542969 100.796875 104.011719 89.773438 110.304688 81.148438 L 110.710938 81.445312 C 97.914062 98.976562 97.914062 125.417969 110.710938 142.953125 L 110.304688 143.25 "/>
<path style=" stroke:none;fill-rule:nonzero;fill:rgb(100%,100%,100%);fill-opacity:1;" d="M 122.710938 143.367188 C 114.359375 135.824219 109.566406 124.464844 109.566406 112.199219 C 109.566406 99.933594 114.359375 88.574219 122.710938 81.03125 L 123.046875 81.402344 C 114.800781 88.851562 110.070312 100.074219 110.070312 112.199219 C 110.070312 124.320312 114.800781 135.546875 123.046875 142.996094 L 122.710938 143.367188 "/>
<path style=" stroke:none;fill-rule:nonzero;fill:rgb(100%,100%,100%);fill-opacity:1;" d="M 150.660156 144.300781 C 128.628906 144.300781 118.59375 127.660156 118.59375 112.199219 C 118.59375 103.792969 121.441406 95.957031 126.609375 90.136719 C 132.441406 83.570312 140.757812 80.097656 150.660156 80.097656 L 150.660156 80.601562 C 140.90625 80.601562 132.71875 84.015625 126.988281 90.46875 C 121.898438 96.199219 119.09375 103.917969 119.09375 112.199219 C 119.09375 127.417969 128.972656 143.796875 150.660156 143.796875 L 150.660156 144.300781 "/>
<path style=" stroke:none;fill-rule:nonzero;fill:rgb(100%,100%,100%);fill-opacity:1;" d="M 125.199219 123.3125 C 122.390625 116.25 122.390625 108.148438 125.199219 101.082031 L 125.667969 101.269531 C 122.90625 108.214844 122.90625 116.183594 125.667969 123.128906 L 125.199219 123.3125 "/>
<path style=" stroke:none;fill-rule:nonzero;fill:rgb(100%,100%,100%);fill-opacity:1;" d="M 132.105469 126.472656 C 126.164062 118.335938 126.164062 106.0625 132.105469 97.925781 L 132.511719 98.222656 C 126.695312 106.191406 126.695312 118.207031 132.511719 126.175781 L 132.105469 126.472656 "/>
<path style=" stroke:none;fill-rule:nonzero;fill:rgb(100%,100%,100%);fill-opacity:1;" d="M 136.964844 115.363281 C 136.535156 113.292969 136.535156 111.105469 136.964844 109.035156 L 137.457031 109.140625 C 137.042969 111.140625 137.042969 113.257812 137.457031 115.257812 L 136.964844 115.363281 "/>
<path style=" stroke:none;fill-rule:nonzero;fill:rgb(100%,100%,100%);fill-opacity:1;" d="M 142.039062 128.917969 C 135.925781 125.996094 132.128906 119.589844 132.128906 112.199219 C 132.128906 104.808594 135.925781 98.402344 142.039062 95.480469 L 142.257812 95.933594 C 136.320312 98.773438 132.632812 105.007812 132.632812 112.199219 C 132.632812 119.390625 136.320312 125.625 142.257812 128.464844 L 142.039062 128.917969 "/>
<path style=" stroke:none;fill-rule:nonzero;fill:rgb(100%,100%,100%);fill-opacity:1;" d="M 145.414062 120.324219 C 142.746094 118.667969 141.152344 115.632812 141.152344 112.199219 C 141.152344 108.765625 142.746094 105.730469 145.414062 104.074219 L 145.679688 104.5 C 143.160156 106.0625 141.65625 108.941406 141.65625 112.199219 C 141.65625 115.457031 143.160156 118.332031 145.679688 119.894531 L 145.414062 120.324219 "/>
<path style=" stroke:none;fill-rule:nonzero;fill:rgb(100%,100%,100%);fill-opacity:1;" d="M 146.234375 114.628906 C 145.472656 113.128906 145.472656 111.265625 146.234375 109.769531 L 146.683594 110 C 145.992188 111.355469 145.992188 113.042969 146.683594 114.402344 L 146.234375 114.628906 "/>
<g clip-path="url(#clip1)" clip-rule="nonzero">
<path style=" stroke:none;fill-rule:nonzero;fill:rgb(100%,100%,100%);fill-opacity:1;" d="M 80.597656 220.585938 C 62.59375 209.421875 47.871094 193.144531 38.023438 173.511719 C 28.742188 155.007812 23.835938 133.808594 23.835938 112.199219 C 23.835938 90.589844 28.742188 69.390625 38.023438 50.886719 C 47.871094 31.253906 62.59375 14.976562 80.597656 3.8125 L 80.863281 4.238281 C 45.46875 26.1875 24.339844 66.542969 24.339844 112.199219 C 24.339844 157.855469 45.46875 198.210938 80.863281 220.160156 L 80.597656 220.585938 "/>
</g>
<path style=" stroke:none;fill-rule:nonzero;fill:rgb(100%,100%,100%);fill-opacity:1;" d="M 42.3125 171.882812 C 33.179688 153.90625 28.347656 133.265625 28.347656 112.199219 C 28.347656 91.132812 33.179688 70.492188 42.3125 52.515625 L 42.761719 52.738281 C 24.128906 89.417969 24.128906 134.980469 42.761719 171.65625 L 42.3125 171.882812 "/>
<path style=" stroke:none;fill-rule:nonzero;fill:rgb(100%,100%,100%);fill-opacity:1;" d="M 152.738281 56.046875 C 151.8125 56.003906 150.871094 55.980469 149.9375 55.980469 L 149.9375 55.414062 C 150.878906 55.414062 151.832031 55.4375 152.765625 55.484375 Z M 158.3125 56.601562 C 157.390625 56.460938 156.453125 56.34375 155.53125 56.253906 L 155.585938 55.691406 C 156.519531 55.785156 157.464844 55.902344 158.394531 56.042969 Z M 163.800781 57.703125 C 162.898438 57.472656 161.980469 57.265625 161.070312 57.082031 L 161.179688 56.53125 C 162.101562 56.714844 163.027344 56.925781 163.9375 57.15625 Z M 169.15625 59.355469 C 168.285156 59.039062 167.390625 58.734375 166.496094 58.460938 L 166.660156 57.921875 C 167.566406 58.203125 168.46875 58.503906 169.351562 58.824219 Z M 174.324219 61.539062 C 173.492188 61.132812 172.628906 60.746094 171.769531 60.382812 L 171.988281 59.863281 C 172.855469 60.230469 173.726562 60.625 174.570312 61.03125 Z M 179.246094 64.226562 C 178.457031 63.742188 177.640625 63.269531 176.820312 62.820312 L 177.089844 62.328125 C 177.917969 62.777344 178.746094 63.257812 179.539062 63.746094 Z M 183.871094 67.390625 C 183.132812 66.828125 182.367188 66.277344 181.597656 65.75 L 181.917969 65.285156 C 182.691406 65.816406 183.464844 66.375 184.214844 66.941406 Z M 188.164062 71 C 187.480469 70.363281 186.773438 69.738281 186.0625 69.140625 L 186.425781 68.710938 C 187.144531 69.3125 187.855469 69.945312 188.546875 70.585938 Z M 192.074219 75.007812 C 191.453125 74.308594 190.8125 73.617188 190.167969 72.957031 L 190.570312 72.5625 C 191.222656 73.230469 191.867188 73.929688 192.496094 74.636719 Z M 195.5625 79.386719 C 195.023438 78.636719 194.453125 77.886719 193.871094 77.15625 L 194.3125 76.804688 C 194.902344 77.542969 195.472656 78.296875 196.023438 79.058594 Z M 198.605469 84.089844 C 198.136719 83.28125 197.644531 82.476562 197.140625 81.699219 L 197.613281 81.394531 C 198.125 82.179688 198.621094 82.992188 199.089844 83.804688 Z M 201.160156 89.066406 C 200.777344 88.222656 200.371094 87.375 199.945312 86.542969 L 200.445312 86.289062 C 200.875 87.125 201.289062 87.980469 201.671875 88.832031 Z M 203.207031 94.273438 C 202.910156 93.398438 202.589844 92.507812 202.25 91.640625 L 202.773438 91.433594 C 203.117188 92.3125 203.445312 93.207031 203.742188 94.097656 Z M 204.726562 99.667969 C 204.515625 98.757812 204.285156 97.847656 204.035156 96.953125 L 204.574219 96.800781 C 204.828125 97.703125 205.066406 98.625 205.273438 99.542969 Z M 205.695312 105.1875 C 205.578125 104.257812 205.4375 103.328125 205.277344 102.417969 L 205.832031 102.320312 C 205.996094 103.238281 206.136719 104.179688 206.253906 105.117188 Z M 206.113281 110.777344 C 206.089844 109.847656 206.042969 108.90625 205.972656 107.980469 L 206.535156 107.933594 C 206.605469 108.875 206.652344 109.824219 206.675781 110.765625 Z M 206.542969 116.421875 L 205.980469 116.382812 C 206.046875 115.460938 206.09375 114.519531 206.113281 113.582031 L 206.675781 113.59375 C 206.65625 114.539062 206.609375 115.492188 206.542969 116.421875 Z M 205.847656 122.042969 L 205.296875 121.945312 C 205.453125 121.03125 205.59375 120.097656 205.707031 119.171875 L 206.265625 119.242188 C 206.148438 120.179688 206.011719 121.121094 205.847656 122.042969 Z M 204.601562 127.5625 L 204.058594 127.410156 C 204.3125 126.515625 204.539062 125.601562 204.746094 124.691406 L 205.296875 124.816406 C 205.089844 125.734375 204.855469 126.660156 204.601562 127.5625 Z M 202.804688 132.9375 L 202.28125 132.734375 C 202.621094 131.863281 202.941406 130.972656 203.238281 130.089844 L 203.769531 130.269531 C 203.472656 131.164062 203.148438 132.0625 202.804688 132.9375 Z M 200.476562 138.109375 L 199.976562 137.851562 C 200.398438 137.019531 200.808594 136.171875 201.191406 135.320312 L 201.707031 135.550781 C 201.316406 136.410156 200.90625 137.269531 200.476562 138.109375 Z M 197.644531 143.015625 L 197.171875 142.710938 C 197.679688 141.929688 198.171875 141.121094 198.636719 140.316406 L 199.121094 140.597656 C 198.652344 141.410156 198.15625 142.226562 197.644531 143.015625 Z M 194.339844 147.617188 L 193.902344 147.265625 C 194.484375 146.535156 195.050781 145.78125 195.59375 145.027344 L 196.050781 145.355469 C 195.503906 146.121094 194.929688 146.878906 194.339844 147.617188 Z M 190.597656 151.863281 L 190.195312 151.46875 C 190.847656 150.800781 191.492188 150.109375 192.101562 149.414062 L 192.523438 149.785156 C 191.90625 150.488281 191.257812 151.1875 190.597656 151.863281 Z M 186.460938 155.71875 L 186.097656 155.285156 C 186.808594 154.6875 187.515625 154.0625 188.195312 153.429688 L 188.578125 153.839844 C 187.894531 154.480469 187.179688 155.113281 186.460938 155.71875 Z M 181.960938 159.140625 L 181.644531 158.675781 C 182.40625 158.152344 183.171875 157.601562 183.914062 157.035156 L 184.253906 157.484375 C 183.503906 158.054688 182.730469 158.613281 181.960938 159.140625 Z M 177.148438 162.097656 L 176.878906 161.605469 C 177.6875 161.160156 178.5 160.6875 179.296875 160.199219 L 179.589844 160.679688 C 178.789062 161.175781 177.964844 161.652344 177.148438 162.097656 Z M 172.066406 164.5625 L 171.847656 164.042969 C 172.695312 163.683594 173.554688 163.292969 174.390625 162.886719 L 174.636719 163.394531 C 173.789062 163.804688 172.921875 164.199219 172.066406 164.5625 Z M 166.757812 166.503906 L 166.59375 165.964844 C 167.480469 165.691406 168.371094 165.386719 169.246094 165.070312 L 169.441406 165.597656 C 168.558594 165.921875 167.65625 166.226562 166.757812 166.503906 Z M 161.28125 167.90625 L 161.167969 167.355469 C 162.082031 167.167969 163 166.957031 163.898438 166.726562 L 164.039062 167.273438 C 163.132812 167.503906 162.203125 167.71875 161.28125 167.90625 Z M 155.6875 168.753906 L 155.632812 168.191406 C 156.5625 168.097656 157.496094 167.980469 158.410156 167.839844 L 158.496094 168.398438 C 157.570312 168.539062 156.625 168.660156 155.6875 168.753906 Z M 150.042969 169.042969 L 150.042969 168.476562 C 150.96875 168.476562 151.910156 168.449219 152.84375 168.402344 L 152.871094 168.964844 C 151.929688 169.015625 150.980469 169.039062 150.042969 169.042969 "/>
<path style=" stroke:none;fill-rule:nonzero;fill:rgb(100%,100%,100%);fill-opacity:1;" d="M 149.9375 161.339844 L 149.9375 159.832031 C 176.160156 159.832031 197.496094 138.476562 197.496094 112.226562 C 197.496094 85.980469 176.160156 64.625 149.9375 64.625 L 149.9375 63.113281 C 176.992188 63.113281 199.003906 85.148438 199.003906 112.226562 C 199.003906 139.308594 176.992188 161.339844 149.9375 161.339844 "/>
<path style=" stroke:none;fill-rule:nonzero;fill:rgb(100%,100%,100%);fill-opacity:1;" d="M 149.9375 150.179688 C 129.035156 150.179688 112.023438 133.15625 112.023438 112.226562 C 112.023438 91.300781 129.035156 74.277344 149.9375 74.277344 C 170.84375 74.277344 187.851562 91.300781 187.851562 112.226562 L 184.324219 112.226562 C 184.324219 93.25 168.898438 77.808594 149.9375 77.808594 C 130.980469 77.808594 115.554688 93.25 115.554688 112.226562 C 115.554688 131.207031 130.980469 146.648438 149.9375 146.648438 C 157.339844 146.648438 164.394531 144.328125 170.332031 139.945312 L 172.425781 142.785156 C 165.875 147.625 158.101562 150.179688 149.9375 150.179688 "/>
<path style=" stroke:none;fill-rule:nonzero;fill:rgb(100%,100%,100%);fill-opacity:1;" d="M 221.148438 112.226562 L 218.132812 112.226562 C 218.132812 74.585938 187.542969 43.964844 149.9375 43.964844 L 149.9375 40.949219 C 189.203125 40.949219 221.148438 72.921875 221.148438 112.226562 "/>
<path style=" stroke:none;fill-rule:nonzero;fill:rgb(100%,100%,100%);fill-opacity:1;" d="M 271.597656 122.070312 L 178.730469 122.070312 L 169.152344 112.480469 L 149.9375 112.480469 L 149.9375 111.976562 L 169.363281 111.976562 L 178.941406 121.566406 L 270.382812 121.566406 L 252.546875 103.707031 L 252.546875 87.402344 L 301.132812 87.402344 L 301.132812 87.90625 L 253.046875 87.90625 L 253.046875 103.5 L 271.597656 122.070312 "/>
<path style=" stroke:none;fill-rule:nonzero;fill:rgb(100%,100%,100%);fill-opacity:1;" d="M 286.816406 133.480469 L 261.78125 133.480469 L 252.632812 124.320312 L 177.226562 124.320312 L 167.648438 114.734375 L 149.9375 114.734375 L 149.9375 114.230469 L 167.855469 114.230469 L 177.433594 123.816406 L 252.84375 123.816406 L 261.992188 132.976562 L 286.3125 132.976562 L 286.3125 109.40625 L 336.050781 109.40625 L 336.050781 109.90625 L 286.816406 109.90625 L 286.816406 133.480469 "/>
<path style=" stroke:none;fill-rule:nonzero;fill:rgb(100%,100%,100%);fill-opacity:1;" d="M 316.207031 144.230469 L 243.003906 144.230469 L 228.433594 129.648438 L 149.9375 129.648438 L 149.9375 129.144531 L 228.644531 129.144531 L 243.210938 143.726562 L 316.207031 143.726562 L 316.207031 144.230469 "/>
<path style=" stroke:none;fill-rule:nonzero;fill:rgb(100%,100%,100%);fill-opacity:1;" d="M 295.179688 103.589844 L 287.394531 95.796875 L 287.75 95.441406 L 295.535156 103.234375 L 295.179688 103.589844 "/>
<path style=" stroke:none;fill-rule:nonzero;fill:rgb(100%,100%,100%);fill-opacity:1;" d="M 299.074219 103.589844 L 291.285156 95.796875 L 291.640625 95.441406 L 299.429688 103.234375 L 299.074219 103.589844 "/>
<path style=" stroke:none;fill-rule:nonzero;fill:rgb(100%,100%,100%);fill-opacity:1;" d="M 302.96875 103.589844 L 295.179688 95.796875 L 295.535156 95.441406 L 303.320312 103.234375 L 302.96875 103.589844 "/>
<g clip-path="url(#clip2)" clip-rule="nonzero">
<path style=" stroke:none;fill-rule:nonzero;fill:rgb(100%,100%,100%);fill-opacity:1;" d="M 337.777344 112.457031 L 334.980469 109.65625 L 337.777344 106.855469 L 340.574219 109.65625 L 337.777344 112.457031 "/>
</g>
<path style=" stroke:none;fill-rule:nonzero;fill:rgb(100%,100%,100%);fill-opacity:1;" d="M 302.609375 90.453125 L 299.8125 87.65625 L 302.609375 84.855469 L 305.40625 87.65625 L 302.609375 90.453125 "/>
<path style=" stroke:none;fill-rule:nonzero;fill:rgb(100%,100%,100%);fill-opacity:1;" d="M 316.207031 112.457031 L 313.410156 109.65625 L 316.207031 106.855469 L 319.003906 109.65625 L 316.207031 112.457031 "/>
<path style=" stroke:none;fill-rule:nonzero;fill:rgb(100%,100%,100%);fill-opacity:1;" d="M 286.535156 136.027344 L 283.738281 133.230469 L 286.535156 130.429688 L 289.332031 133.230469 L 286.535156 136.027344 "/>
<path style=" stroke:none;fill-rule:nonzero;fill:rgb(100%,100%,100%);fill-opacity:1;" d="M 253.113281 90.453125 L 250.316406 87.65625 L 253.113281 84.855469 L 255.910156 87.65625 L 253.113281 90.453125 "/>
<path style=" stroke:none;fill-rule:nonzero;fill:rgb(100%,100%,100%);fill-opacity:1;" d="M 242.996094 146.777344 L 240.195312 143.980469 L 242.996094 141.179688 L 245.792969 143.980469 L 242.996094 146.777344 "/>
<path style=" stroke:none;fill-rule:nonzero;fill:rgb(100%,100%,100%);fill-opacity:1;" d="M 165.5 132.195312 L 162.703125 129.394531 L 165.5 126.597656 L 168.296875 129.394531 L 165.5 132.195312 "/>
<path style=" stroke:none;fill-rule:nonzero;fill:rgb(100%,100%,100%);fill-opacity:1;" d="M 317.554688 146.777344 L 314.757812 143.980469 L 317.554688 141.179688 L 320.355469 143.980469 L 317.554688 146.777344 "/>
<path style=" stroke:none;fill-rule:nonzero;fill:rgb(100%,100%,100%);fill-opacity:1;" d="M 261.921875 41.960938 C 259.152344 41.960938 256.898438 44.214844 256.898438 46.988281 C 256.898438 49.761719 259.152344 52.015625 261.921875 52.015625 C 264.691406 52.015625 266.945312 49.761719 266.945312 46.988281 C 266.945312 44.214844 264.691406 41.960938 261.921875 41.960938 Z M 261.921875 52.519531 C 258.875 52.519531 256.394531 50.039062 256.394531 46.988281 C 256.394531 43.9375 258.875 41.457031 261.921875 41.457031 C 264.96875 41.457031 267.449219 43.9375 267.449219 46.988281 C 267.449219 50.039062 264.96875 52.519531 261.921875 52.519531 "/>
<path style=" stroke:none;fill-rule:nonzero;fill:rgb(100%,100%,100%);fill-opacity:1;" d="M 262.171875 54.027344 L 261.671875 54.027344 L 261.671875 52.269531 L 262.171875 52.269531 L 262.171875 54.027344 "/>
<path style=" stroke:none;fill-rule:nonzero;fill:rgb(100%,100%,100%);fill-opacity:1;" d="M 262.171875 41.582031 L 261.671875 41.582031 L 261.671875 39.820312 L 262.171875 39.820312 L 262.171875 41.582031 "/>
<path style=" stroke:none;fill-rule:nonzero;fill:rgb(100%,100%,100%);fill-opacity:1;" d="M 269.019531 47.175781 L 267.261719 47.175781 L 267.261719 46.675781 L 269.019531 46.675781 L 269.019531 47.175781 "/>
<path style=" stroke:none;fill-rule:nonzero;fill:rgb(100%,100%,100%);fill-opacity:1;" d="M 256.585938 47.175781 L 254.828125 47.175781 L 254.828125 46.675781 L 256.585938 46.675781 L 256.585938 47.175781 "/>
<path style=" stroke:none;fill-rule:nonzero;fill:rgb(100%,100%,100%);fill-opacity:1;" d="M 206.414062 169.699219 C 203.640625 169.699219 201.390625 171.957031 201.390625 174.730469 C 201.390625 177.503906 203.640625 179.757812 206.414062 179.757812 C 209.183594 179.757812 211.4375 177.503906 211.4375 174.730469 C 211.4375 171.957031 209.183594 169.699219 206.414062 169.699219 Z M 206.414062 180.261719 C 203.363281 180.261719 200.886719 177.78125 200.886719 174.730469 C 200.886719 171.679688 203.363281 169.195312 206.414062 169.195312 C 209.457031 169.195312 211.9375 171.679688 211.9375 174.730469 C 211.9375 177.78125 209.457031 180.261719 206.414062 180.261719 "/>
<path style=" stroke:none;fill-rule:nonzero;fill:rgb(100%,100%,100%);fill-opacity:1;" d="M 206.664062 181.769531 L 206.160156 181.769531 L 206.160156 180.007812 L 206.664062 180.007812 L 206.664062 181.769531 "/>
<path style=" stroke:none;fill-rule:nonzero;fill:rgb(100%,100%,100%);fill-opacity:1;" d="M 206.664062 169.324219 L 206.160156 169.324219 L 206.160156 167.5625 L 206.664062 167.5625 L 206.664062 169.324219 "/>
<path style=" stroke:none;fill-rule:nonzero;fill:rgb(100%,100%,100%);fill-opacity:1;" d="M 213.507812 174.917969 L 211.75 174.917969 L 211.75 174.414062 L 213.507812 174.414062 L 213.507812 174.917969 "/>
<path style=" stroke:none;fill-rule:nonzero;fill:rgb(100%,100%,100%);fill-opacity:1;" d="M 201.074219 174.917969 L 199.316406 174.917969 L 199.316406 174.414062 L 201.074219 174.414062 L 201.074219 174.917969 "/>
<path style=" stroke:none;fill-rule:nonzero;fill:rgb(100%,100%,100%);fill-opacity:1;" d="M 272.214844 174.273438 L 271.859375 173.917969 L 278.429688 167.339844 L 271.859375 160.761719 L 272.214844 160.40625 L 279.140625 167.339844 L 272.214844 174.273438 "/>
<path style=" stroke:none;fill-rule:nonzero;fill:rgb(100%,100%,100%);fill-opacity:1;" d="M 271.726562 161.785156 C 271.308594 161.367188 271.308594 160.6875 271.726562 160.273438 C 272.140625 159.859375 272.820312 159.859375 273.234375 160.273438 C 273.648438 160.6875 273.648438 161.367188 273.234375 161.785156 C 272.820312 162.199219 272.140625 162.199219 271.726562 161.785156 "/>
<path style=" stroke:none;fill-rule:nonzero;fill:rgb(100%,100%,100%);fill-opacity:1;" d="M 271.28125 174.851562 C 270.863281 174.4375 270.863281 173.757812 271.28125 173.34375 C 271.695312 172.925781 272.375 172.925781 272.789062 173.34375 C 273.207031 173.757812 273.207031 174.4375 272.789062 174.851562 C 272.375 175.269531 271.695312 175.269531 271.28125 174.851562 "/>
<path style=" stroke:none;fill-rule:nonzero;fill:rgb(100%,100%,100%);fill-opacity:1;" d="M 232.015625 71.023438 L 225.089844 64.089844 L 232.015625 57.160156 L 232.371094 57.515625 L 225.800781 64.089844 L 232.371094 70.667969 L 232.015625 71.023438 "/>
<path style=" stroke:none;fill-rule:nonzero;fill:rgb(100%,100%,100%);fill-opacity:1;" d="M 232.503906 69.648438 C 232.917969 70.066406 232.917969 70.746094 232.503906 71.160156 C 232.089844 71.574219 231.410156 71.574219 230.996094 71.160156 C 230.582031 70.746094 230.582031 70.066406 230.996094 69.648438 C 231.410156 69.230469 232.089844 69.230469 232.503906 69.648438 "/>
<path style=" stroke:none;fill-rule:nonzero;fill:rgb(100%,100%,100%);fill-opacity:1;" d="M 232.949219 56.582031 C 233.363281 56.996094 233.363281 57.675781 232.949219 58.089844 C 232.53125 58.507812 231.855469 58.507812 231.4375 58.089844 C 231.023438 57.675781 231.023438 56.996094 231.4375 56.582031 C 231.855469 56.164062 232.53125 56.164062 232.949219 56.582031 "/>
<g clip-path="url(#clip3)" clip-rule="nonzero">
<path style=" stroke:none;fill-rule:nonzero;fill:rgb(100%,100%,100%);fill-opacity:1;" d="M 1269.445312 236.730469 L 1269.445312 197.3125 L 1283.425781 183.289062 L 1283.511719 183.289062 L 1305.050781 183.339844 L 1308.355469 180.027344 L 1308.355469 163.308594 L 1310.949219 160.707031 L 1310.949219 135.34375 L 1323.152344 123.109375 L 1344.832031 123.109375 L 1346.976562 120.957031 L 1346.976562 85.648438 L 1347.390625 85.648438 L 1347.390625 121.132812 L 1345.003906 123.527344 L 1323.324219 123.527344 L 1311.367188 135.515625 L 1311.367188 160.878906 L 1308.773438 163.480469 L 1308.773438 180.203125 L 1305.226562 183.757812 L 1305.140625 183.757812 L 1283.597656 183.707031 L 1269.859375 197.484375 L 1269.859375 236.730469 L 1269.445312 236.730469 "/>
</g>
<path style=" stroke:none;fill-rule:nonzero;fill:rgb(100%,100%,100%);fill-opacity:1;" d="M 1348.398438 84.011719 C 1348.398438 83.339844 1347.855469 82.792969 1347.183594 82.792969 C 1346.511719 82.792969 1345.964844 83.339844 1345.964844 84.011719 C 1345.964844 84.683594 1346.511719 85.230469 1347.183594 85.230469 C 1347.855469 85.230469 1348.398438 84.683594 1348.398438 84.011719 Z M 1345.132812 84.011719 C 1345.132812 82.878906 1346.054688 81.957031 1347.183594 81.957031 C 1348.3125 81.957031 1349.230469 82.878906 1349.230469 84.011719 C 1349.230469 85.144531 1348.3125 86.066406 1347.183594 86.066406 C 1346.054688 86.066406 1345.132812 85.144531 1345.132812 84.011719 "/>
<path style=" stroke:none;fill-rule:nonzero;fill:rgb(100%,100%,100%);fill-opacity:1;" d="M 1359.984375 91.585938 C 1359.984375 90.914062 1359.4375 90.367188 1358.769531 90.367188 C 1358.097656 90.367188 1357.554688 90.914062 1357.554688 91.585938 C 1357.554688 92.257812 1358.097656 92.804688 1358.769531 92.804688 C 1359.4375 92.804688 1359.984375 92.257812 1359.984375 91.585938 Z M 1356.71875 91.585938 C 1356.71875 90.453125 1357.636719 89.53125 1358.769531 89.53125 C 1359.898438 89.53125 1360.816406 90.453125 1360.816406 91.585938 C 1360.816406 92.71875 1359.898438 93.640625 1358.769531 93.640625 C 1357.636719 93.640625 1356.71875 92.71875 1356.71875 91.585938 "/>
<g clip-path="url(#clip4)" clip-rule="nonzero">
<path style=" stroke:none;fill-rule:nonzero;fill:rgb(100%,100%,100%);fill-opacity:1;" d="M 1273.273438 236.730469 L 1273.273438 198.765625 L 1285.070312 186.9375 L 1307.023438 186.9375 L 1311.984375 181.964844 L 1311.984375 165.324219 L 1314.792969 162.503906 L 1314.792969 137.171875 L 1324.515625 127.421875 L 1346.347656 127.421875 L 1350.457031 123.300781 L 1350.457031 95.925781 L 1354.996094 91.375 L 1357.136719 91.375 L 1357.136719 91.792969 L 1355.167969 91.792969 L 1350.875 96.101562 L 1350.875 123.472656 L 1346.523438 127.839844 L 1324.691406 127.839844 L 1315.210938 137.347656 L 1315.210938 162.675781 L 1312.398438 165.496094 L 1312.398438 182.140625 L 1307.195312 187.355469 L 1285.242188 187.355469 L 1273.691406 198.9375 L 1273.691406 236.730469 L 1273.273438 236.730469 "/>
</g>
<g clip-path="url(#clip5)" clip-rule="nonzero">
<path style=" stroke:none;fill-rule:nonzero;fill:rgb(100%,100%,100%);fill-opacity:1;" d="M 1271.398438 236.730469 L 1271.398438 198.070312 L 1284.304688 185.125 L 1305.980469 185.125 L 1310.027344 181.066406 L 1310.027344 164.347656 L 1312.808594 161.558594 L 1312.808594 136.199219 L 1323.769531 125.207031 L 1345.445312 125.207031 L 1348.660156 121.984375 L 1348.660156 94.53125 L 1351.890625 91.292969 L 1351.890625 79.640625 L 1352.304688 79.640625 L 1352.304688 91.464844 L 1349.074219 94.707031 L 1349.074219 122.15625 L 1345.617188 125.625 L 1323.941406 125.625 L 1313.222656 136.371094 L 1313.222656 161.730469 L 1310.445312 164.519531 L 1310.445312 181.242188 L 1306.152344 185.542969 L 1284.476562 185.542969 L 1271.816406 198.242188 L 1271.816406 236.730469 L 1271.398438 236.730469 "/>
</g>
<path style=" stroke:none;fill-rule:nonzero;fill:rgb(100%,100%,100%);fill-opacity:1;" d="M 1353.484375 77.167969 C 1353.484375 77.933594 1352.863281 78.554688 1352.097656 78.554688 C 1351.332031 78.554688 1350.714844 77.933594 1350.714844 77.167969 C 1350.714844 76.398438 1351.332031 75.777344 1352.097656 75.777344 C 1352.863281 75.777344 1353.484375 76.398438 1353.484375 77.167969 "/>
<path style=" stroke:none;fill-rule:nonzero;fill:rgb(100%,100%,100%);fill-opacity:1;" d="M 1354.183594 77.167969 C 1354.183594 76.011719 1353.246094 75.074219 1352.097656 75.074219 C 1350.949219 75.074219 1350.011719 76.011719 1350.011719 77.167969 C 1350.011719 78.320312 1350.949219 79.257812 1352.097656 79.257812 C 1353.246094 79.257812 1354.183594 78.320312 1354.183594 77.167969 Z M 1349.597656 77.167969 C 1349.597656 75.78125 1350.71875 74.65625 1352.097656 74.65625 C 1353.476562 74.65625 1354.597656 75.78125 1354.597656 77.167969 C 1354.597656 78.550781 1353.476562 79.675781 1352.097656 79.675781 C 1350.71875 79.675781 1349.597656 78.550781 1349.597656 77.167969 "/>
<path style=" stroke:none;fill-rule:nonzero;fill:rgb(100%,100%,100%);fill-opacity:1;" d="M 1345.671875 111.0625 C 1345.671875 110.390625 1345.125 109.84375 1344.457031 109.84375 C 1343.785156 109.84375 1343.238281 110.390625 1343.238281 111.0625 C 1343.238281 111.734375 1343.785156 112.28125 1344.457031 112.28125 C 1345.125 112.28125 1345.671875 111.734375 1345.671875 111.0625 Z M 1342.40625 111.0625 C 1342.40625 109.929688 1343.324219 109.007812 1344.457031 109.007812 C 1345.585938 109.007812 1346.503906 109.929688 1346.503906 111.0625 C 1346.503906 112.195312 1345.585938 113.117188 1344.457031 113.117188 C 1343.324219 113.117188 1342.40625 112.195312 1342.40625 111.0625 "/>
<path style=" stroke:none;fill-rule:nonzero;fill:rgb(100%,100%,100%);fill-opacity:1;" d="M 1268.191406 197.382812 C 1268.191406 196.710938 1267.644531 196.164062 1266.972656 196.164062 C 1266.304688 196.164062 1265.757812 196.710938 1265.757812 197.382812 C 1265.757812 198.054688 1266.304688 198.601562 1266.972656 198.601562 C 1267.644531 198.601562 1268.191406 198.054688 1268.191406 197.382812 Z M 1264.925781 197.382812 C 1264.925781 196.25 1265.84375 195.328125 1266.972656 195.328125 C 1268.101562 195.328125 1269.023438 196.25 1269.023438 197.382812 C 1269.023438 198.515625 1268.101562 199.4375 1266.972656 199.4375 C 1265.84375 199.4375 1264.925781 198.515625 1264.925781 197.382812 "/>
<path style=" stroke:none;fill-rule:nonzero;fill:rgb(100%,100%,100%);fill-opacity:1;" d="M 1267.84375 196.265625 L 1282.464844 181.601562 L 1303.894531 181.601562 L 1306.441406 179.046875 L 1306.441406 162.351562 L 1308.96875 159.816406 L 1308.96875 134.265625 L 1322.066406 121.132812 L 1344.246094 121.132812 L 1344.246094 112.304688 L 1344.664062 112.304688 L 1344.664062 121.550781 L 1322.238281 121.550781 L 1309.386719 134.4375 L 1309.386719 159.992188 L 1306.859375 162.523438 L 1306.859375 179.222656 L 1304.066406 182.019531 L 1282.636719 182.019531 L 1268.140625 196.558594 L 1267.84375 196.265625 "/>
<path style=" stroke:none;fill-rule:nonzero;fill:rgb(100%,100%,100%);fill-opacity:1;" d="M 1341.277344 113.328125 L 1341.277344 102.632812 L 1341.695312 102.632812 L 1341.695312 113.152344 L 1344.605469 116.070312 L 1344.308594 116.367188 L 1341.277344 113.328125 "/>
<g clip-path="url(#clip6)" clip-rule="nonzero">
<path style=" stroke:none;fill-rule:nonzero;fill:rgb(100%,100%,100%);fill-opacity:1;" d="M 1275.011719 236.730469 L 1275.011719 199.53125 L 1285.796875 188.714844 L 1307.925781 188.714844 L 1313.832031 182.792969 L 1313.832031 166.4375 L 1318.949219 161.308594 L 1318.949219 138.707031 L 1326.28125 131.351562 L 1336.445312 131.351562 L 1340.054688 134.96875 L 1350.378906 134.96875 L 1353.921875 131.417969 L 1357.222656 131.417969 L 1370.191406 144.421875 L 1372.074219 144.421875 L 1372.074219 144.84375 L 1370.019531 144.84375 L 1357.050781 131.835938 L 1354.09375 131.835938 L 1350.550781 135.386719 L 1339.882812 135.386719 L 1336.273438 131.769531 L 1326.453125 131.769531 L 1319.363281 138.878906 L 1319.363281 161.480469 L 1314.25 166.609375 L 1314.25 182.964844 L 1308.097656 189.132812 L 1285.96875 189.132812 L 1275.429688 199.703125 L 1275.429688 236.730469 L 1275.011719 236.730469 "/>
</g>
<path style=" stroke:none;fill-rule:nonzero;fill:rgb(100%,100%,100%);fill-opacity:1;" d="M 1320.695312 149.800781 C 1320.695312 150.707031 1319.960938 151.4375 1319.058594 151.4375 C 1318.160156 151.4375 1317.429688 150.707031 1317.429688 149.800781 C 1317.429688 148.898438 1318.160156 148.164062 1319.058594 148.164062 C 1319.960938 148.164062 1320.695312 148.898438 1320.695312 149.800781 "/>
<path style=" stroke:none;fill-rule:nonzero;fill:rgb(100%,100%,100%);fill-opacity:1;" d="M 1326.148438 130.363281 L 1326.148438 129.945312 L 1337.351562 129.945312 L 1340.894531 133.496094 L 1349.40625 133.496094 L 1353.195312 129.699219 L 1356.925781 129.699219 L 1356.925781 120.121094 L 1357.34375 120.121094 L 1357.34375 130.117188 L 1353.367188 130.117188 L 1349.578125 133.914062 L 1340.722656 133.914062 L 1337.179688 130.363281 L 1326.148438 130.363281 "/>
<path style=" stroke:none;fill-rule:nonzero;fill:rgb(100%,100%,100%);fill-opacity:1;" d="M 1375.753906 144.191406 C 1375.753906 144.957031 1375.132812 145.578125 1374.367188 145.578125 C 1373.601562 145.578125 1372.980469 144.957031 1372.980469 144.191406 C 1372.980469 143.421875 1373.601562 142.800781 1374.367188 142.800781 C 1375.132812 142.800781 1375.753906 143.421875 1375.753906 144.191406 "/>
<path style=" stroke:none;fill-rule:nonzero;fill:rgb(100%,100%,100%);fill-opacity:1;" d="M 1376.449219 144.191406 C 1376.449219 143.039062 1375.515625 142.101562 1374.367188 142.101562 C 1373.21875 142.101562 1372.28125 143.039062 1372.28125 144.191406 C 1372.28125 145.339844 1373.21875 146.28125 1374.367188 146.28125 C 1375.515625 146.28125 1376.449219 145.339844 1376.449219 144.191406 Z M 1371.867188 144.191406 C 1371.867188 142.808594 1372.988281 141.683594 1374.367188 141.683594 C 1375.746094 141.683594 1376.867188 142.808594 1376.867188 144.191406 C 1376.867188 145.574219 1375.746094 146.699219 1374.367188 146.699219 C 1372.988281 146.699219 1371.867188 145.574219 1371.867188 144.191406 "/>
<path style=" stroke:none;fill-rule:nonzero;fill:rgb(100%,100%,100%);fill-opacity:1;" d="M 1358.523438 119.144531 C 1358.523438 119.914062 1357.902344 120.535156 1357.136719 120.535156 C 1356.371094 120.535156 1355.75 119.914062 1355.75 119.144531 C 1355.75 118.378906 1356.371094 117.753906 1357.136719 117.753906 C 1357.902344 117.753906 1358.523438 118.378906 1358.523438 119.144531 "/>
<g clip-path="url(#clip7)" clip-rule="nonzero">
<path style=" stroke:none;fill-rule:nonzero;fill:rgb(100%,100%,100%);fill-opacity:1;" d="M 1276.886719 236.730469 L 1276.886719 200.855469 L 1279.914062 197.820312 L 1284.234375 197.820312 L 1287.121094 194.929688 L 1287.414062 195.222656 L 1284.40625 198.238281 L 1280.085938 198.238281 L 1277.304688 201.03125 L 1277.304688 236.730469 L 1276.886719 236.730469 "/>
</g>
<path style=" stroke:none;fill-rule:nonzero;fill:rgb(100%,100%,100%);fill-opacity:1;" d="M 1289.460938 194.109375 C 1289.460938 193.4375 1288.917969 192.890625 1288.246094 192.890625 C 1287.578125 192.890625 1287.03125 193.4375 1287.03125 194.109375 C 1287.03125 194.78125 1287.578125 195.328125 1288.246094 195.328125 C 1288.917969 195.328125 1289.460938 194.78125 1289.460938 194.109375 Z M 1286.195312 194.109375 C 1286.195312 192.976562 1287.117188 192.054688 1288.246094 192.054688 C 1289.378906 192.054688 1290.296875 192.976562 1290.296875 194.109375 C 1290.296875 195.242188 1289.378906 196.164062 1288.246094 196.164062 C 1287.117188 196.164062 1286.195312 195.242188 1286.195312 194.109375 "/>
<g clip-path="url(#clip8)" clip-rule="nonzero">
<path style=" stroke:none;fill-rule:nonzero;fill:rgb(100%,100%,100%);fill-opacity:1;" d="M 1278.746094 236.730469 L 1278.746094 202.195312 L 1281.238281 199.695312 L 1286.527344 199.695312 L 1295.816406 190.382812 L 1306.867188 190.382812 L 1308.867188 192.386719 L 1310.398438 192.386719 L 1310.398438 192.804688 L 1308.695312 192.804688 L 1306.695312 190.800781 L 1295.988281 190.800781 L 1286.699219 200.113281 L 1281.410156 200.113281 L 1279.160156 202.371094 L 1279.160156 236.730469 L 1278.746094 236.730469 "/>
</g>
<path style=" stroke:none;fill-rule:nonzero;fill:rgb(100%,100%,100%);fill-opacity:1;" d="M 1314.074219 192.472656 C 1314.074219 193.238281 1313.457031 193.859375 1312.691406 193.859375 C 1311.925781 193.859375 1311.304688 193.238281 1311.304688 192.472656 C 1311.304688 191.703125 1311.925781 191.082031 1312.691406 191.082031 C 1313.457031 191.082031 1314.074219 191.703125 1314.074219 192.472656 "/>
<path style=" stroke:none;fill-rule:nonzero;fill:rgb(100%,100%,100%);fill-opacity:1;" d="M 1314.773438 192.472656 C 1314.773438 191.316406 1313.839844 190.378906 1312.691406 190.378906 C 1311.539062 190.378906 1310.605469 191.316406 1310.605469 192.472656 C 1310.605469 193.625 1311.539062 194.5625 1312.691406 194.5625 C 1313.839844 194.5625 1314.773438 193.625 1314.773438 192.472656 Z M 1310.1875 192.472656 C 1310.1875 191.085938 1311.308594 189.960938 1312.691406 189.960938 C 1314.070312 189.960938 1315.191406 191.085938 1315.191406 192.472656 C 1315.191406 193.855469 1314.070312 194.980469 1312.691406 194.980469 C 1311.308594 194.980469 1310.1875 193.855469 1310.1875 192.472656 "/>
<path style=" stroke:none;fill-rule:nonzero;fill:rgb(100%,100%,100%);fill-opacity:1;" d="M 1301.339844 219.644531 C 1301.339844 220.410156 1300.71875 221.035156 1299.953125 221.035156 C 1299.1875 221.035156 1298.566406 220.410156 1298.566406 219.644531 C 1298.566406 218.875 1299.1875 218.253906 1299.953125 218.253906 C 1300.71875 218.253906 1301.339844 218.875 1301.339844 219.644531 "/>
<path style=" stroke:none;fill-rule:nonzero;fill:rgb(100%,100%,100%);fill-opacity:1;" d="M 1302.039062 219.644531 C 1302.039062 218.492188 1301.105469 217.554688 1299.953125 217.554688 C 1298.804688 217.554688 1297.871094 218.492188 1297.871094 219.644531 C 1297.871094 220.796875 1298.804688 221.734375 1299.953125 221.734375 C 1301.105469 221.734375 1302.039062 220.796875 1302.039062 219.644531 Z M 1297.453125 219.644531 C 1297.453125 218.261719 1298.574219 217.136719 1299.953125 217.136719 C 1301.332031 217.136719 1302.457031 218.261719 1302.457031 219.644531 C 1302.457031 221.027344 1301.332031 222.152344 1299.953125 222.152344 C 1298.574219 222.152344 1297.453125 221.027344 1297.453125 219.644531 "/>
<path style=" stroke:none;fill-rule:nonzero;fill:rgb(100%,100%,100%);fill-opacity:1;" d="M 1320.484375 146.488281 L 1320.484375 140.101562 L 1326.945312 133.621094 L 1335.40625 133.621094 L 1339.453125 137.679688 L 1352.097656 137.679688 L 1352.097656 138.097656 L 1339.28125 138.097656 L 1335.230469 134.039062 L 1327.121094 134.039062 L 1320.902344 140.273438 L 1320.902344 146.488281 L 1320.484375 146.488281 "/>
<g clip-path="url(#clip9)" clip-rule="nonzero">
<path style=" stroke:none;fill-rule:nonzero;fill:rgb(100%,100%,100%);fill-opacity:1;" d="M 1280.777344 236.730469 L 1280.777344 202.945312 L 1282.359375 201.359375 L 1286.285156 201.359375 L 1290.339844 205.425781 L 1290.042969 205.722656 L 1286.109375 201.777344 L 1282.53125 201.777344 L 1281.195312 203.117188 L 1281.195312 236.730469 L 1280.777344 236.730469 "/>
</g>
<path style=" stroke:none;fill-rule:nonzero;fill:rgb(100%,100%,100%);fill-opacity:1;" d="M 1292.648438 206.378906 C 1292.648438 207.144531 1292.03125 207.765625 1291.265625 207.765625 C 1290.5 207.765625 1289.878906 207.144531 1289.878906 206.378906 C 1289.878906 205.609375 1290.5 204.988281 1291.265625 204.988281 C 1292.03125 204.988281 1292.648438 205.609375 1292.648438 206.378906 "/>
<path style=" stroke:none;fill-rule:nonzero;fill:rgb(100%,100%,100%);fill-opacity:1;" d="M 1287.777344 216.191406 C 1287.234375 216.730469 1286.359375 216.730469 1285.816406 216.191406 C 1285.273438 215.648438 1285.273438 214.765625 1285.816406 214.226562 C 1286.359375 213.683594 1287.234375 213.683594 1287.777344 214.226562 C 1288.316406 214.765625 1288.316406 215.648438 1287.777344 216.191406 "/>
<path style=" stroke:none;fill-rule:nonzero;fill:rgb(100%,100%,100%);fill-opacity:1;" d="M 1318.066406 216.191406 C 1317.523438 216.730469 1316.648438 216.730469 1316.105469 216.191406 C 1315.5625 215.648438 1315.5625 214.765625 1316.105469 214.226562 C 1316.648438 213.683594 1317.523438 213.683594 1318.066406 214.226562 C 1318.605469 214.765625 1318.605469 215.648438 1318.066406 216.191406 "/>
<g clip-path="url(#clip10)" clip-rule="nonzero">
<path style=" stroke:none;fill-rule:nonzero;fill:rgb(100%,100%,100%);fill-opacity:1;" d="M 1282.582031 236.730469 L 1282.582031 219.0625 L 1285.785156 215.855469 L 1286.078125 216.152344 L 1283 219.238281 L 1283 236.730469 L 1282.582031 236.730469 "/>
</g>
<path style=" stroke:none;fill-rule:nonzero;fill:rgb(100%,100%,100%);fill-opacity:1;" d="M 1342.871094 100.34375 C 1342.871094 101.109375 1342.25 101.734375 1341.484375 101.734375 C 1340.71875 101.734375 1340.097656 101.109375 1340.097656 100.34375 C 1340.097656 99.578125 1340.71875 98.957031 1341.484375 98.957031 C 1342.25 98.957031 1342.871094 99.578125 1342.871094 100.34375 "/>
<path style=" stroke:none;fill-rule:nonzero;fill:rgb(100%,100%,100%);fill-opacity:1;" d="M 1343.570312 100.34375 C 1343.570312 99.191406 1342.636719 98.253906 1341.484375 98.253906 C 1340.335938 98.253906 1339.402344 99.191406 1339.402344 100.34375 C 1339.402344 101.496094 1340.335938 102.433594 1341.484375 102.433594 C 1342.636719 102.433594 1343.570312 101.496094 1343.570312 100.34375 Z M 1338.984375 100.34375 C 1338.984375 98.960938 1340.105469 97.835938 1341.484375 97.835938 C 1342.863281 97.835938 1343.988281 98.960938 1343.988281 100.34375 C 1343.988281 101.726562 1342.863281 102.851562 1341.484375 102.851562 C 1340.105469 102.851562 1338.984375 101.726562 1338.984375 100.34375 "/>
<g clip-path="url(#clip11)" clip-rule="nonzero">
<path style=" stroke:none;fill-rule:nonzero;fill:rgb(100%,100%,100%);fill-opacity:1;" d="M 1316.875 236.730469 L 1316.875 172.359375 L 1321.210938 168.011719 L 1321.507812 168.308594 L 1317.292969 172.53125 L 1317.292969 236.730469 L 1316.875 236.730469 "/>
</g>
<path style=" stroke:none;fill-rule:nonzero;fill:rgb(100%,100%,100%);fill-opacity:1;" d="M 1323.886719 166.875 C 1323.886719 166.203125 1323.339844 165.65625 1322.667969 165.65625 C 1322 165.65625 1321.453125 166.203125 1321.453125 166.875 C 1321.453125 167.546875 1322 168.09375 1322.667969 168.09375 C 1323.339844 168.09375 1323.886719 167.546875 1323.886719 166.875 Z M 1320.621094 166.875 C 1320.621094 165.742188 1321.539062 164.820312 1322.667969 164.820312 C 1323.800781 164.820312 1324.71875 165.742188 1324.71875 166.875 C 1324.71875 168.007812 1323.800781 168.929688 1322.667969 168.929688 C 1321.539062 168.929688 1320.621094 168.007812 1320.621094 166.875 "/>
<g clip-path="url(#clip12)" clip-rule="nonzero">
<path style=" stroke:none;fill-rule:nonzero;fill:rgb(100%,100%,100%);fill-opacity:1;" d="M 1266.765625 236.730469 L 1266.765625 199.019531 L 1267.183594 199.019531 L 1267.183594 236.730469 L 1266.765625 236.730469 "/>
</g>
<g clip-path="url(#clip13)" clip-rule="nonzero">
<path style=" stroke:none;fill-rule:nonzero;fill:rgb(100%,100%,100%);fill-opacity:1;" d="M 1263.894531 236.730469 L 1263.894531 194.992188 L 1280.484375 178.355469 L 1300.910156 178.355469 L 1303.421875 175.835938 L 1303.421875 159.714844 L 1306.222656 156.90625 L 1306.222656 134.613281 L 1306.636719 134.613281 L 1306.636719 157.078125 L 1303.835938 159.886719 L 1303.835938 176.007812 L 1301.082031 178.773438 L 1280.65625 178.773438 L 1264.3125 195.164062 L 1264.3125 236.730469 L 1263.894531 236.730469 "/>
</g>
<path style=" stroke:none;fill-rule:nonzero;fill:rgb(100%,100%,100%);fill-opacity:1;" d="M 1294.285156 178.589844 C 1294.285156 179.496094 1293.550781 180.226562 1292.648438 180.226562 C 1291.75 180.226562 1291.015625 179.496094 1291.015625 178.589844 C 1291.015625 177.6875 1291.75 176.953125 1292.648438 176.953125 C 1293.550781 176.953125 1294.285156 177.6875 1294.285156 178.589844 "/>
<g clip-path="url(#clip14)" clip-rule="nonzero">
<path style=" stroke:none;fill-rule:nonzero;fill:rgb(100%,100%,100%);fill-opacity:1;" d="M 1302.246094 219.910156 L 1302.246094 219.492188 L 1304.050781 219.492188 L 1308.332031 215.203125 L 1311.667969 215.203125 L 1315.515625 219.0625 L 1315.515625 236.734375 L 1315.101562 236.734375 L 1315.101562 219.238281 L 1311.496094 215.621094 L 1308.503906 215.621094 L 1304.226562 219.910156 L 1302.246094 219.910156 "/>
</g>
<path style=" stroke:none;fill-rule:nonzero;fill:rgb(100%,100%,100%);fill-opacity:1;" d="M 1294.675781 176.890625 L 1294.675781 176.472656 L 1299.597656 176.472656 L 1301.132812 174.9375 L 1301.132812 159.976562 L 1301.546875 159.976562 L 1301.546875 175.109375 L 1299.773438 176.890625 L 1294.675781 176.890625 "/>
<path style=" stroke:none;fill-rule:nonzero;fill:rgb(100%,100%,100%);fill-opacity:1;" d="M 1302.726562 157.765625 C 1302.726562 158.535156 1302.105469 159.15625 1301.339844 159.15625 C 1300.574219 159.15625 1299.953125 158.535156 1299.953125 157.765625 C 1299.953125 157 1300.574219 156.378906 1301.339844 156.378906 C 1302.105469 156.378906 1302.726562 157 1302.726562 157.765625 "/>
<path style=" stroke:none;fill-rule:nonzero;fill:rgb(100%,100%,100%);fill-opacity:1;" d="M 1303.425781 157.769531 C 1303.425781 156.617188 1302.488281 155.679688 1301.339844 155.679688 C 1300.191406 155.679688 1299.253906 156.617188 1299.253906 157.769531 C 1299.253906 158.917969 1300.191406 159.859375 1301.339844 159.859375 C 1302.488281 159.859375 1303.425781 158.917969 1303.425781 157.769531 Z M 1298.839844 157.769531 C 1298.839844 156.382812 1299.960938 155.261719 1301.339844 155.261719 C 1302.71875 155.261719 1303.839844 156.382812 1303.839844 157.769531 C 1303.839844 159.148438 1302.71875 160.277344 1301.339844 160.277344 C 1299.960938 160.277344 1298.839844 159.148438 1298.839844 157.769531 "/>
<g clip-path="url(#clip15)" clip-rule="nonzero">
<path style=" stroke:none;fill-rule:nonzero;fill:rgb(100%,100%,100%);fill-opacity:1;" d="M 1257.570312 236.730469 L 1257.570312 149.714844 L 1275.480469 131.757812 L 1291.179688 131.757812 L 1295.992188 126.929688 L 1295.992188 121.878906 L 1291.386719 117.261719 L 1291.386719 107.023438 L 1291.804688 107.023438 L 1291.804688 117.089844 L 1296.410156 121.707031 L 1296.410156 127.101562 L 1291.351562 132.175781 L 1275.652344 132.175781 L 1257.988281 149.886719 L 1257.988281 236.730469 L 1257.570312 236.730469 "/>
</g>
<path style=" stroke:none;fill-rule:nonzero;fill:rgb(100%,100%,100%);fill-opacity:1;" d="M 1259.414062 155.652344 C 1259.414062 156.558594 1258.679688 157.292969 1257.777344 157.292969 C 1256.878906 157.292969 1256.148438 156.558594 1256.148438 155.652344 C 1256.148438 154.75 1256.878906 154.015625 1257.777344 154.015625 C 1258.679688 154.015625 1259.414062 154.75 1259.414062 155.652344 "/>
<path style=" stroke:none;fill-rule:nonzero;fill:rgb(100%,100%,100%);fill-opacity:1;" d="M 1303.316406 118.015625 C 1303.316406 118.921875 1302.582031 119.65625 1301.683594 119.65625 C 1300.78125 119.65625 1300.050781 118.921875 1300.050781 118.015625 C 1300.050781 117.113281 1300.78125 116.378906 1301.683594 116.378906 C 1302.582031 116.378906 1303.316406 117.113281 1303.316406 118.015625 "/>
<path style=" stroke:none;fill-rule:nonzero;fill:rgb(100%,100%,100%);fill-opacity:1;" d="M 1292.804688 105.382812 C 1292.804688 104.714844 1292.257812 104.164062 1291.589844 104.164062 C 1290.917969 104.164062 1290.371094 104.714844 1290.371094 105.382812 C 1290.371094 106.058594 1290.917969 106.605469 1291.589844 106.605469 C 1292.257812 106.605469 1292.804688 106.058594 1292.804688 105.382812 Z M 1289.539062 105.382812 C 1289.539062 104.25 1290.457031 103.328125 1291.589844 103.328125 C 1292.71875 103.328125 1293.636719 104.25 1293.636719 105.382812 C 1293.636719 106.515625 1292.71875 107.441406 1291.589844 107.441406 C 1290.457031 107.441406 1289.539062 106.515625 1289.539062 105.382812 "/>
<path style=" stroke:none;fill-rule:nonzero;fill:rgb(100%,100%,100%);fill-opacity:1;" d="M 1255.070312 210.894531 L 1255.070312 148.496094 L 1274.558594 128.953125 L 1289.867188 128.953125 L 1292.828125 125.984375 L 1292.828125 123.273438 L 1288.75 119.179688 L 1285.851562 119.179688 L 1285.851562 118.761719 L 1288.921875 118.761719 L 1293.246094 123.101562 L 1293.246094 126.15625 L 1290.042969 129.371094 L 1274.734375 129.371094 L 1255.488281 148.667969 L 1255.488281 210.894531 L 1255.070312 210.894531 "/>
<g clip-path="url(#clip16)" clip-rule="nonzero">
<path style=" stroke:none;fill-rule:nonzero;fill:rgb(100%,100%,100%);fill-opacity:1;" d="M 1255.070312 236.730469 L 1255.070312 214.160156 L 1255.488281 214.160156 L 1255.488281 236.730469 L 1255.070312 236.730469 "/>
</g>
<path style=" stroke:none;fill-rule:nonzero;fill:rgb(100%,100%,100%);fill-opacity:1;" d="M 1285.152344 118.972656 C 1285.152344 119.738281 1284.53125 120.363281 1283.765625 120.363281 C 1283 120.363281 1282.378906 119.738281 1282.378906 118.972656 C 1282.378906 118.203125 1283 117.582031 1283.765625 117.582031 C 1284.53125 117.582031 1285.152344 118.203125 1285.152344 118.972656 "/>
<path style=" stroke:none;fill-rule:nonzero;fill:rgb(100%,100%,100%);fill-opacity:1;" d="M 1285.851562 118.972656 C 1285.851562 117.820312 1284.914062 116.882812 1283.765625 116.882812 C 1282.617188 116.882812 1281.679688 117.820312 1281.679688 118.972656 C 1281.679688 120.125 1282.617188 121.0625 1283.765625 121.0625 C 1284.914062 121.0625 1285.851562 120.125 1285.851562 118.972656 Z M 1281.265625 118.972656 C 1281.265625 117.589844 1282.386719 116.464844 1283.765625 116.464844 C 1285.144531 116.464844 1286.265625 117.589844 1286.265625 118.972656 C 1286.265625 120.355469 1285.144531 121.480469 1283.765625 121.480469 C 1282.386719 121.480469 1281.265625 120.355469 1281.265625 118.972656 "/>
<g clip-path="url(#clip17)" clip-rule="nonzero">
<path style=" stroke:none;fill-rule:nonzero;fill:rgb(100%,100%,100%);fill-opacity:1;" d="M 1259.796875 236.730469 L 1259.796875 150.691406 L 1276.191406 134.246094 L 1292.5625 134.246094 L 1298.273438 128.523438 L 1298.273438 121.183594 L 1300.445312 119.007812 L 1300.738281 119.304688 L 1298.691406 121.359375 L 1298.691406 128.695312 L 1292.738281 134.664062 L 1276.363281 134.664062 L 1260.210938 150.863281 L 1260.210938 236.730469 L 1259.796875 236.730469 "/>
</g>
<path style=" stroke:none;fill-rule:nonzero;fill:rgb(100%,100%,100%);fill-opacity:1;" d="M 1286.058594 137.46875 L 1286.058594 137.050781 L 1293.550781 137.050781 L 1301.339844 129.242188 L 1301.632812 129.539062 L 1293.722656 137.46875 L 1286.058594 137.46875 "/>
<g clip-path="url(#clip18)" clip-rule="nonzero">
<path style=" stroke:none;fill-rule:nonzero;fill:rgb(100%,100%,100%);fill-opacity:1;" d="M 1262.191406 236.730469 L 1262.191406 152.222656 L 1277.320312 137.050781 L 1282.792969 137.050781 L 1282.792969 137.46875 L 1277.492188 137.46875 L 1262.609375 152.394531 L 1262.609375 236.730469 L 1262.191406 236.730469 "/>
</g>
<path style=" stroke:none;fill-rule:nonzero;fill:rgb(100%,100%,100%);fill-opacity:1;" d="M 1285.640625 137.21875 C 1285.640625 136.546875 1285.097656 136 1284.425781 136 C 1283.753906 136 1283.207031 136.546875 1283.207031 137.21875 C 1283.207031 137.890625 1283.753906 138.4375 1284.425781 138.4375 C 1285.097656 138.4375 1285.640625 137.890625 1285.640625 137.21875 Z M 1282.375 137.21875 C 1282.375 136.085938 1283.296875 135.164062 1284.425781 135.164062 C 1285.554688 135.164062 1286.476562 136.085938 1286.476562 137.21875 C 1286.476562 138.351562 1285.554688 139.273438 1284.425781 139.273438 C 1283.296875 139.273438 1282.375 138.351562 1282.375 137.21875 "/>
<g clip-path="url(#clip19)" clip-rule="nonzero">
<path style=" stroke:none;fill-rule:nonzero;fill:rgb(100%,100%,100%);fill-opacity:1;" d="M 1256.496094 212.53125 C 1256.496094 211.859375 1255.949219 211.3125 1255.277344 211.3125 C 1254.609375 211.3125 1254.0625 211.859375 1254.0625 212.53125 C 1254.0625 213.203125 1254.609375 213.75 1255.277344 213.75 C 1255.949219 213.75 1256.496094 213.203125 1256.496094 212.53125 Z M 1253.230469 212.53125 C 1253.230469 211.398438 1254.148438 210.476562 1255.277344 210.476562 C 1256.410156 210.476562 1257.328125 211.398438 1257.328125 212.53125 C 1257.328125 213.664062 1256.410156 214.585938 1255.277344 214.585938 C 1254.148438 214.585938 1253.230469 213.664062 1253.230469 212.53125 "/>
</g>
<path style=" stroke:none;fill-rule:nonzero;fill:rgb(100%,100%,100%);fill-opacity:1;" d="M 1269.652344 184.28125 C 1269.652344 185.050781 1269.03125 185.671875 1268.265625 185.671875 C 1267.5 185.671875 1266.878906 185.050781 1266.878906 184.28125 C 1266.878906 183.515625 1267.5 182.894531 1268.265625 182.894531 C 1269.03125 182.894531 1269.652344 183.515625 1269.652344 184.28125 "/>
<path style=" stroke:none;fill-rule:nonzero;fill:rgb(100%,100%,100%);fill-opacity:1;" d="M 1269.652344 155.261719 C 1269.652344 156.03125 1269.03125 156.652344 1268.265625 156.652344 C 1267.5 156.652344 1266.878906 156.03125 1266.878906 155.261719 C 1266.878906 154.496094 1267.5 153.875 1268.265625 153.875 C 1269.03125 153.875 1269.652344 154.496094 1269.652344 155.261719 "/>
<path style=" stroke:none;fill-rule:nonzero;fill:rgb(100%,100%,100%);fill-opacity:1;" d="M 1264.742188 181.042969 L 1264.742188 158.125 L 1267.929688 154.925781 L 1268.226562 155.222656 L 1265.160156 158.296875 L 1265.160156 180.871094 L 1268.414062 184.132812 L 1268.121094 184.429688 L 1264.742188 181.042969 "/>
<path style=" stroke:none;fill-rule:nonzero;fill:rgb(100%,100%,100%);fill-opacity:1;" d="M 1319.65625 185.707031 L 1319.65625 177.804688 L 1320.074219 177.804688 L 1320.074219 185.53125 L 1321.703125 187.160156 L 1321.703125 190.4375 L 1321.285156 190.4375 L 1321.285156 187.335938 L 1319.65625 185.707031 "/>
<path style=" stroke:none;fill-rule:nonzero;fill:rgb(100%,100%,100%);fill-opacity:1;" d="M 1320.800781 175.171875 C 1321.4375 175.808594 1321.4375 176.847656 1320.800781 177.488281 C 1320.164062 178.125 1319.128906 178.125 1318.492188 177.488281 C 1317.855469 176.847656 1317.855469 175.808594 1318.492188 175.171875 C 1319.128906 174.53125 1320.164062 174.53125 1320.800781 175.171875 "/>
<path style=" stroke:none;fill-rule:nonzero;fill:rgb(100%,100%,100%);fill-opacity:1;" d="M 1322.894531 190.804688 C 1323.535156 191.445312 1323.535156 192.480469 1322.894531 193.121094 C 1322.257812 193.761719 1321.222656 193.761719 1320.585938 193.121094 C 1319.949219 192.480469 1319.949219 191.445312 1320.585938 190.804688 C 1321.222656 190.167969 1322.257812 190.167969 1322.894531 190.804688 "/>
<path style=" stroke:none;fill-rule:nonzero;fill:rgb(100%,100%,100%);fill-opacity:1;" d="M 1399.078125 138.964844 L 1399.078125 103.480469 L 1401.46875 101.085938 L 1423.144531 101.085938 L 1435.105469 89.09375 L 1435.105469 63.734375 L 1437.699219 61.128906 L 1437.699219 44.410156 L 1441.246094 40.855469 L 1441.332031 40.855469 L 1462.871094 40.90625 L 1476.609375 27.128906 L 1476.609375 -12.117188 L 1477.027344 -12.117188 L 1477.027344 27.300781 L 1463.042969 41.324219 L 1462.957031 41.324219 L 1441.417969 41.273438 L 1438.117188 44.582031 L 1438.117188 61.304688 L 1435.523438 63.90625 L 1435.523438 89.265625 L 1423.320312 101.503906 L 1401.640625 101.503906 L 1399.496094 103.65625 L 1399.496094 138.964844 L 1399.078125 138.964844 "/>
<path style=" stroke:none;fill-rule:nonzero;fill:rgb(100%,100%,100%);fill-opacity:1;" d="M 1400.503906 140.597656 C 1400.503906 139.929688 1399.957031 139.382812 1399.289062 139.382812 C 1398.617188 139.382812 1398.074219 139.929688 1398.074219 140.597656 C 1398.074219 141.273438 1398.617188 141.820312 1399.289062 141.820312 C 1399.957031 141.820312 1400.503906 141.273438 1400.503906 140.597656 Z M 1397.238281 140.597656 C 1397.238281 139.464844 1398.15625 138.546875 1399.289062 138.546875 C 1400.417969 138.546875 1401.339844 139.464844 1401.339844 140.597656 C 1401.339844 141.734375 1400.417969 142.65625 1399.289062 142.65625 C 1398.15625 142.65625 1397.238281 141.734375 1397.238281 140.597656 "/>
<path style=" stroke:none;fill-rule:nonzero;fill:rgb(100%,100%,100%);fill-opacity:1;" d="M 1388.917969 133.027344 C 1388.917969 132.355469 1388.371094 131.808594 1387.703125 131.808594 C 1387.03125 131.808594 1386.488281 132.355469 1386.488281 133.027344 C 1386.488281 133.699219 1387.03125 134.246094 1387.703125 134.246094 C 1388.371094 134.246094 1388.917969 133.699219 1388.917969 133.027344 Z M 1385.652344 133.027344 C 1385.652344 131.894531 1386.574219 130.972656 1387.703125 130.972656 C 1388.832031 130.972656 1389.75 131.894531 1389.75 133.027344 C 1389.75 134.160156 1388.832031 135.082031 1387.703125 135.082031 C 1386.574219 135.082031 1385.652344 134.160156 1385.652344 133.027344 "/>
<path style=" stroke:none;fill-rule:nonzero;fill:rgb(100%,100%,100%);fill-opacity:1;" d="M 1389.335938 133.234375 L 1389.335938 132.816406 L 1391.300781 132.816406 L 1395.597656 128.511719 L 1395.597656 101.136719 L 1399.949219 96.773438 L 1421.78125 96.773438 L 1431.261719 87.265625 L 1431.261719 61.933594 L 1434.070312 59.117188 L 1434.070312 42.472656 L 1439.273438 37.257812 L 1461.230469 37.257812 L 1472.78125 25.671875 L 1472.78125 -12.117188 L 1473.199219 -12.117188 L 1473.199219 25.847656 L 1461.402344 37.675781 L 1439.445312 37.675781 L 1434.488281 42.648438 L 1434.488281 59.289062 L 1431.679688 62.109375 L 1431.679688 87.4375 L 1421.953125 97.191406 L 1400.121094 97.191406 L 1396.011719 101.3125 L 1396.011719 128.683594 L 1391.476562 133.234375 L 1389.335938 133.234375 "/>
<path style=" stroke:none;fill-rule:nonzero;fill:rgb(100%,100%,100%);fill-opacity:1;" d="M 1394.164062 144.972656 L 1394.164062 133.144531 L 1397.394531 129.90625 L 1397.394531 102.453125 L 1400.851562 98.988281 L 1422.53125 98.988281 L 1433.246094 88.242188 L 1433.246094 62.878906 L 1436.027344 60.09375 L 1436.027344 43.371094 L 1440.316406 39.066406 L 1461.996094 39.066406 L 1474.65625 26.371094 L 1474.65625 -12.117188 L 1475.074219 -12.117188 L 1475.074219 26.542969 L 1462.167969 39.484375 L 1440.492188 39.484375 L 1436.445312 43.542969 L 1436.445312 60.265625 L 1433.664062 63.050781 L 1433.664062 88.414062 L 1422.703125 99.40625 L 1401.027344 99.40625 L 1397.8125 102.628906 L 1397.8125 130.078125 L 1394.582031 133.316406 L 1394.582031 144.972656 L 1394.164062 144.972656 "/>
<path style=" stroke:none;fill-rule:nonzero;fill:rgb(100%,100%,100%);fill-opacity:1;" d="M 1392.988281 147.445312 C 1392.988281 146.679688 1393.609375 146.058594 1394.375 146.058594 C 1395.140625 146.058594 1395.757812 146.679688 1395.757812 147.445312 C 1395.757812 148.210938 1395.140625 148.835938 1394.375 148.835938 C 1393.609375 148.835938 1392.988281 148.210938 1392.988281 147.445312 "/>
<path style=" stroke:none;fill-rule:nonzero;fill:rgb(100%,100%,100%);fill-opacity:1;" d="M 1396.457031 147.445312 C 1396.457031 146.292969 1395.519531 145.355469 1394.375 145.355469 C 1393.222656 145.355469 1392.289062 146.292969 1392.289062 147.445312 C 1392.289062 148.597656 1393.222656 149.535156 1394.375 149.535156 C 1395.519531 149.535156 1396.457031 148.597656 1396.457031 147.445312 Z M 1391.871094 147.445312 C 1391.871094 146.0625 1392.996094 144.9375 1394.375 144.9375 C 1395.753906 144.9375 1396.875 146.0625 1396.875 147.445312 C 1396.875 148.828125 1395.753906 149.953125 1394.375 149.953125 C 1392.996094 149.953125 1391.871094 148.828125 1391.871094 147.445312 "/>
<path style=" stroke:none;fill-rule:nonzero;fill:rgb(100%,100%,100%);fill-opacity:1;" d="M 1403.230469 113.550781 C 1403.230469 112.875 1402.6875 112.328125 1402.015625 112.328125 C 1401.34375 112.328125 1400.800781 112.875 1400.800781 113.550781 C 1400.800781 114.222656 1401.34375 114.769531 1402.015625 114.769531 C 1402.6875 114.769531 1403.230469 114.222656 1403.230469 113.550781 Z M 1399.964844 113.550781 C 1399.964844 112.414062 1400.886719 111.492188 1402.015625 111.492188 C 1403.144531 111.492188 1404.066406 112.414062 1404.066406 113.550781 C 1404.066406 114.683594 1403.144531 115.605469 1402.015625 115.605469 C 1400.886719 115.605469 1399.964844 114.683594 1399.964844 113.550781 "/>
<path style=" stroke:none;fill-rule:nonzero;fill:rgb(100%,100%,100%);fill-opacity:1;" d="M 1480.710938 27.230469 C 1480.710938 26.558594 1480.167969 26.011719 1479.496094 26.011719 C 1478.828125 26.011719 1478.28125 26.558594 1478.28125 27.230469 C 1478.28125 27.902344 1478.828125 28.449219 1479.496094 28.449219 C 1480.167969 28.449219 1480.710938 27.902344 1480.710938 27.230469 Z M 1477.449219 27.230469 C 1477.449219 26.097656 1478.367188 25.175781 1479.496094 25.175781 C 1480.628906 25.175781 1481.546875 26.097656 1481.546875 27.230469 C 1481.546875 28.363281 1480.628906 29.285156 1479.496094 29.285156 C 1478.367188 29.285156 1477.449219 28.363281 1477.449219 27.230469 "/>
<path style=" stroke:none;fill-rule:nonzero;fill:rgb(100%,100%,100%);fill-opacity:1;" d="M 1401.808594 112.304688 L 1401.808594 103.0625 L 1424.230469 103.0625 L 1437.085938 90.175781 L 1437.085938 64.621094 L 1439.613281 62.085938 L 1439.613281 45.390625 L 1442.40625 42.589844 L 1463.835938 42.589844 L 1478.332031 28.054688 L 1478.628906 28.347656 L 1464.007812 43.007812 L 1442.578125 43.007812 L 1440.03125 45.566406 L 1440.03125 62.261719 L 1437.503906 64.792969 L 1437.503906 90.347656 L 1424.40625 103.480469 L 1402.222656 103.480469 L 1402.222656 112.304688 L 1401.808594 112.304688 "/>
<path style=" stroke:none;fill-rule:nonzero;fill:rgb(100%,100%,100%);fill-opacity:1;" d="M 1401.867188 108.539062 L 1402.164062 108.246094 L 1405.195312 111.285156 L 1405.195312 121.980469 L 1404.777344 121.980469 L 1404.777344 111.457031 L 1401.867188 108.539062 "/>
<path style=" stroke:none;fill-rule:nonzero;fill:rgb(100%,100%,100%);fill-opacity:1;" d="M 1374.398438 80.1875 L 1374.398438 79.769531 L 1376.449219 79.769531 L 1389.421875 92.777344 L 1392.378906 92.777344 L 1395.917969 89.226562 L 1406.589844 89.226562 L 1410.195312 92.84375 L 1420.015625 92.84375 L 1427.105469 85.734375 L 1427.105469 63.132812 L 1432.222656 58 L 1432.222656 41.644531 L 1438.371094 35.480469 L 1460.5 35.480469 L 1471.042969 24.90625 L 1471.042969 -12.117188 L 1471.460938 -12.117188 L 1471.460938 25.082031 L 1460.671875 35.898438 L 1438.542969 35.898438 L 1432.636719 41.820312 L 1432.636719 58.175781 L 1427.523438 63.304688 L 1427.523438 85.90625 L 1420.1875 93.261719 L 1410.023438 93.261719 L 1406.417969 89.644531 L 1396.089844 89.644531 L 1392.550781 93.195312 L 1389.25 93.195312 L 1376.277344 80.1875 L 1374.398438 80.1875 "/>
<path style=" stroke:none;fill-rule:nonzero;fill:rgb(100%,100%,100%);fill-opacity:1;" d="M 1425.777344 74.808594 C 1425.777344 73.90625 1426.507812 73.171875 1427.410156 73.171875 C 1428.3125 73.171875 1429.042969 73.90625 1429.042969 74.808594 C 1429.042969 75.714844 1428.3125 76.449219 1427.410156 76.449219 C 1426.507812 76.449219 1425.777344 75.714844 1425.777344 74.808594 "/>
<path style=" stroke:none;fill-rule:nonzero;fill:rgb(100%,100%,100%);fill-opacity:1;" d="M 1389.125 104.492188 L 1389.125 94.492188 L 1393.105469 94.492188 L 1396.894531 90.695312 L 1405.75 90.695312 L 1409.292969 94.25 L 1420.324219 94.25 L 1420.324219 94.667969 L 1409.121094 94.667969 L 1405.578125 91.113281 L 1397.066406 91.113281 L 1393.277344 94.910156 L 1389.542969 94.910156 L 1389.542969 104.492188 L 1389.125 104.492188 "/>
<path style=" stroke:none;fill-rule:nonzero;fill:rgb(100%,100%,100%);fill-opacity:1;" d="M 1370.71875 80.421875 C 1370.71875 79.65625 1371.339844 79.03125 1372.105469 79.03125 C 1372.871094 79.03125 1373.492188 79.65625 1373.492188 80.421875 C 1373.492188 81.191406 1372.871094 81.8125 1372.105469 81.8125 C 1371.339844 81.8125 1370.71875 81.191406 1370.71875 80.421875 "/>
<path style=" stroke:none;fill-rule:nonzero;fill:rgb(100%,100%,100%);fill-opacity:1;" d="M 1374.1875 80.421875 C 1374.1875 79.269531 1373.253906 78.332031 1372.105469 78.332031 C 1370.953125 78.332031 1370.019531 79.269531 1370.019531 80.421875 C 1370.019531 81.574219 1370.953125 82.511719 1372.105469 82.511719 C 1373.253906 82.511719 1374.1875 81.574219 1374.1875 80.421875 Z M 1369.601562 80.421875 C 1369.601562 79.039062 1370.726562 77.914062 1372.105469 77.914062 C 1373.484375 77.914062 1374.605469 79.039062 1374.605469 80.421875 C 1374.605469 81.804688 1373.484375 82.929688 1372.105469 82.929688 C 1370.726562 82.929688 1369.601562 81.804688 1369.601562 80.421875 "/>
<path style=" stroke:none;fill-rule:nonzero;fill:rgb(100%,100%,100%);fill-opacity:1;" d="M 1387.949219 105.46875 C 1387.949219 104.699219 1388.570312 104.078125 1389.335938 104.078125 C 1390.101562 104.078125 1390.722656 104.699219 1390.722656 105.46875 C 1390.722656 106.234375 1390.101562 106.855469 1389.335938 106.855469 C 1388.570312 106.855469 1387.949219 106.234375 1387.949219 105.46875 "/>
<path style=" stroke:none;fill-rule:nonzero;fill:rgb(100%,100%,100%);fill-opacity:1;" d="M 1459.058594 29.386719 L 1462.0625 26.371094 L 1466.386719 26.371094 L 1469.167969 23.582031 L 1469.167969 -12.117188 L 1469.585938 -12.117188 L 1469.585938 23.757812 L 1466.558594 26.789062 L 1462.238281 26.789062 L 1459.351562 29.683594 L 1459.058594 29.386719 "/>
<path style=" stroke:none;fill-rule:nonzero;fill:rgb(100%,100%,100%);fill-opacity:1;" d="M 1459.441406 30.503906 C 1459.441406 29.832031 1458.894531 29.285156 1458.222656 29.285156 C 1457.554688 29.285156 1457.007812 29.832031 1457.007812 30.503906 C 1457.007812 31.175781 1457.554688 31.722656 1458.222656 31.722656 C 1458.894531 31.722656 1459.441406 31.175781 1459.441406 30.503906 Z M 1456.175781 30.503906 C 1456.175781 29.371094 1457.09375 28.449219 1458.222656 28.449219 C 1459.355469 28.449219 1460.273438 29.371094 1460.273438 30.503906 C 1460.273438 31.636719 1459.355469 32.558594 1458.222656 32.558594 C 1457.09375 32.558594 1456.175781 31.636719 1456.175781 30.503906 "/>
<path style=" stroke:none;fill-rule:nonzero;fill:rgb(100%,100%,100%);fill-opacity:1;" d="M 1436.074219 32.226562 L 1436.074219 31.808594 L 1437.777344 31.808594 L 1439.777344 33.8125 L 1450.484375 33.8125 L 1459.769531 24.496094 L 1465.058594 24.496094 L 1467.308594 22.242188 L 1467.308594 -12.117188 L 1467.726562 -12.117188 L 1467.726562 22.414062 L 1465.234375 24.914062 L 1459.945312 24.914062 L 1450.65625 34.230469 L 1439.605469 34.230469 L 1437.605469 32.226562 L 1436.074219 32.226562 "/>
<path style=" stroke:none;fill-rule:nonzero;fill:rgb(100%,100%,100%);fill-opacity:1;" d="M 1432.394531 32.140625 C 1432.394531 31.375 1433.015625 30.753906 1433.78125 30.753906 C 1434.546875 30.753906 1435.167969 31.375 1435.167969 32.140625 C 1435.167969 32.910156 1434.546875 33.53125 1433.78125 33.53125 C 1433.015625 33.53125 1432.394531 32.910156 1432.394531 32.140625 "/>
<path style=" stroke:none;fill-rule:nonzero;fill:rgb(100%,100%,100%);fill-opacity:1;" d="M 1435.867188 32.140625 C 1435.867188 30.988281 1434.929688 30.050781 1433.78125 30.050781 C 1432.632812 30.050781 1431.695312 30.988281 1431.695312 32.140625 C 1431.695312 33.292969 1432.632812 34.230469 1433.78125 34.230469 C 1434.929688 34.230469 1435.867188 33.292969 1435.867188 32.140625 Z M 1431.28125 32.140625 C 1431.28125 30.757812 1432.402344 29.632812 1433.78125 29.632812 C 1435.160156 29.632812 1436.28125 30.757812 1436.28125 32.140625 C 1436.28125 33.523438 1435.160156 34.648438 1433.78125 34.648438 C 1432.402344 34.648438 1431.28125 33.523438 1431.28125 32.140625 "/>
<path style=" stroke:none;fill-rule:nonzero;fill:rgb(100%,100%,100%);fill-opacity:1;" d="M 1445.132812 4.96875 C 1445.132812 4.203125 1445.753906 3.578125 1446.515625 3.578125 C 1447.28125 3.578125 1447.902344 4.203125 1447.902344 4.96875 C 1447.902344 5.738281 1447.28125 6.359375 1446.515625 6.359375 C 1445.753906 6.359375 1445.132812 5.738281 1445.132812 4.96875 "/>
<path style=" stroke:none;fill-rule:nonzero;fill:rgb(100%,100%,100%);fill-opacity:1;" d="M 1448.601562 4.96875 C 1448.601562 3.816406 1447.667969 2.878906 1446.515625 2.878906 C 1445.367188 2.878906 1444.433594 3.816406 1444.433594 4.96875 C 1444.433594 6.121094 1445.367188 7.058594 1446.515625 7.058594 C 1447.667969 7.058594 1448.601562 6.121094 1448.601562 4.96875 Z M 1444.015625 4.96875 C 1444.015625 3.585938 1445.136719 2.460938 1446.515625 2.460938 C 1447.898438 2.460938 1449.019531 3.585938 1449.019531 4.96875 C 1449.019531 6.351562 1447.898438 7.476562 1446.515625 7.476562 C 1445.136719 7.476562 1444.015625 6.351562 1444.015625 4.96875 "/>
<path style=" stroke:none;fill-rule:nonzero;fill:rgb(100%,100%,100%);fill-opacity:1;" d="M 1394.375 86.933594 L 1394.375 86.515625 L 1407.191406 86.515625 L 1411.238281 90.574219 L 1419.351562 90.574219 L 1425.570312 84.339844 L 1425.570312 78.125 L 1425.984375 78.125 L 1425.984375 84.511719 L 1419.523438 90.992188 L 1411.066406 90.992188 L 1407.019531 86.933594 L 1394.375 86.933594 "/>
<path style=" stroke:none;fill-rule:nonzero;fill:rgb(100%,100%,100%);fill-opacity:1;" d="M 1456.132812 19.183594 L 1456.425781 18.886719 L 1460.359375 22.832031 L 1463.941406 22.832031 L 1465.277344 21.492188 L 1465.277344 -12.117188 L 1465.695312 -12.117188 L 1465.695312 21.667969 L 1464.113281 23.25 L 1460.1875 23.25 L 1456.132812 19.183594 "/>
<path style=" stroke:none;fill-rule:nonzero;fill:rgb(100%,100%,100%);fill-opacity:1;" d="M 1453.820312 18.234375 C 1453.820312 17.46875 1454.441406 16.847656 1455.207031 16.847656 C 1455.972656 16.847656 1456.59375 17.46875 1456.59375 18.234375 C 1456.59375 19.003906 1455.972656 19.625 1455.207031 19.625 C 1454.441406 19.625 1453.820312 19.003906 1453.820312 18.234375 "/>
<path style=" stroke:none;fill-rule:nonzero;fill:rgb(100%,100%,100%);fill-opacity:1;" d="M 1458.695312 8.421875 C 1459.238281 7.878906 1460.113281 7.878906 1460.65625 8.421875 C 1461.195312 8.964844 1461.195312 9.84375 1460.65625 10.386719 C 1460.113281 10.929688 1459.238281 10.929688 1458.695312 10.386719 C 1458.152344 9.84375 1458.152344 8.964844 1458.695312 8.421875 "/>
<path style=" stroke:none;fill-rule:nonzero;fill:rgb(100%,100%,100%);fill-opacity:1;" d="M 1428.40625 8.421875 C 1428.949219 7.878906 1429.824219 7.878906 1430.367188 8.421875 C 1430.90625 8.964844 1430.90625 9.84375 1430.367188 10.386719 C 1429.824219 10.929688 1428.949219 10.929688 1428.40625 10.386719 C 1427.867188 9.84375 1427.867188 8.964844 1428.40625 8.421875 "/>
<path style=" stroke:none;fill-rule:nonzero;fill:rgb(100%,100%,100%);fill-opacity:1;" d="M 1460.394531 8.460938 L 1463.472656 5.375 L 1463.472656 -12.117188 L 1463.886719 -12.117188 L 1463.886719 5.546875 L 1460.6875 8.757812 L 1460.394531 8.460938 "/>
<path style=" stroke:none;fill-rule:nonzero;fill:rgb(100%,100%,100%);fill-opacity:1;" d="M 1403.601562 124.269531 C 1403.601562 123.5 1404.21875 122.878906 1404.984375 122.878906 C 1405.75 122.878906 1406.371094 123.5 1406.371094 124.269531 C 1406.371094 125.035156 1405.75 125.65625 1404.984375 125.65625 C 1404.21875 125.65625 1403.601562 125.035156 1403.601562 124.269531 "/>
<path style=" stroke:none;fill-rule:nonzero;fill:rgb(100%,100%,100%);fill-opacity:1;" d="M 1407.070312 124.269531 C 1407.070312 123.113281 1406.136719 122.175781 1404.984375 122.175781 C 1403.835938 122.175781 1402.902344 123.113281 1402.902344 124.269531 C 1402.902344 125.421875 1403.835938 126.359375 1404.984375 126.359375 C 1406.136719 126.359375 1407.070312 125.421875 1407.070312 124.269531 Z M 1402.484375 124.269531 C 1402.484375 122.886719 1403.605469 121.757812 1404.984375 121.757812 C 1406.363281 121.757812 1407.488281 122.886719 1407.488281 124.269531 C 1407.488281 125.652344 1406.363281 126.777344 1404.984375 126.777344 C 1403.605469 126.777344 1402.484375 125.652344 1402.484375 124.269531 "/>
<path style=" stroke:none;fill-rule:nonzero;fill:rgb(100%,100%,100%);fill-opacity:1;" d="M 1424.964844 56.304688 L 1429.179688 52.082031 L 1429.179688 -12.117188 L 1429.59375 -12.117188 L 1429.59375 52.253906 L 1425.261719 56.597656 L 1424.964844 56.304688 "/>
<path style=" stroke:none;fill-rule:nonzero;fill:rgb(100%,100%,100%);fill-opacity:1;" d="M 1425.015625 57.738281 C 1425.015625 57.066406 1424.472656 56.519531 1423.800781 56.519531 C 1423.132812 56.519531 1422.585938 57.066406 1422.585938 57.738281 C 1422.585938 58.410156 1423.132812 58.957031 1423.800781 58.957031 C 1424.472656 58.957031 1425.015625 58.410156 1425.015625 57.738281 Z M 1421.753906 57.738281 C 1421.753906 56.605469 1422.671875 55.683594 1423.800781 55.683594 C 1424.933594 55.683594 1425.851562 56.605469 1425.851562 57.738281 C 1425.851562 58.871094 1424.933594 59.792969 1423.800781 59.792969 C 1422.671875 59.792969 1421.753906 58.871094 1421.753906 57.738281 "/>
<path style=" stroke:none;fill-rule:nonzero;fill:rgb(100%,100%,100%);fill-opacity:1;" d="M 1479.289062 25.59375 L 1479.289062 -12.117188 L 1479.707031 -12.117188 L 1479.707031 25.59375 L 1479.289062 25.59375 "/>
<path style=" stroke:none;fill-rule:nonzero;fill:rgb(100%,100%,100%);fill-opacity:1;" d="M 1439.832031 90 L 1439.832031 67.535156 L 1442.632812 64.726562 L 1442.632812 48.605469 L 1445.390625 45.839844 L 1465.816406 45.839844 L 1482.160156 29.449219 L 1482.160156 -12.117188 L 1482.578125 -12.117188 L 1482.578125 29.621094 L 1465.988281 46.257812 L 1445.5625 46.257812 L 1443.050781 48.777344 L 1443.050781 64.898438 L 1440.25 67.707031 L 1440.25 90 L 1439.832031 90 "/>
<path style=" stroke:none;fill-rule:nonzero;fill:rgb(100%,100%,100%);fill-opacity:1;" d="M 1452.1875 46.023438 C 1452.1875 45.117188 1452.917969 44.382812 1453.820312 44.382812 C 1454.722656 44.382812 1455.453125 45.117188 1455.453125 46.023438 C 1455.453125 46.925781 1454.722656 47.660156 1453.820312 47.660156 C 1452.917969 47.660156 1452.1875 46.925781 1452.1875 46.023438 "/>
<path style=" stroke:none;fill-rule:nonzero;fill:rgb(100%,100%,100%);fill-opacity:1;" d="M 1430.953125 5.546875 L 1430.953125 -12.121094 L 1431.371094 -12.121094 L 1431.371094 5.375 L 1434.976562 8.992188 L 1437.96875 8.992188 L 1442.246094 4.703125 L 1444.222656 4.703125 L 1444.222656 5.121094 L 1442.417969 5.121094 L 1438.140625 9.410156 L 1434.804688 9.410156 L 1430.953125 5.546875 "/>
<path style=" stroke:none;fill-rule:nonzero;fill:rgb(100%,100%,100%);fill-opacity:1;" d="M 1444.921875 64.636719 L 1444.921875 49.503906 L 1446.699219 47.71875 L 1451.796875 47.71875 L 1451.796875 48.136719 L 1446.871094 48.136719 L 1445.339844 49.675781 L 1445.339844 64.636719 L 1444.921875 64.636719 "/>
<path style=" stroke:none;fill-rule:nonzero;fill:rgb(100%,100%,100%);fill-opacity:1;" d="M 1443.746094 66.84375 C 1443.746094 66.078125 1444.367188 65.453125 1445.132812 65.453125 C 1445.898438 65.453125 1446.515625 66.078125 1446.515625 66.84375 C 1446.515625 67.613281 1445.898438 68.234375 1445.132812 68.234375 C 1444.367188 68.234375 1443.746094 67.613281 1443.746094 66.84375 "/>
<path style=" stroke:none;fill-rule:nonzero;fill:rgb(100%,100%,100%);fill-opacity:1;" d="M 1447.214844 66.84375 C 1447.214844 65.691406 1446.28125 64.753906 1445.132812 64.753906 C 1443.980469 64.753906 1443.046875 65.691406 1443.046875 66.84375 C 1443.046875 67.996094 1443.980469 68.933594 1445.132812 68.933594 C 1446.28125 68.933594 1447.214844 67.996094 1447.214844 66.84375 Z M 1442.628906 66.84375 C 1442.628906 65.460938 1443.753906 64.335938 1445.132812 64.335938 C 1446.511719 64.335938 1447.632812 65.460938 1447.632812 66.84375 C 1447.632812 68.226562 1446.511719 69.351562 1445.132812 69.351562 C 1443.753906 69.351562 1442.628906 68.226562 1442.628906 66.84375 "/>
<path style=" stroke:none;fill-rule:nonzero;fill:rgb(100%,100%,100%);fill-opacity:1;" d="M 1424.769531 37.449219 L 1424.769531 34.171875 L 1425.1875 34.171875 L 1425.1875 37.277344 L 1426.8125 38.90625 L 1426.8125 46.808594 L 1426.398438 46.808594 L 1426.398438 39.082031 L 1424.769531 37.449219 "/>
<path style=" stroke:none;fill-rule:nonzero;fill:rgb(100%,100%,100%);fill-opacity:1;" d="M 1425.671875 49.441406 C 1425.035156 48.800781 1425.035156 47.765625 1425.671875 47.125 C 1426.308594 46.484375 1427.34375 46.484375 1427.980469 47.125 C 1428.617188 47.765625 1428.617188 48.800781 1427.980469 49.441406 C 1427.34375 50.082031 1426.308594 50.082031 1425.671875 49.441406 "/>
<path style=" stroke:none;fill-rule:nonzero;fill:rgb(100%,100%,100%);fill-opacity:1;" d="M 1423.574219 33.808594 C 1422.9375 33.167969 1422.9375 32.128906 1423.574219 31.492188 C 1424.210938 30.851562 1425.246094 30.851562 1425.886719 31.492188 C 1426.523438 32.128906 1426.523438 33.167969 1425.886719 33.808594 C 1425.246094 34.445312 1424.210938 34.445312 1423.574219 33.808594 "/>
<path style=" stroke:none;fill-rule:nonzero;fill:rgb(100%,100%,100%);fill-opacity:1;" d="M 1377.902344 27.824219 L 1377.902344 22.425781 L 1382.507812 17.808594 L 1382.507812 7.742188 L 1382.925781 7.742188 L 1382.925781 17.980469 L 1378.320312 22.597656 L 1378.320312 27.648438 L 1383.132812 32.476562 L 1398.832031 32.476562 L 1416.738281 50.433594 L 1416.738281 90.824219 L 1416.324219 90.824219 L 1416.324219 50.609375 L 1398.660156 32.894531 L 1382.960938 32.894531 L 1377.902344 27.824219 "/>
<path style=" stroke:none;fill-rule:nonzero;fill:rgb(100%,100%,100%);fill-opacity:1;" d="M 1414.898438 56.375 C 1414.898438 57.277344 1415.632812 58.011719 1416.53125 58.011719 C 1417.433594 58.011719 1418.164062 57.277344 1418.164062 56.375 C 1418.164062 55.46875 1417.433594 54.738281 1416.53125 54.738281 C 1415.632812 54.738281 1414.898438 55.46875 1414.898438 56.375 "/>
<path style=" stroke:none;fill-rule:nonzero;fill:rgb(100%,100%,100%);fill-opacity:1;" d="M 1370.996094 18.738281 C 1370.996094 19.640625 1371.726562 20.375 1372.628906 20.375 C 1373.53125 20.375 1374.261719 19.640625 1374.261719 18.738281 C 1374.261719 17.832031 1373.53125 17.097656 1372.628906 17.097656 C 1371.726562 17.097656 1370.996094 17.832031 1370.996094 18.738281 "/>
<path style=" stroke:none;fill-rule:nonzero;fill:rgb(100%,100%,100%);fill-opacity:1;" d="M 1383.941406 6.105469 C 1383.941406 5.429688 1383.394531 4.882812 1382.722656 4.882812 C 1382.054688 4.882812 1381.507812 5.429688 1381.507812 6.105469 C 1381.507812 6.777344 1382.054688 7.324219 1382.722656 7.324219 C 1383.394531 7.324219 1383.941406 6.777344 1383.941406 6.105469 Z M 1380.675781 6.105469 C 1380.675781 4.972656 1381.59375 4.046875 1382.722656 4.046875 C 1383.855469 4.046875 1384.773438 4.972656 1384.773438 6.105469 C 1384.773438 7.238281 1383.855469 8.160156 1382.722656 8.160156 C 1381.59375 8.160156 1380.675781 7.238281 1380.675781 6.105469 "/>
<path style=" stroke:none;fill-rule:nonzero;fill:rgb(100%,100%,100%);fill-opacity:1;" d="M 1381.066406 26.875 L 1381.066406 23.820312 L 1385.390625 19.484375 L 1388.460938 19.484375 L 1388.460938 19.902344 L 1385.5625 19.902344 L 1381.484375 23.992188 L 1381.484375 26.703125 L 1384.441406 29.671875 L 1399.753906 29.671875 L 1419.242188 49.214844 L 1419.242188 64.984375 L 1418.824219 64.984375 L 1418.824219 49.390625 L 1399.578125 30.089844 L 1384.269531 30.089844 L 1381.066406 26.875 "/>
<path style=" stroke:none;fill-rule:nonzero;fill:rgb(100%,100%,100%);fill-opacity:1;" d="M 1418.824219 90.824219 L 1418.824219 68.253906 L 1419.242188 68.253906 L 1419.242188 90.824219 L 1418.824219 90.824219 "/>
<path style=" stroke:none;fill-rule:nonzero;fill:rgb(100%,100%,100%);fill-opacity:1;" d="M 1389.160156 19.691406 C 1389.160156 20.460938 1389.78125 21.082031 1390.546875 21.082031 C 1391.3125 21.082031 1391.933594 20.460938 1391.933594 19.691406 C 1391.933594 18.925781 1391.3125 18.300781 1390.546875 18.300781 C 1389.78125 18.300781 1389.160156 18.925781 1389.160156 19.691406 "/>
<path style=" stroke:none;fill-rule:nonzero;fill:rgb(100%,100%,100%);fill-opacity:1;" d="M 1392.632812 19.691406 C 1392.632812 18.539062 1391.695312 17.601562 1390.546875 17.601562 C 1389.398438 17.601562 1388.460938 18.539062 1388.460938 19.691406 C 1388.460938 20.84375 1389.398438 21.78125 1390.546875 21.78125 C 1391.695312 21.78125 1392.632812 20.84375 1392.632812 19.691406 Z M 1388.046875 19.691406 C 1388.046875 18.308594 1389.167969 17.183594 1390.546875 17.183594 C 1391.925781 17.183594 1393.046875 18.308594 1393.046875 19.691406 C 1393.046875 21.074219 1391.925781 22.199219 1390.546875 22.199219 C 1389.167969 22.199219 1388.046875 21.074219 1388.046875 19.691406 "/>
<path style=" stroke:none;fill-rule:nonzero;fill:rgb(100%,100%,100%);fill-opacity:1;" d="M 1373.574219 20.023438 L 1373.867188 19.730469 L 1376.039062 21.90625 L 1376.039062 29.242188 L 1381.75 34.96875 L 1398.121094 34.96875 L 1414.515625 51.410156 L 1414.515625 90.824219 L 1414.101562 90.824219 L 1414.101562 51.585938 L 1397.949219 35.386719 L 1381.574219 35.386719 L 1375.621094 29.414062 L 1375.621094 22.078125 L 1373.574219 20.023438 "/>
<path style=" stroke:none;fill-rule:nonzero;fill:rgb(100%,100%,100%);fill-opacity:1;" d="M 1372.679688 30.257812 L 1372.972656 29.960938 L 1380.761719 37.773438 L 1388.253906 37.773438 L 1388.253906 38.191406 L 1380.589844 38.191406 L 1372.679688 30.257812 "/>
<path style=" stroke:none;fill-rule:nonzero;fill:rgb(100%,100%,100%);fill-opacity:1;" d="M 1391.519531 38.191406 L 1391.519531 37.773438 L 1396.992188 37.773438 L 1412.121094 52.941406 L 1412.121094 90.824219 L 1411.703125 90.824219 L 1411.703125 53.117188 L 1396.820312 38.191406 L 1391.519531 38.191406 "/>
<path style=" stroke:none;fill-rule:nonzero;fill:rgb(100%,100%,100%);fill-opacity:1;" d="M 1391.101562 37.9375 C 1391.101562 37.269531 1390.554688 36.722656 1389.886719 36.722656 C 1389.214844 36.722656 1388.671875 37.269531 1388.671875 37.9375 C 1388.671875 38.613281 1389.214844 39.160156 1389.886719 39.160156 C 1390.554688 39.160156 1391.101562 38.613281 1391.101562 37.9375 Z M 1387.835938 37.9375 C 1387.835938 36.804688 1388.757812 35.882812 1389.886719 35.882812 C 1391.015625 35.882812 1391.9375 36.804688 1391.9375 37.9375 C 1391.9375 39.074219 1391.015625 39.996094 1389.886719 39.996094 C 1388.757812 39.996094 1387.835938 39.074219 1387.835938 37.9375 "/>
<path style=" stroke:none;fill-rule:nonzero;fill:rgb(100%,100%,100%);fill-opacity:1;" d="M 1420.25 66.625 C 1420.25 65.953125 1419.703125 65.402344 1419.03125 65.402344 C 1418.363281 65.402344 1417.816406 65.953125 1417.816406 66.625 C 1417.816406 67.296875 1418.363281 67.84375 1419.03125 67.84375 C 1419.703125 67.84375 1420.25 67.296875 1420.25 66.625 Z M 1416.984375 66.625 C 1416.984375 65.492188 1417.902344 64.566406 1419.03125 64.566406 C 1420.164062 64.566406 1421.082031 65.492188 1421.082031 66.625 C 1421.082031 67.757812 1420.164062 68.679688 1419.03125 68.679688 C 1417.902344 68.679688 1416.984375 67.757812 1416.984375 66.625 "/>
<path style=" stroke:none;fill-rule:nonzero;fill:rgb(100%,100%,100%);fill-opacity:1;" d="M 1404.660156 67.855469 C 1404.660156 68.625 1405.28125 69.246094 1406.046875 69.246094 C 1406.808594 69.246094 1407.429688 68.625 1407.429688 67.855469 C 1407.429688 67.089844 1406.808594 66.46875 1406.046875 66.46875 C 1405.28125 66.46875 1404.660156 67.089844 1404.660156 67.855469 "/>
<path style=" stroke:none;fill-rule:nonzero;fill:rgb(100%,100%,100%);fill-opacity:1;" d="M 1404.660156 55.984375 C 1404.660156 56.75 1405.28125 57.371094 1406.046875 57.371094 C 1406.808594 57.371094 1407.429688 56.75 1407.429688 55.984375 C 1407.429688 55.214844 1406.808594 54.59375 1406.046875 54.59375 C 1405.28125 54.59375 1404.660156 55.214844 1404.660156 55.984375 "/>
<path style=" stroke:none;fill-rule:nonzero;fill:rgb(100%,100%,100%);fill-opacity:1;" d="M 1405.898438 67.710938 L 1409.152344 64.445312 L 1409.152344 59.015625 L 1406.085938 55.941406 L 1406.378906 55.648438 L 1409.570312 58.84375 L 1409.570312 64.617188 L 1406.191406 68.003906 L 1405.898438 67.710938 "/>
<path style=" stroke:none;fill-rule:nonzero;fill:rgb(100%,100%,100%);fill-opacity:1;" d="M 1454.246094 88.117188 L 1454.246094 47.726562 L 1454.664062 47.726562 L 1454.664062 87.941406 L 1472.328125 105.65625 L 1488.027344 105.65625 L 1493.082031 110.726562 L 1493.082031 116.125 L 1488.480469 120.742188 L 1488.480469 130.808594 L 1488.0625 130.808594 L 1488.0625 120.566406 L 1492.667969 115.953125 L 1492.667969 110.898438 L 1487.855469 106.074219 L 1472.15625 106.074219 L 1454.246094 88.117188 "/>
<path style=" stroke:none;fill-rule:nonzero;fill:rgb(100%,100%,100%);fill-opacity:1;" d="M 1456.089844 82.175781 C 1456.089844 81.273438 1455.359375 80.539062 1454.457031 80.539062 C 1453.554688 80.539062 1452.824219 81.273438 1452.824219 82.175781 C 1452.824219 83.082031 1453.554688 83.8125 1454.457031 83.8125 C 1455.359375 83.8125 1456.089844 83.082031 1456.089844 82.175781 "/>
<g clip-path="url(#clip20)" clip-rule="nonzero">
<path style=" stroke:none;fill-rule:nonzero;fill:rgb(100%,100%,100%);fill-opacity:1;" d="M 1499.992188 119.8125 C 1499.992188 118.910156 1499.261719 118.175781 1498.359375 118.175781 C 1497.457031 118.175781 1496.726562 118.910156 1496.726562 119.8125 C 1496.726562 120.71875 1497.457031 121.449219 1498.359375 121.449219 C 1499.261719 121.449219 1499.992188 120.71875 1499.992188 119.8125 "/>
</g>
<path style=" stroke:none;fill-rule:nonzero;fill:rgb(100%,100%,100%);fill-opacity:1;" d="M 1489.480469 132.445312 C 1489.480469 131.773438 1488.933594 131.226562 1488.265625 131.226562 C 1487.59375 131.226562 1487.046875 131.773438 1487.046875 132.445312 C 1487.046875 133.117188 1487.59375 133.664062 1488.265625 133.664062 C 1488.933594 133.664062 1489.480469 133.117188 1489.480469 132.445312 Z M 1486.214844 132.445312 C 1486.214844 131.3125 1487.132812 130.390625 1488.265625 130.390625 C 1489.394531 130.390625 1490.3125 131.3125 1490.3125 132.445312 C 1490.3125 133.578125 1489.394531 134.5 1488.265625 134.5 C 1487.132812 134.5 1486.214844 133.578125 1486.214844 132.445312 "/>
<path style=" stroke:none;fill-rule:nonzero;fill:rgb(100%,100%,100%);fill-opacity:1;" d="M 1451.746094 89.335938 L 1451.746094 73.5625 L 1452.164062 73.5625 L 1452.164062 89.164062 L 1471.40625 108.460938 L 1486.714844 108.460938 L 1489.921875 111.675781 L 1489.921875 114.730469 L 1485.597656 119.066406 L 1482.523438 119.066406 L 1482.523438 118.648438 L 1485.425781 118.648438 L 1489.507812 114.558594 L 1489.507812 111.847656 L 1486.542969 108.878906 L 1471.234375 108.878906 L 1451.746094 89.335938 "/>
<path style=" stroke:none;fill-rule:nonzero;fill:rgb(100%,100%,100%);fill-opacity:1;" d="M 1451.746094 70.292969 L 1451.746094 47.726562 L 1452.164062 47.726562 L 1452.164062 70.292969 L 1451.746094 70.292969 "/>
<path style=" stroke:none;fill-rule:nonzero;fill:rgb(100%,100%,100%);fill-opacity:1;" d="M 1481.828125 118.859375 C 1481.828125 118.089844 1481.207031 117.46875 1480.441406 117.46875 C 1479.675781 117.46875 1479.054688 118.089844 1479.054688 118.859375 C 1479.054688 119.625 1479.675781 120.246094 1480.441406 120.246094 C 1481.207031 120.246094 1481.828125 119.625 1481.828125 118.859375 "/>
<path style=" stroke:none;fill-rule:nonzero;fill:rgb(100%,100%,100%);fill-opacity:1;" d="M 1482.523438 118.859375 C 1482.523438 117.707031 1481.589844 116.769531 1480.441406 116.769531 C 1479.292969 116.769531 1478.355469 117.707031 1478.355469 118.859375 C 1478.355469 120.011719 1479.292969 120.949219 1480.441406 120.949219 C 1481.589844 120.949219 1482.523438 120.011719 1482.523438 118.859375 Z M 1477.941406 118.859375 C 1477.941406 117.476562 1479.0625 116.351562 1480.441406 116.351562 C 1481.820312 116.351562 1482.941406 117.476562 1482.941406 118.859375 C 1482.941406 120.242188 1481.820312 121.367188 1480.441406 121.367188 C 1479.0625 121.367188 1477.941406 120.242188 1477.941406 118.859375 "/>
<path style=" stroke:none;fill-rule:nonzero;fill:rgb(100%,100%,100%);fill-opacity:1;" d="M 1456.46875 87.140625 L 1456.46875 47.726562 L 1456.886719 47.726562 L 1456.886719 86.96875 L 1473.042969 103.164062 L 1489.414062 103.164062 L 1495.367188 109.136719 L 1495.367188 116.472656 L 1497.414062 118.527344 L 1497.121094 118.820312 L 1494.949219 116.644531 L 1494.949219 109.308594 L 1489.242188 103.582031 L 1472.867188 103.582031 L 1456.46875 87.140625 "/>
<path style=" stroke:none;fill-rule:nonzero;fill:rgb(100%,100%,100%);fill-opacity:1;" d="M 1482.734375 100.777344 L 1482.734375 100.359375 L 1490.398438 100.359375 L 1498.308594 108.292969 L 1498.015625 108.589844 L 1490.226562 100.777344 L 1482.734375 100.777344 "/>
<path style=" stroke:none;fill-rule:nonzero;fill:rgb(100%,100%,100%);fill-opacity:1;" d="M 1458.867188 85.605469 L 1458.867188 47.726562 L 1459.285156 47.726562 L 1459.285156 85.433594 L 1474.167969 100.359375 L 1479.46875 100.359375 L 1479.46875 100.777344 L 1473.996094 100.777344 L 1458.867188 85.605469 "/>
<path style=" stroke:none;fill-rule:nonzero;fill:rgb(100%,100%,100%);fill-opacity:1;" d="M 1482.316406 100.609375 C 1482.316406 99.9375 1481.773438 99.390625 1481.101562 99.390625 C 1480.429688 99.390625 1479.886719 99.9375 1479.886719 100.609375 C 1479.886719 101.285156 1480.429688 101.832031 1481.101562 101.832031 C 1481.773438 101.832031 1482.316406 101.285156 1482.316406 100.609375 Z M 1479.050781 100.609375 C 1479.050781 99.476562 1479.972656 98.554688 1481.101562 98.554688 C 1482.230469 98.554688 1483.152344 99.476562 1483.152344 100.609375 C 1483.152344 101.746094 1482.230469 102.667969 1481.101562 102.667969 C 1479.972656 102.667969 1479.050781 101.746094 1479.050781 100.609375 "/>
<path style=" stroke:none;fill-rule:nonzero;fill:rgb(100%,100%,100%);fill-opacity:1;" d="M 1453.171875 71.925781 C 1453.171875 71.253906 1452.625 70.707031 1451.953125 70.707031 C 1451.285156 70.707031 1450.738281 71.253906 1450.738281 71.925781 C 1450.738281 72.597656 1451.285156 73.144531 1451.953125 73.144531 C 1452.625 73.144531 1453.171875 72.597656 1453.171875 71.925781 Z M 1449.90625 71.925781 C 1449.90625 70.792969 1450.824219 69.871094 1451.953125 69.871094 C 1453.085938 69.871094 1454.003906 70.792969 1454.003906 71.925781 C 1454.003906 73.058594 1453.085938 73.980469 1451.953125 73.980469 C 1450.824219 73.980469 1449.90625 73.058594 1449.90625 71.925781 "/>
<path style=" stroke:none;fill-rule:nonzero;fill:rgb(100%,100%,100%);fill-opacity:1;" d="M 1466.328125 70.691406 C 1466.328125 69.925781 1465.707031 69.304688 1464.941406 69.304688 C 1464.175781 69.304688 1463.558594 69.925781 1463.558594 70.691406 C 1463.558594 71.460938 1464.175781 72.082031 1464.941406 72.082031 C 1465.707031 72.082031 1466.328125 71.460938 1466.328125 70.691406 "/>
<path style=" stroke:none;fill-rule:nonzero;fill:rgb(100%,100%,100%);fill-opacity:1;" d="M 1466.328125 82.566406 C 1466.328125 81.800781 1465.707031 81.179688 1464.941406 81.179688 C 1464.175781 81.179688 1463.558594 81.800781 1463.558594 82.566406 C 1463.558594 83.335938 1464.175781 83.957031 1464.941406 83.957031 C 1465.707031 83.957031 1466.328125 83.335938 1466.328125 82.566406 "/>
<path style=" stroke:none;fill-rule:nonzero;fill:rgb(100%,100%,100%);fill-opacity:1;" d="M 1461.417969 79.707031 L 1461.417969 73.933594 L 1464.792969 70.546875 L 1465.089844 70.84375 L 1461.835938 74.105469 L 1461.835938 79.53125 L 1464.902344 82.609375 L 1464.609375 82.90625 L 1461.417969 79.707031 "/>
</g>
</svg>
