<?xml version="1.0" encoding="UTF-8"?>
<svg xmlns="http://www.w3.org/2000/svg" xmlns:xlink="http://www.w3.org/1999/xlink" width="1560pt" height="599.999999pt" viewBox="0 0 1560 599.999999" version="1.2">
<defs>
<clipPath id="clip1">
  <path d="M 36.125 31.871094 L 116 31.871094 L 116 334.871094 L 36.125 334.871094 Z M 36.125 31.871094 "/>
</clipPath>
<clipPath id="clip2">
  <path d="M 471.34375 175.289062 L 479.40625 175.289062 L 479.40625 184 L 471.34375 184 Z M 471.34375 175.289062 "/>
</clipPath>
<clipPath id="clip3">
  <path d="M 1004.144531 149 L 1163.273438 149 L 1163.273438 455.09375 L 1004.144531 455.09375 Z M 1004.144531 149 "/>
</clipPath>
<clipPath id="clip4">
  <path d="M 1012 160.390625 L 1183 160.390625 L 1183 455.09375 L 1012 455.09375 Z M 1012 160.390625 "/>
</clipPath>
<clipPath id="clip5">
  <path d="M 1008.375 137 L 1173.429688 137 L 1173.429688 455.09375 L 1008.375 455.09375 Z M 1008.375 137 "/>
</clipPath>
<clipPath id="clip6">
  <path d="M 1016 241.621094 L 1213.210938 241.621094 L 1213.210938 455.09375 L 1016 455.09375 Z M 1016 241.621094 "/>
</clipPath>
<clipPath id="clip7">
  <path d="M 1019.378906 370.238281 L 1041.386719 370.238281 L 1041.386719 455.09375 L 1019.378906 455.09375 Z M 1019.378906 370.238281 "/>
</clipPath>
<clipPath id="clip8">
  <path d="M 1023.613281 361 L 1087.941406 361 L 1087.941406 455.09375 L 1023.613281 455.09375 Z M 1023.613281 361 "/>
</clipPath>
<clipPath id="clip9">
  <path d="M 1027 383 L 1047.3125 383 L 1047.3125 455.09375 L 1027 455.09375 Z M 1027 383 "/>
</clipPath>
<clipPath id="clip10">
  <path d="M 1031.230469 412.546875 L 1038.847656 412.546875 L 1038.847656 455.09375 L 1031.230469 455.09375 Z M 1031.230469 412.546875 "/>
</clipPath>
<clipPath id="clip11">
  <path d="M 1101 315.238281 L 1110.792969 315.238281 L 1110.792969 455.09375 L 1101 455.09375 Z M 1101 315.238281 "/>
</clipPath>
<clipPath id="clip12">
  <path d="M 999.066406 378.699219 L 1000.757812 378.699219 L 1000.757812 455.09375 L 999.066406 455.09375 Z M 999.066406 378.699219 "/>
</clipPath>
<clipPath id="clip13">
  <path d="M 993.140625 248.390625 L 1080.320312 248.390625 L 1080.320312 455.09375 L 993.140625 455.09375 Z M 993.140625 248.390625 "/>
</clipPath>
<clipPath id="clip14">
  <path d="M 1071.011719 411 L 1098.945312 411 L 1098.945312 455.09375 L 1071.011719 455.09375 Z M 1071.011719 411 "/>
</clipPath>
<clipPath id="clip15">
  <path d="M 980.445312 192.542969 L 1060 192.542969 L 1060 455.09375 L 980.445312 455.09375 Z M 980.445312 192.542969 "/>
</clipPath>
<clipPath id="clip16">
  <path d="M 975.363281 409.164062 L 977 409.164062 L 977 455.09375 L 975.363281 455.09375 Z M 975.363281 409.164062 "/>
</clipPath>
<clipPath id="clip17">
  <path d="M 985 216.238281 L 1068.472656 216.238281 L 1068.472656 455.09375 L 985 455.09375 Z M 985 216.238281 "/>
</clipPath>
<clipPath id="clip18">
  <path d="M 990 253 L 1032 253 L 1032 455.09375 L 990 455.09375 Z M 990 253 "/>
</clipPath>
<clipPath id="clip19">
  <path d="M 971.894531 401 L 981 401 L 981 411 L 971.894531 411 Z M 971.894531 401 "/>
</clipPath>
<clipPath id="clip20">
  <path d="M 1466 215 L 1472.894531 215 L 1472.894531 222 L 1466 222 Z M 1466 215 "/>
</clipPath>
</defs>
<g id="surface1">
<path style=" stroke:none;fill-rule:nonzero;fill:rgb(100%,100%,100%);fill-opacity:1;" d="M 61.296875 249.847656 C 44.480469 207.609375 44.480469 159.164062 61.296875 116.925781 L 61.949219 117.183594 C 45.199219 159.257812 45.199219 207.515625 61.949219 249.585938 L 61.296875 249.847656 "/>
<path style=" stroke:none;fill-rule:nonzero;fill:rgb(100%,100%,100%);fill-opacity:1;" d="M 149.675781 330.535156 C 119.910156 318.875 95.375 298.167969 78.714844 270.644531 C 63.246094 245.085938 55.070312 214.914062 55.070312 183.382812 C 55.070312 151.859375 63.246094 121.683594 78.714844 96.125 C 95.375 68.601562 119.910156 47.894531 149.675781 36.238281 L 149.929688 36.890625 C 91.851562 59.636719 55.773438 115.769531 55.773438 183.382812 C 55.773438 250.996094 91.851562 307.132812 149.929688 329.878906 L 149.675781 330.535156 "/>
<path style=" stroke:none;fill-rule:nonzero;fill:rgb(100%,100%,100%);fill-opacity:1;" d="M 64.882812 217.742188 C 60.230469 195.265625 60.230469 171.503906 64.882812 149.027344 L 65.574219 149.171875 C 60.941406 171.554688 60.941406 195.21875 65.574219 217.597656 L 64.882812 217.742188 "/>
<path style=" stroke:none;fill-rule:nonzero;fill:rgb(100%,100%,100%);fill-opacity:1;" d="M 89.949219 251.429688 C 79.523438 230.929688 74.015625 207.402344 74.015625 183.386719 C 74.015625 159.367188 79.523438 135.839844 89.949219 115.339844 L 90.574219 115.660156 C 69.328125 157.433594 69.328125 209.335938 90.574219 251.109375 L 89.949219 251.429688 "/>
<path style=" stroke:none;fill-rule:nonzero;fill:rgb(100%,100%,100%);fill-opacity:1;" d="M 127.25 279.59375 C 101.441406 256.3125 86.640625 221.246094 86.640625 183.382812 C 86.640625 145.523438 101.441406 110.457031 127.25 87.179688 L 127.722656 87.699219 C 102.0625 110.847656 87.34375 145.71875 87.34375 183.382812 C 87.34375 221.046875 102.0625 255.921875 127.722656 279.070312 L 127.25 279.59375 "/>
<path style=" stroke:none;fill-rule:nonzero;fill:rgb(100%,100%,100%);fill-opacity:1;" d="M 167.503906 289.507812 C 146.039062 281.101562 128.34375 266.164062 116.328125 246.3125 C 105.171875 227.882812 99.273438 206.121094 99.273438 183.386719 C 99.273438 160.648438 105.171875 138.890625 116.328125 120.457031 C 128.339844 100.605469 146.039062 85.671875 167.503906 77.261719 L 167.761719 77.917969 C 125.949219 94.292969 99.976562 134.707031 99.976562 183.386719 C 99.976562 232.066406 125.949219 272.476562 167.761719 288.851562 L 167.503906 289.507812 "/>
<path style=" stroke:none;fill-rule:nonzero;fill:rgb(100%,100%,100%);fill-opacity:1;" d="M 125.171875 302.695312 C 106.625 289.257812 92.121094 271.460938 82.0625 249.792969 C 72.664062 229.542969 67.695312 206.582031 67.699219 183.382812 C 67.699219 160.191406 72.664062 137.226562 82.0625 116.980469 C 92.121094 95.308594 106.625 77.507812 125.171875 64.074219 L 125.585938 64.644531 C 89.777344 90.582031 68.402344 134.96875 68.402344 183.382812 C 68.398438 231.800781 89.777344 276.191406 125.585938 302.128906 L 125.171875 302.695312 "/>
<path style=" stroke:none;fill-rule:nonzero;fill:rgb(100%,100%,100%);fill-opacity:1;" d="M 143.730469 299.394531 C 123.652344 287.945312 107.207031 270.71875 96.175781 249.574219 C 85.808594 229.707031 80.328125 206.824219 80.328125 183.386719 C 80.328125 159.949219 85.808594 137.0625 96.175781 117.195312 C 107.207031 96.054688 123.652344 78.824219 143.730469 67.375 L 144.078125 67.988281 C 104.601562 90.496094 81.03125 133.640625 81.03125 183.386719 C 81.03125 233.128906 104.601562 276.273438 144.078125 298.78125 L 143.730469 299.394531 "/>
<path style=" stroke:none;fill-rule:nonzero;fill:rgb(100%,100%,100%);fill-opacity:1;" d="M 121.074219 263.949219 C 102.941406 242.347656 92.957031 213.734375 92.957031 183.386719 C 92.957031 153.035156 102.941406 124.425781 121.074219 102.824219 L 121.613281 103.273438 C 84.539062 147.449219 84.539062 219.324219 121.613281 263.496094 L 121.074219 263.949219 "/>
<path style=" stroke:none;fill-rule:nonzero;fill:rgb(100%,100%,100%);fill-opacity:1;" d="M 119.476562 238.984375 C 100.941406 205.210938 100.941406 161.5625 119.476562 127.789062 L 120.09375 128.125 C 101.675781 161.695312 101.675781 205.074219 120.09375 238.644531 L 119.476562 238.984375 "/>
<path style=" stroke:none;fill-rule:nonzero;fill:rgb(100%,100%,100%);fill-opacity:1;" d="M 148.730469 255.667969 C 129.339844 238.175781 118.21875 211.832031 118.21875 183.386719 C 118.21875 154.9375 129.339844 128.59375 148.730469 111.101562 L 149.199219 111.625 C 129.957031 128.984375 118.921875 155.140625 118.921875 183.386719 C 118.921875 211.628906 129.957031 237.789062 149.199219 255.144531 L 148.730469 255.667969 "/>
<path style=" stroke:none;fill-rule:nonzero;fill:rgb(100%,100%,100%);fill-opacity:1;" d="M 115.691406 212.460938 C 110.605469 193.441406 110.605469 173.332031 115.691406 154.308594 L 116.375 154.488281 C 111.316406 173.394531 111.316406 193.378906 116.375 212.277344 L 115.691406 212.460938 "/>
<path style=" stroke:none;fill-rule:nonzero;fill:rgb(100%,100%,100%);fill-opacity:1;" d="M 183.542969 268.113281 C 147.695312 256.957031 124.53125 223.699219 124.53125 183.386719 C 124.53125 143.074219 147.695312 109.8125 183.542969 98.652344 L 183.753906 99.328125 C 148.203125 110.390625 125.234375 143.386719 125.234375 183.386719 C 125.234375 223.382812 148.203125 256.378906 183.753906 267.445312 L 183.542969 268.113281 "/>
<path style=" stroke:none;fill-rule:nonzero;fill:rgb(100%,100%,100%);fill-opacity:1;" d="M 142.976562 214.199219 C 135.179688 194.617188 135.179688 172.152344 142.976562 152.570312 L 143.632812 152.832031 C 135.902344 172.25 135.902344 194.523438 143.632812 213.941406 L 142.976562 214.199219 "/>
<path style=" stroke:none;fill-rule:nonzero;fill:rgb(100%,100%,100%);fill-opacity:1;" d="M 170.207031 231.742188 C 157.234375 220.039062 149.792969 202.414062 149.792969 183.382812 C 149.792969 164.355469 157.234375 146.730469 170.207031 135.027344 L 170.675781 135.550781 C 157.851562 147.121094 150.496094 164.554688 150.496094 183.382812 C 150.496094 202.214844 157.851562 219.648438 170.675781 231.21875 L 170.207031 231.742188 "/>
<path style=" stroke:none;fill-rule:nonzero;fill:rgb(100%,100%,100%);fill-opacity:1;" d="M 163.941406 196.480469 C 161.914062 187.914062 161.914062 178.855469 163.941406 170.289062 L 164.625 170.453125 C 162.621094 178.914062 162.621094 187.855469 164.625 196.316406 L 163.941406 196.480469 "/>
<path style=" stroke:none;fill-rule:nonzero;fill:rgb(100%,100%,100%);fill-opacity:1;" d="M 150.136719 238.648438 C 137.695312 223.828125 130.847656 204.203125 130.847656 183.386719 C 130.847656 162.566406 137.695312 142.941406 150.136719 128.121094 L 150.675781 128.574219 C 125.308594 158.796875 125.308594 207.972656 150.675781 238.195312 L 150.136719 238.648438 "/>
<path style=" stroke:none;fill-rule:nonzero;fill:rgb(100%,100%,100%);fill-opacity:1;" d="M 157.140625 226.789062 C 148.332031 214.734375 143.476562 199.324219 143.476562 183.382812 C 143.476562 167.449219 148.332031 152.035156 157.140625 139.980469 L 157.707031 140.394531 C 139.796875 164.902344 139.796875 201.867188 157.707031 226.375 L 157.140625 226.789062 "/>
<path style=" stroke:none;fill-rule:nonzero;fill:rgb(100%,100%,100%);fill-opacity:1;" d="M 174.503906 226.957031 C 162.8125 216.410156 156.105469 200.53125 156.105469 183.382812 C 156.105469 166.238281 162.8125 150.359375 174.503906 139.8125 L 174.972656 140.335938 C 163.429688 150.746094 156.808594 166.4375 156.808594 183.382812 C 156.808594 200.332031 163.429688 216.023438 174.972656 226.433594 L 174.503906 226.957031 "/>
<path style=" stroke:none;fill-rule:nonzero;fill:rgb(100%,100%,100%);fill-opacity:1;" d="M 213.617188 228.261719 C 182.785156 228.261719 168.738281 205 168.738281 183.382812 C 168.738281 171.636719 172.722656 160.679688 179.957031 152.542969 C 188.121094 143.363281 199.757812 138.507812 213.617188 138.507812 L 213.617188 139.210938 C 199.964844 139.210938 188.507812 143.984375 180.484375 153.007812 C 173.363281 161.019531 169.441406 171.804688 169.441406 183.382812 C 169.441406 204.660156 183.265625 227.558594 213.617188 227.558594 L 213.617188 228.261719 "/>
<path style=" stroke:none;fill-rule:nonzero;fill:rgb(100%,100%,100%);fill-opacity:1;" d="M 177.984375 198.921875 C 174.054688 189.046875 174.054688 177.722656 177.984375 167.847656 L 178.640625 168.105469 C 174.773438 177.816406 174.773438 188.953125 178.640625 198.664062 L 177.984375 198.921875 "/>
<path style=" stroke:none;fill-rule:nonzero;fill:rgb(100%,100%,100%);fill-opacity:1;" d="M 187.648438 203.335938 C 179.332031 191.960938 179.332031 174.808594 187.648438 163.433594 L 188.214844 163.847656 C 180.074219 174.984375 180.074219 191.785156 188.214844 202.921875 L 187.648438 203.335938 "/>
<path style=" stroke:none;fill-rule:nonzero;fill:rgb(100%,100%,100%);fill-opacity:1;" d="M 194.449219 187.808594 C 193.847656 184.914062 193.847656 181.855469 194.449219 178.960938 L 195.136719 179.109375 C 194.558594 181.90625 194.558594 184.863281 195.136719 187.664062 L 194.449219 187.808594 "/>
<path style=" stroke:none;fill-rule:nonzero;fill:rgb(100%,100%,100%);fill-opacity:1;" d="M 201.554688 206.757812 C 192.996094 202.671875 187.683594 193.714844 187.683594 183.386719 C 187.683594 173.054688 192.996094 164.101562 201.554688 160.015625 L 201.859375 160.648438 C 193.546875 164.617188 188.386719 173.332031 188.386719 183.386719 C 188.386719 193.441406 193.546875 202.152344 201.859375 206.121094 L 201.554688 206.757812 "/>
<path style=" stroke:none;fill-rule:nonzero;fill:rgb(100%,100%,100%);fill-opacity:1;" d="M 206.277344 194.742188 C 202.542969 192.429688 200.3125 188.183594 200.3125 183.386719 C 200.3125 178.585938 202.542969 174.339844 206.277344 172.027344 L 206.644531 172.625 C 203.121094 174.808594 201.015625 178.832031 201.015625 183.386719 C 201.015625 187.9375 203.121094 191.960938 206.644531 194.144531 L 206.277344 194.742188 "/>
<path style=" stroke:none;fill-rule:nonzero;fill:rgb(100%,100%,100%);fill-opacity:1;" d="M 207.425781 186.78125 C 206.355469 184.6875 206.355469 182.082031 207.425781 179.988281 L 208.046875 180.308594 C 207.085938 182.207031 207.085938 184.566406 208.046875 186.460938 L 207.425781 186.78125 "/>
<g clip-path="url(#clip1)" clip-rule="nonzero">
<path style=" stroke:none;fill-rule:nonzero;fill:rgb(100%,100%,100%);fill-opacity:1;" d="M 115.558594 334.898438 C 90.363281 319.296875 69.761719 296.539062 55.976562 269.09375 C 42.988281 243.226562 36.125 213.589844 36.125 183.386719 C 36.125 153.179688 42.988281 123.542969 55.976562 97.675781 C 69.761719 70.230469 90.363281 47.472656 115.558594 31.871094 L 115.929688 32.464844 C 66.398438 63.144531 36.828125 119.5625 36.828125 183.386719 C 36.828125 247.207031 66.398438 303.625 115.929688 334.304688 L 115.558594 334.898438 "/>
</g>
<path style=" stroke:none;fill-rule:nonzero;fill:rgb(100%,100%,100%);fill-opacity:1;" d="M 61.980469 266.820312 C 49.195312 241.6875 42.4375 212.835938 42.4375 183.386719 C 42.4375 153.933594 49.195312 125.082031 61.980469 99.949219 L 62.609375 100.265625 C 36.53125 151.535156 36.53125 215.234375 62.609375 266.5 L 61.980469 266.820312 "/>
<path style=" stroke:none;fill-rule:nonzero;fill:rgb(100%,100%,100%);fill-opacity:1;" d="M 216.523438 104.890625 C 215.226562 104.828125 213.910156 104.792969 212.609375 104.792969 L 212.609375 104.007812 C 213.921875 104.007812 215.253906 104.039062 216.566406 104.101562 Z M 224.324219 105.664062 C 223.03125 105.46875 221.726562 105.304688 220.433594 105.179688 L 220.507812 104.394531 C 221.816406 104.523438 223.136719 104.6875 224.4375 104.882812 Z M 232.007812 107.203125 C 230.746094 106.882812 229.460938 106.59375 228.183594 106.335938 L 228.339844 105.5625 C 229.628906 105.820312 230.925781 106.117188 232.199219 106.4375 Z M 239.503906 109.511719 C 238.285156 109.070312 237.027344 108.648438 235.78125 108.261719 L 236.011719 107.511719 C 237.277344 107.898438 238.539062 108.324219 239.773438 108.773438 Z M 246.734375 112.566406 C 245.566406 112 244.363281 111.457031 243.160156 110.949219 L 243.464844 110.222656 C 244.679688 110.738281 245.898438 111.285156 247.078125 111.855469 Z M 253.625 116.324219 C 252.515625 115.644531 251.375 114.984375 250.226562 114.355469 L 250.605469 113.667969 C 251.765625 114.296875 252.921875 114.964844 254.035156 115.652344 Z M 260.097656 120.746094 C 259.0625 119.960938 257.992188 119.191406 256.917969 118.453125 L 257.363281 117.804688 C 258.445312 118.542969 259.527344 119.324219 260.574219 120.117188 Z M 266.105469 125.792969 C 265.144531 124.902344 264.15625 124.027344 263.164062 123.195312 L 263.671875 122.589844 C 264.675781 123.433594 265.671875 124.316406 266.640625 125.210938 Z M 271.574219 131.394531 C 270.707031 130.417969 269.8125 129.453125 268.90625 128.527344 L 269.472656 127.976562 C 270.382812 128.910156 271.289062 129.886719 272.164062 130.875 Z M 276.460938 137.515625 C 275.703125 136.464844 274.90625 135.417969 274.09375 134.398438 L 274.707031 133.90625 C 275.53125 134.9375 276.335938 135.992188 277.101562 137.054688 Z M 280.714844 144.089844 C 280.0625 142.960938 279.375 141.835938 278.667969 140.75 L 279.332031 140.320312 C 280.042969 141.417969 280.738281 142.554688 281.394531 143.695312 Z M 284.292969 151.046875 C 283.757812 149.867188 283.1875 148.679688 282.589844 147.523438 L 283.292969 147.160156 C 283.894531 148.332031 284.472656 149.527344 285.011719 150.722656 Z M 287.160156 158.328125 C 286.742188 157.101562 286.292969 155.859375 285.816406 154.648438 L 286.546875 154.355469 C 287.03125 155.585938 287.488281 156.835938 287.90625 158.078125 Z M 289.28125 165.867188 C 288.988281 164.597656 288.667969 163.320312 288.316406 162.070312 L 289.074219 161.855469 C 289.425781 163.121094 289.757812 164.410156 290.050781 165.691406 Z M 290.636719 173.585938 C 290.476562 172.285156 290.277344 170.980469 290.054688 169.710938 L 290.832031 169.574219 C 291.058594 170.859375 291.257812 172.175781 291.421875 173.488281 Z M 291.222656 181.398438 C 291.191406 180.097656 291.125 178.785156 291.027344 177.484375 L 291.8125 177.425781 C 291.914062 178.738281 291.976562 180.066406 292.011719 181.378906 Z M 291.824219 189.289062 L 291.035156 189.234375 C 291.132812 187.941406 291.195312 186.628906 291.226562 185.320312 L 292.015625 185.335938 C 291.984375 186.65625 291.917969 187.988281 291.824219 189.289062 Z M 290.855469 197.144531 L 290.082031 197.007812 C 290.304688 195.734375 290.496094 194.429688 290.65625 193.132812 L 291.4375 193.230469 C 291.273438 194.539062 291.082031 195.855469 290.855469 197.144531 Z M 289.109375 204.863281 L 288.351562 204.648438 C 288.703125 203.398438 289.023438 202.117188 289.3125 200.847656 L 290.082031 201.023438 C 289.789062 202.304688 289.460938 203.597656 289.109375 204.863281 Z M 286.59375 212.375 L 285.863281 212.089844 C 286.335938 210.871094 286.789062 209.632812 287.199219 208.394531 L 287.945312 208.644531 C 287.527344 209.894531 287.074219 211.148438 286.59375 212.375 Z M 283.335938 219.601562 L 282.636719 219.242188 C 283.226562 218.085938 283.800781 216.894531 284.335938 215.707031 L 285.058594 216.03125 C 284.511719 217.230469 283.9375 218.429688 283.335938 219.601562 Z M 279.375 226.464844 L 278.710938 226.039062 C 279.417969 224.945312 280.109375 223.816406 280.757812 222.691406 L 281.441406 223.082031 C 280.785156 224.222656 280.085938 225.359375 279.375 226.464844 Z M 274.75 232.894531 L 274.132812 232.402344 C 274.949219 231.382812 275.742188 230.332031 276.5 229.277344 L 277.140625 229.734375 C 276.375 230.804688 275.570312 231.863281 274.75 232.894531 Z M 269.511719 238.832031 L 268.949219 238.28125 C 269.859375 237.347656 270.757812 236.378906 271.613281 235.40625 L 272.203125 235.929688 C 271.339844 236.910156 270.433594 237.886719 269.511719 238.832031 Z M 263.71875 244.222656 L 263.210938 243.617188 C 264.207031 242.777344 265.199219 241.90625 266.148438 241.023438 L 266.683594 241.597656 C 265.726562 242.492188 264.726562 243.375 263.71875 244.222656 Z M 257.421875 249.007812 L 256.976562 248.355469 C 258.046875 247.625 259.117188 246.851562 260.15625 246.066406 L 260.628906 246.691406 C 259.582031 247.488281 258.5 248.265625 257.421875 249.007812 Z M 250.683594 253.140625 L 250.308594 252.449219 C 251.441406 251.828125 252.578125 251.167969 253.691406 250.484375 L 254.105469 251.160156 C 252.980469 251.847656 251.832031 252.515625 250.683594 253.140625 Z M 243.574219 256.582031 L 243.265625 255.859375 C 244.457031 255.355469 245.65625 254.8125 246.828125 254.242188 L 247.171875 254.953125 C 245.984375 255.527344 244.773438 256.074219 243.574219 256.582031 Z M 236.148438 259.296875 L 235.914062 258.546875 C 237.160156 258.160156 238.40625 257.738281 239.628906 257.292969 L 239.898438 258.03125 C 238.667969 258.484375 237.402344 258.910156 236.148438 259.296875 Z M 228.480469 261.257812 L 228.324219 260.488281 C 229.601562 260.226562 230.886719 259.933594 232.144531 259.613281 L 232.339844 260.375 C 231.070312 260.699219 229.773438 260.996094 228.480469 261.257812 Z M 220.65625 262.441406 L 220.578125 261.65625 C 221.875 261.527344 223.179688 261.363281 224.464844 261.167969 L 224.582031 261.949219 C 223.285156 262.144531 221.964844 262.3125 220.65625 262.441406 Z M 212.753906 262.847656 L 212.753906 262.058594 C 214.050781 262.054688 215.367188 262.019531 216.667969 261.953125 L 216.710938 262.738281 C 215.394531 262.808594 214.0625 262.84375 212.753906 262.847656 "/>
<path style=" stroke:none;fill-rule:nonzero;fill:rgb(100%,100%,100%);fill-opacity:1;" d="M 212.609375 252.082031 L 212.609375 249.972656 C 249.304688 249.972656 279.164062 220.121094 279.164062 183.425781 C 279.164062 146.730469 249.304688 116.878906 212.609375 116.878906 L 212.609375 114.769531 C 250.46875 114.769531 281.273438 145.570312 281.273438 183.425781 C 281.273438 221.285156 250.46875 252.082031 212.609375 252.082031 "/>
<path style=" stroke:none;fill-rule:nonzero;fill:rgb(100%,100%,100%);fill-opacity:1;" d="M 212.609375 236.480469 C 183.347656 236.480469 159.546875 212.679688 159.546875 183.425781 C 159.546875 154.171875 183.347656 130.371094 212.609375 130.371094 C 241.867188 130.371094 265.667969 154.171875 265.667969 183.425781 L 260.730469 183.425781 C 260.730469 156.894531 239.140625 135.308594 212.609375 135.308594 C 186.074219 135.308594 164.484375 156.894531 164.484375 183.425781 C 164.484375 209.957031 186.074219 231.542969 212.609375 231.542969 C 222.96875 231.542969 232.835938 228.300781 241.144531 222.171875 L 244.078125 226.144531 C 234.910156 232.90625 224.03125 236.480469 212.609375 236.480469 "/>
<path style=" stroke:none;fill-rule:nonzero;fill:rgb(100%,100%,100%);fill-opacity:1;" d="M 312.265625 183.425781 L 308.046875 183.425781 C 308.046875 130.804688 265.234375 88 212.609375 88 L 212.609375 83.78125 C 267.558594 83.78125 312.265625 128.480469 312.265625 183.425781 "/>
<path style=" stroke:none;fill-rule:nonzero;fill:rgb(100%,100%,100%);fill-opacity:1;" d="M 382.871094 197.183594 L 252.902344 197.183594 L 239.5 183.777344 L 212.609375 183.777344 L 212.609375 183.074219 L 239.789062 183.074219 L 253.195312 196.480469 L 381.171875 196.480469 L 356.207031 171.515625 L 356.207031 148.722656 L 424.207031 148.722656 L 424.207031 149.425781 L 356.910156 149.425781 L 356.910156 171.222656 L 382.871094 197.183594 "/>
<path style=" stroke:none;fill-rule:nonzero;fill:rgb(100%,100%,100%);fill-opacity:1;" d="M 404.167969 213.136719 L 369.136719 213.136719 L 356.332031 200.332031 L 250.792969 200.332031 L 237.390625 186.925781 L 212.609375 186.925781 L 212.609375 186.222656 L 237.679688 186.222656 L 251.085938 199.628906 L 356.621094 199.628906 L 369.425781 212.433594 L 403.464844 212.433594 L 403.464844 179.480469 L 473.074219 179.480469 L 473.074219 180.183594 L 404.167969 180.183594 L 404.167969 213.136719 "/>
<path style=" stroke:none;fill-rule:nonzero;fill:rgb(100%,100%,100%);fill-opacity:1;" d="M 445.300781 228.164062 L 342.855469 228.164062 L 322.464844 207.773438 L 212.609375 207.773438 L 212.609375 207.070312 L 322.753906 207.070312 L 343.144531 227.460938 L 445.300781 227.460938 L 445.300781 228.164062 "/>
<path style=" stroke:none;fill-rule:nonzero;fill:rgb(100%,100%,100%);fill-opacity:1;" d="M 415.875 171.351562 L 404.976562 160.453125 L 405.472656 159.957031 L 416.371094 170.851562 L 415.875 171.351562 "/>
<path style=" stroke:none;fill-rule:nonzero;fill:rgb(100%,100%,100%);fill-opacity:1;" d="M 421.324219 171.351562 L 410.425781 160.453125 L 410.921875 159.957031 L 421.820312 170.851562 L 421.324219 171.351562 "/>
<path style=" stroke:none;fill-rule:nonzero;fill:rgb(100%,100%,100%);fill-opacity:1;" d="M 426.773438 171.351562 L 415.875 160.453125 L 416.371094 159.957031 L 427.269531 170.851562 L 426.773438 171.351562 "/>
<g clip-path="url(#clip2)" clip-rule="nonzero">
<path style=" stroke:none;fill-rule:nonzero;fill:rgb(100%,100%,100%);fill-opacity:1;" d="M 475.492188 183.742188 L 471.578125 179.832031 L 475.492188 175.914062 L 479.40625 179.832031 L 475.492188 183.742188 "/>
</g>
<path style=" stroke:none;fill-rule:nonzero;fill:rgb(100%,100%,100%);fill-opacity:1;" d="M 426.273438 152.988281 L 422.359375 149.074219 L 426.273438 145.160156 L 430.191406 149.074219 L 426.273438 152.988281 "/>
<path style=" stroke:none;fill-rule:nonzero;fill:rgb(100%,100%,100%);fill-opacity:1;" d="M 445.300781 183.742188 L 441.386719 179.832031 L 445.300781 175.914062 L 449.21875 179.832031 L 445.300781 183.742188 "/>
<path style=" stroke:none;fill-rule:nonzero;fill:rgb(100%,100%,100%);fill-opacity:1;" d="M 403.773438 216.699219 L 399.859375 212.785156 L 403.773438 208.867188 L 407.691406 212.785156 L 403.773438 216.699219 "/>
<path style=" stroke:none;fill-rule:nonzero;fill:rgb(100%,100%,100%);fill-opacity:1;" d="M 357 152.988281 L 353.085938 149.074219 L 357 145.160156 L 360.914062 149.074219 L 357 152.988281 "/>
<path style=" stroke:none;fill-rule:nonzero;fill:rgb(100%,100%,100%);fill-opacity:1;" d="M 342.839844 231.722656 L 338.925781 227.8125 L 342.839844 223.898438 L 346.753906 227.8125 L 342.839844 231.722656 "/>
<path style=" stroke:none;fill-rule:nonzero;fill:rgb(100%,100%,100%);fill-opacity:1;" d="M 234.386719 211.335938 L 230.46875 207.421875 L 234.386719 203.511719 L 238.300781 207.421875 L 234.386719 211.335938 "/>
<path style=" stroke:none;fill-rule:nonzero;fill:rgb(100%,100%,100%);fill-opacity:1;" d="M 447.191406 231.722656 L 443.277344 227.8125 L 447.191406 223.898438 L 451.105469 227.8125 L 447.191406 231.722656 "/>
<path style=" stroke:none;fill-rule:nonzero;fill:rgb(100%,100%,100%);fill-opacity:1;" d="M 369.332031 85.195312 C 365.457031 85.195312 362.300781 88.351562 362.300781 92.226562 C 362.300781 96.101562 365.457031 99.253906 369.332031 99.253906 C 373.207031 99.253906 376.363281 96.101562 376.363281 92.226562 C 376.363281 88.351562 373.207031 85.195312 369.332031 85.195312 Z M 369.332031 99.957031 C 365.066406 99.957031 361.597656 96.488281 361.597656 92.226562 C 361.597656 87.960938 365.066406 84.492188 369.332031 84.492188 C 373.597656 84.492188 377.066406 87.960938 377.066406 92.226562 C 377.066406 96.488281 373.597656 99.957031 369.332031 99.957031 "/>
<path style=" stroke:none;fill-rule:nonzero;fill:rgb(100%,100%,100%);fill-opacity:1;" d="M 369.683594 102.066406 L 368.980469 102.066406 L 368.980469 99.605469 L 369.683594 99.605469 L 369.683594 102.066406 "/>
<path style=" stroke:none;fill-rule:nonzero;fill:rgb(100%,100%,100%);fill-opacity:1;" d="M 369.683594 84.667969 L 368.980469 84.667969 L 368.980469 82.207031 L 369.683594 82.207031 L 369.683594 84.667969 "/>
<path style=" stroke:none;fill-rule:nonzero;fill:rgb(100%,100%,100%);fill-opacity:1;" d="M 379.261719 92.488281 L 376.800781 92.488281 L 376.800781 91.785156 L 379.261719 91.785156 L 379.261719 92.488281 "/>
<path style=" stroke:none;fill-rule:nonzero;fill:rgb(100%,100%,100%);fill-opacity:1;" d="M 361.859375 92.488281 L 359.398438 92.488281 L 359.398438 91.785156 L 361.859375 91.785156 L 361.859375 92.488281 "/>
<path style=" stroke:none;fill-rule:nonzero;fill:rgb(100%,100%,100%);fill-opacity:1;" d="M 291.644531 263.765625 C 287.765625 263.765625 284.613281 266.921875 284.613281 270.796875 C 284.613281 274.675781 287.765625 277.828125 291.644531 277.828125 C 295.519531 277.828125 298.675781 274.675781 298.675781 270.796875 C 298.675781 266.921875 295.519531 263.765625 291.644531 263.765625 Z M 291.644531 278.53125 C 287.378906 278.53125 283.910156 275.0625 283.910156 270.796875 C 283.910156 266.535156 287.378906 263.0625 291.644531 263.0625 C 295.90625 263.0625 299.378906 266.535156 299.378906 270.796875 C 299.378906 275.0625 295.90625 278.53125 291.644531 278.53125 "/>
<path style=" stroke:none;fill-rule:nonzero;fill:rgb(100%,100%,100%);fill-opacity:1;" d="M 291.996094 280.640625 L 291.292969 280.640625 L 291.292969 278.179688 L 291.996094 278.179688 L 291.996094 280.640625 "/>
<path style=" stroke:none;fill-rule:nonzero;fill:rgb(100%,100%,100%);fill-opacity:1;" d="M 291.996094 263.238281 L 291.292969 263.238281 L 291.292969 260.777344 L 291.996094 260.777344 L 291.996094 263.238281 "/>
<path style=" stroke:none;fill-rule:nonzero;fill:rgb(100%,100%,100%);fill-opacity:1;" d="M 301.574219 271.058594 L 299.113281 271.058594 L 299.113281 270.355469 L 301.574219 270.355469 L 301.574219 271.058594 "/>
<path style=" stroke:none;fill-rule:nonzero;fill:rgb(100%,100%,100%);fill-opacity:1;" d="M 284.171875 271.058594 L 281.710938 271.058594 L 281.710938 270.355469 L 284.171875 270.355469 L 284.171875 271.058594 "/>
<path style=" stroke:none;fill-rule:nonzero;fill:rgb(100%,100%,100%);fill-opacity:1;" d="M 383.734375 270.164062 L 383.234375 269.664062 L 392.433594 260.46875 L 383.234375 251.273438 L 383.734375 250.777344 L 393.429688 260.46875 L 383.734375 270.164062 "/>
<path style=" stroke:none;fill-rule:nonzero;fill:rgb(100%,100%,100%);fill-opacity:1;" d="M 383.050781 252.703125 C 382.46875 252.121094 382.46875 251.171875 383.050781 250.585938 C 383.628906 250.007812 384.582031 250.007812 385.160156 250.585938 C 385.742188 251.171875 385.742188 252.121094 385.160156 252.703125 C 384.582031 253.28125 383.628906 253.28125 383.050781 252.703125 "/>
<path style=" stroke:none;fill-rule:nonzero;fill:rgb(100%,100%,100%);fill-opacity:1;" d="M 382.429688 270.96875 C 381.847656 270.390625 381.847656 269.441406 382.429688 268.859375 C 383.007812 268.277344 383.960938 268.277344 384.539062 268.859375 C 385.121094 269.441406 385.121094 270.390625 384.539062 270.96875 C 383.960938 271.550781 383.007812 271.550781 382.429688 270.96875 "/>
<path style=" stroke:none;fill-rule:nonzero;fill:rgb(100%,100%,100%);fill-opacity:1;" d="M 327.476562 125.828125 L 317.78125 116.132812 L 327.476562 106.441406 L 327.972656 106.9375 L 318.777344 116.132812 L 327.972656 125.332031 L 327.476562 125.828125 "/>
<path style=" stroke:none;fill-rule:nonzero;fill:rgb(100%,100%,100%);fill-opacity:1;" d="M 328.160156 123.902344 C 328.738281 124.484375 328.738281 125.433594 328.160156 126.015625 C 327.578125 126.597656 326.628906 126.597656 326.046875 126.015625 C 325.464844 125.433594 325.464844 124.484375 326.046875 123.902344 C 326.628906 123.320312 327.578125 123.320312 328.160156 123.902344 "/>
<path style=" stroke:none;fill-rule:nonzero;fill:rgb(100%,100%,100%);fill-opacity:1;" d="M 328.78125 105.632812 C 329.359375 106.214844 329.359375 107.164062 328.78125 107.746094 C 328.199219 108.328125 327.25 108.328125 326.667969 107.746094 C 326.085938 107.164062 326.085938 106.214844 326.667969 105.632812 C 327.25 105.050781 328.199219 105.050781 328.78125 105.632812 "/>
<g clip-path="url(#clip3)" clip-rule="nonzero">
<path style=" stroke:none;fill-rule:nonzero;fill:rgb(100%,100%,100%);fill-opacity:1;" d="M 1004.789062 455.089844 L 1004.789062 375.300781 L 1033.179688 346.917969 L 1033.355469 346.917969 L 1077.089844 347.023438 L 1083.792969 340.320312 L 1083.792969 306.472656 L 1089.0625 301.207031 L 1089.0625 249.871094 L 1113.839844 225.105469 L 1157.851562 225.105469 L 1162.207031 220.753906 L 1162.207031 149.285156 L 1163.054688 149.285156 L 1163.054688 221.101562 L 1158.203125 225.953125 L 1114.1875 225.953125 L 1089.90625 250.222656 L 1089.90625 301.558594 L 1084.640625 306.824219 L 1084.640625 340.667969 L 1077.4375 347.867188 L 1077.265625 347.867188 L 1033.53125 347.761719 L 1005.636719 375.648438 L 1005.636719 455.089844 L 1004.789062 455.089844 "/>
</g>
<path style=" stroke:none;fill-rule:nonzero;fill:rgb(100%,100%,100%);fill-opacity:1;" d="M 1165.097656 145.96875 C 1165.097656 144.609375 1163.992188 143.503906 1162.628906 143.503906 C 1161.269531 143.503906 1160.160156 144.609375 1160.160156 145.96875 C 1160.160156 147.332031 1161.269531 148.4375 1162.628906 148.4375 C 1163.992188 148.4375 1165.097656 147.332031 1165.097656 145.96875 Z M 1158.46875 145.96875 C 1158.46875 143.675781 1160.335938 141.8125 1162.628906 141.8125 C 1164.925781 141.8125 1166.789062 143.675781 1166.789062 145.96875 C 1166.789062 148.261719 1164.925781 150.128906 1162.628906 150.128906 C 1160.335938 150.128906 1158.46875 148.261719 1158.46875 145.96875 "/>
<path style=" stroke:none;fill-rule:nonzero;fill:rgb(100%,100%,100%);fill-opacity:1;" d="M 1188.621094 161.300781 C 1188.621094 159.9375 1187.515625 158.828125 1186.152344 158.828125 C 1184.792969 158.828125 1183.683594 159.9375 1183.683594 161.300781 C 1183.683594 162.660156 1184.792969 163.769531 1186.152344 163.769531 C 1187.515625 163.769531 1188.621094 162.660156 1188.621094 161.300781 Z M 1181.992188 161.300781 C 1181.992188 159.003906 1183.855469 157.136719 1186.152344 157.136719 C 1188.445312 157.136719 1190.316406 159.003906 1190.316406 161.300781 C 1190.316406 163.59375 1188.445312 165.460938 1186.152344 165.460938 C 1183.855469 165.460938 1181.992188 163.59375 1181.992188 161.300781 "/>
<g clip-path="url(#clip4)" clip-rule="nonzero">
<path style=" stroke:none;fill-rule:nonzero;fill:rgb(100%,100%,100%);fill-opacity:1;" d="M 1012.566406 455.089844 L 1012.566406 378.246094 L 1036.511719 354.304688 L 1081.09375 354.304688 L 1091.160156 344.238281 L 1091.160156 310.550781 L 1096.863281 304.847656 L 1096.863281 253.574219 L 1116.609375 233.835938 L 1160.9375 233.835938 L 1169.28125 225.496094 L 1169.28125 170.085938 L 1178.496094 160.875 L 1182.839844 160.875 L 1182.839844 161.722656 L 1178.84375 161.722656 L 1170.125 170.4375 L 1170.125 225.84375 L 1161.289062 234.679688 L 1116.960938 234.679688 L 1097.710938 253.925781 L 1097.710938 305.195312 L 1092.007812 310.902344 L 1092.007812 344.589844 L 1081.441406 355.152344 L 1036.863281 355.152344 L 1013.410156 378.59375 L 1013.410156 455.089844 L 1012.566406 455.089844 "/>
</g>
<g clip-path="url(#clip5)" clip-rule="nonzero">
<path style=" stroke:none;fill-rule:nonzero;fill:rgb(100%,100%,100%);fill-opacity:1;" d="M 1008.757812 455.089844 L 1008.757812 376.832031 L 1034.957031 350.636719 L 1078.972656 350.636719 L 1087.1875 342.421875 L 1087.1875 308.574219 L 1092.832031 302.9375 L 1092.832031 251.601562 L 1115.089844 229.351562 L 1159.101562 229.351562 L 1165.625 222.832031 L 1165.625 167.265625 L 1172.1875 160.707031 L 1172.1875 137.121094 L 1173.03125 137.121094 L 1173.03125 161.058594 L 1166.472656 167.617188 L 1166.472656 223.179688 L 1159.453125 230.199219 L 1115.4375 230.199219 L 1093.679688 251.949219 L 1093.679688 303.28125 L 1088.035156 308.925781 L 1088.035156 342.773438 L 1079.324219 351.480469 L 1035.308594 351.480469 L 1009.601562 377.183594 L 1009.601562 455.089844 L 1008.757812 455.089844 "/>
</g>
<path style=" stroke:none;fill-rule:nonzero;fill:rgb(100%,100%,100%);fill-opacity:1;" d="M 1175.421875 132.113281 C 1175.421875 133.667969 1174.164062 134.925781 1172.609375 134.925781 C 1171.054688 134.925781 1169.796875 133.667969 1169.796875 132.113281 C 1169.796875 130.558594 1171.054688 129.300781 1172.609375 129.300781 C 1174.164062 129.300781 1175.421875 130.558594 1175.421875 132.113281 "/>
<path style=" stroke:none;fill-rule:nonzero;fill:rgb(100%,100%,100%);fill-opacity:1;" d="M 1176.839844 132.113281 C 1176.839844 129.777344 1174.941406 127.882812 1172.609375 127.882812 C 1170.273438 127.882812 1168.375 129.777344 1168.375 132.113281 C 1168.375 134.445312 1170.273438 136.34375 1172.609375 136.34375 C 1174.941406 136.34375 1176.839844 134.445312 1176.839844 132.113281 Z M 1167.53125 132.113281 C 1167.53125 129.3125 1169.808594 127.035156 1172.609375 127.035156 C 1175.410156 127.035156 1177.6875 129.3125 1177.6875 132.113281 C 1177.6875 134.914062 1175.410156 137.191406 1172.609375 137.191406 C 1169.808594 137.191406 1167.53125 134.914062 1167.53125 132.113281 "/>
<path style=" stroke:none;fill-rule:nonzero;fill:rgb(100%,100%,100%);fill-opacity:1;" d="M 1159.5625 200.726562 C 1159.5625 199.363281 1158.453125 198.257812 1157.09375 198.257812 C 1155.730469 198.257812 1154.621094 199.363281 1154.621094 200.726562 C 1154.621094 202.082031 1155.730469 203.191406 1157.09375 203.191406 C 1158.453125 203.191406 1159.5625 202.082031 1159.5625 200.726562 Z M 1152.929688 200.726562 C 1152.929688 198.429688 1154.796875 196.5625 1157.09375 196.5625 C 1159.386719 196.5625 1161.253906 198.429688 1161.253906 200.726562 C 1161.253906 203.019531 1159.386719 204.882812 1157.09375 204.882812 C 1154.796875 204.882812 1152.929688 203.019531 1152.929688 200.726562 "/>
<path style=" stroke:none;fill-rule:nonzero;fill:rgb(100%,100%,100%);fill-opacity:1;" d="M 1002.242188 375.445312 C 1002.242188 374.082031 1001.136719 372.976562 999.773438 372.976562 C 998.414062 372.976562 997.304688 374.082031 997.304688 375.445312 C 997.304688 376.808594 998.414062 377.914062 999.773438 377.914062 C 1001.136719 377.914062 1002.242188 376.808594 1002.242188 375.445312 Z M 995.613281 375.445312 C 995.613281 373.152344 997.476562 371.285156 999.773438 371.285156 C 1002.066406 371.285156 1003.933594 373.152344 1003.933594 375.445312 C 1003.933594 377.738281 1002.066406 379.605469 999.773438 379.605469 C 997.476562 379.605469 995.613281 377.738281 995.613281 375.445312 "/>
<path style=" stroke:none;fill-rule:nonzero;fill:rgb(100%,100%,100%);fill-opacity:1;" d="M 1001.542969 373.179688 L 1031.222656 343.503906 L 1074.734375 343.503906 L 1079.910156 338.332031 L 1079.910156 304.539062 L 1085.039062 299.410156 L 1085.039062 247.6875 L 1111.632812 221.101562 L 1156.667969 221.101562 L 1156.667969 203.242188 L 1157.515625 203.242188 L 1157.515625 221.949219 L 1111.984375 221.949219 L 1085.886719 248.039062 L 1085.886719 299.757812 L 1080.753906 304.890625 L 1080.753906 338.683594 L 1075.085938 344.351562 L 1031.574219 344.351562 L 1002.140625 373.78125 L 1001.542969 373.179688 "/>
<path style=" stroke:none;fill-rule:nonzero;fill:rgb(100%,100%,100%);fill-opacity:1;" d="M 1150.636719 205.304688 L 1150.636719 183.660156 L 1151.484375 183.660156 L 1151.484375 204.957031 L 1157.394531 210.859375 L 1156.792969 211.460938 L 1150.636719 205.304688 "/>
<g clip-path="url(#clip6)" clip-rule="nonzero">
<path style=" stroke:none;fill-rule:nonzero;fill:rgb(100%,100%,100%);fill-opacity:1;" d="M 1016.09375 455.089844 L 1016.09375 379.796875 L 1037.992188 357.902344 L 1082.925781 357.902344 L 1094.917969 345.910156 L 1094.917969 312.804688 L 1105.300781 302.421875 L 1105.300781 256.679688 L 1120.195312 241.789062 L 1140.832031 241.789062 L 1148.15625 249.109375 L 1169.121094 249.109375 L 1176.308594 241.921875 L 1183.015625 241.921875 L 1209.347656 268.25 L 1213.167969 268.25 L 1213.167969 269.097656 L 1209 269.097656 L 1182.664062 242.769531 L 1176.660156 242.769531 L 1169.472656 249.953125 L 1147.804688 249.953125 L 1140.480469 242.636719 L 1120.542969 242.636719 L 1106.148438 257.027344 L 1106.148438 302.773438 L 1095.761719 313.15625 L 1095.761719 346.261719 L 1083.273438 358.746094 L 1038.34375 358.746094 L 1016.9375 380.144531 L 1016.9375 455.089844 L 1016.09375 455.089844 "/>
</g>
<path style=" stroke:none;fill-rule:nonzero;fill:rgb(100%,100%,100%);fill-opacity:1;" d="M 1108.847656 279.132812 C 1108.847656 280.964844 1107.363281 282.449219 1105.53125 282.449219 C 1103.703125 282.449219 1102.214844 280.964844 1102.214844 279.132812 C 1102.214844 277.304688 1103.703125 275.824219 1105.53125 275.824219 C 1107.363281 275.824219 1108.847656 277.304688 1108.847656 279.132812 "/>
<path style=" stroke:none;fill-rule:nonzero;fill:rgb(100%,100%,100%);fill-opacity:1;" d="M 1119.917969 239.789062 L 1119.917969 238.941406 L 1142.667969 238.941406 L 1149.859375 246.132812 L 1167.144531 246.132812 L 1174.835938 238.449219 L 1182.414062 238.449219 L 1182.414062 219.054688 L 1183.261719 219.054688 L 1183.261719 239.296875 L 1175.183594 239.296875 L 1167.492188 246.980469 L 1149.511719 246.980469 L 1142.316406 239.789062 L 1119.917969 239.789062 "/>
<path style=" stroke:none;fill-rule:nonzero;fill:rgb(100%,100%,100%);fill-opacity:1;" d="M 1220.636719 267.777344 C 1220.636719 269.328125 1219.378906 270.585938 1217.824219 270.585938 C 1216.269531 270.585938 1215.007812 269.328125 1215.007812 267.777344 C 1215.007812 266.222656 1216.269531 264.964844 1217.824219 264.964844 C 1219.378906 264.964844 1220.636719 266.222656 1220.636719 267.777344 "/>
<path style=" stroke:none;fill-rule:nonzero;fill:rgb(100%,100%,100%);fill-opacity:1;" d="M 1222.054688 267.777344 C 1222.054688 265.445312 1220.15625 263.546875 1217.824219 263.546875 C 1215.488281 263.546875 1213.589844 265.445312 1213.589844 267.777344 C 1213.589844 270.105469 1215.488281 272.007812 1217.824219 272.007812 C 1220.15625 272.007812 1222.054688 270.105469 1222.054688 267.777344 Z M 1212.746094 267.777344 C 1212.746094 264.976562 1215.023438 262.699219 1217.824219 262.699219 C 1220.625 262.699219 1222.902344 264.976562 1222.902344 267.777344 C 1222.902344 270.578125 1220.625 272.855469 1217.824219 272.855469 C 1215.023438 272.855469 1212.746094 270.578125 1212.746094 267.777344 "/>
<path style=" stroke:none;fill-rule:nonzero;fill:rgb(100%,100%,100%);fill-opacity:1;" d="M 1185.652344 217.082031 C 1185.652344 218.636719 1184.394531 219.894531 1182.839844 219.894531 C 1181.285156 219.894531 1180.023438 218.636719 1180.023438 217.082031 C 1180.023438 215.53125 1181.285156 214.269531 1182.839844 214.269531 C 1184.394531 214.269531 1185.652344 215.53125 1185.652344 217.082031 "/>
<g clip-path="url(#clip7)" clip-rule="nonzero">
<path style=" stroke:none;fill-rule:nonzero;fill:rgb(100%,100%,100%);fill-opacity:1;" d="M 1019.902344 455.089844 L 1019.902344 382.476562 L 1026.046875 376.332031 L 1034.820312 376.332031 L 1040.679688 370.476562 L 1041.277344 371.074219 L 1035.171875 377.175781 L 1026.394531 377.175781 L 1020.75 382.824219 L 1020.75 455.089844 L 1019.902344 455.089844 "/>
</g>
<path style=" stroke:none;fill-rule:nonzero;fill:rgb(100%,100%,100%);fill-opacity:1;" d="M 1045.433594 368.816406 C 1045.433594 367.457031 1044.324219 366.347656 1042.96875 366.347656 C 1041.605469 366.347656 1040.496094 367.457031 1040.496094 368.816406 C 1040.496094 370.175781 1041.605469 371.285156 1042.96875 371.285156 C 1044.324219 371.285156 1045.433594 370.175781 1045.433594 368.816406 Z M 1038.804688 368.816406 C 1038.804688 366.523438 1040.671875 364.65625 1042.96875 364.65625 C 1045.261719 364.65625 1047.125 366.523438 1047.125 368.816406 C 1047.125 371.113281 1045.261719 372.976562 1042.96875 372.976562 C 1040.671875 372.976562 1038.804688 371.113281 1038.804688 368.816406 "/>
<g clip-path="url(#clip8)" clip-rule="nonzero">
<path style=" stroke:none;fill-rule:nonzero;fill:rgb(100%,100%,100%);fill-opacity:1;" d="M 1023.675781 455.089844 L 1023.675781 385.191406 L 1028.738281 380.128906 L 1039.476562 380.128906 L 1058.335938 361.273438 L 1080.773438 361.273438 L 1084.832031 365.335938 L 1087.941406 365.335938 L 1087.941406 366.179688 L 1084.480469 366.179688 L 1080.421875 362.121094 L 1058.683594 362.121094 L 1039.824219 380.976562 L 1029.085938 380.976562 L 1024.519531 385.539062 L 1024.519531 455.089844 L 1023.675781 455.089844 "/>
</g>
<path style=" stroke:none;fill-rule:nonzero;fill:rgb(100%,100%,100%);fill-opacity:1;" d="M 1095.410156 365.503906 C 1095.410156 367.054688 1094.148438 368.316406 1092.59375 368.316406 C 1091.042969 368.316406 1089.78125 367.054688 1089.78125 365.503906 C 1089.78125 363.949219 1091.042969 362.691406 1092.59375 362.691406 C 1094.148438 362.691406 1095.410156 363.949219 1095.410156 365.503906 "/>
<path style=" stroke:none;fill-rule:nonzero;fill:rgb(100%,100%,100%);fill-opacity:1;" d="M 1096.828125 365.503906 C 1096.828125 363.167969 1094.929688 361.273438 1092.59375 361.273438 C 1090.261719 361.273438 1088.363281 363.167969 1088.363281 365.503906 C 1088.363281 367.835938 1090.261719 369.734375 1092.59375 369.734375 C 1094.929688 369.734375 1096.828125 367.835938 1096.828125 365.503906 Z M 1087.515625 365.503906 C 1087.515625 362.703125 1089.792969 360.425781 1092.59375 360.425781 C 1095.394531 360.425781 1097.671875 362.703125 1097.671875 365.503906 C 1097.671875 368.300781 1095.394531 370.578125 1092.59375 370.578125 C 1089.792969 370.578125 1087.515625 368.300781 1087.515625 365.503906 "/>
<path style=" stroke:none;fill-rule:nonzero;fill:rgb(100%,100%,100%);fill-opacity:1;" d="M 1069.550781 420.503906 C 1069.550781 422.058594 1068.289062 423.316406 1066.734375 423.316406 C 1065.183594 423.316406 1063.921875 422.058594 1063.921875 420.503906 C 1063.921875 418.949219 1065.183594 417.691406 1066.734375 417.691406 C 1068.289062 417.691406 1069.550781 418.949219 1069.550781 420.503906 "/>
<path style=" stroke:none;fill-rule:nonzero;fill:rgb(100%,100%,100%);fill-opacity:1;" d="M 1070.96875 420.503906 C 1070.96875 418.171875 1069.070312 416.273438 1066.734375 416.273438 C 1064.402344 416.273438 1062.503906 418.171875 1062.503906 420.503906 C 1062.503906 422.835938 1064.402344 424.734375 1066.734375 424.734375 C 1069.070312 424.734375 1070.96875 422.835938 1070.96875 420.503906 Z M 1061.65625 420.503906 C 1061.65625 417.703125 1063.9375 415.425781 1066.734375 415.425781 C 1069.535156 415.425781 1071.816406 417.703125 1071.816406 420.503906 C 1071.816406 423.304688 1069.535156 425.582031 1066.734375 425.582031 C 1063.9375 425.582031 1061.65625 423.304688 1061.65625 420.503906 "/>
<path style=" stroke:none;fill-rule:nonzero;fill:rgb(100%,100%,100%);fill-opacity:1;" d="M 1108.421875 272.429688 L 1108.421875 259.496094 L 1121.542969 246.382812 L 1138.714844 246.382812 L 1146.933594 254.59375 L 1172.609375 254.59375 L 1172.609375 255.441406 L 1146.585938 255.441406 L 1138.363281 247.226562 L 1121.894531 247.226562 L 1109.269531 259.847656 L 1109.269531 272.429688 L 1108.421875 272.429688 "/>
<g clip-path="url(#clip9)" clip-rule="nonzero">
<path style=" stroke:none;fill-rule:nonzero;fill:rgb(100%,100%,100%);fill-opacity:1;" d="M 1027.800781 455.089844 L 1027.800781 386.703125 L 1031.011719 383.492188 L 1038.980469 383.492188 L 1047.214844 391.726562 L 1046.617188 392.328125 L 1038.628906 384.339844 L 1031.363281 384.339844 L 1028.648438 387.054688 L 1028.648438 455.089844 L 1027.800781 455.089844 "/>
</g>
<path style=" stroke:none;fill-rule:nonzero;fill:rgb(100%,100%,100%);fill-opacity:1;" d="M 1051.90625 393.652344 C 1051.90625 395.203125 1050.648438 396.460938 1049.09375 396.460938 C 1047.539062 396.460938 1046.28125 395.203125 1046.28125 393.652344 C 1046.28125 392.097656 1047.539062 390.839844 1049.09375 390.839844 C 1050.648438 390.839844 1051.90625 392.097656 1051.90625 393.652344 "/>
<path style=" stroke:none;fill-rule:nonzero;fill:rgb(100%,100%,100%);fill-opacity:1;" d="M 1042.011719 413.511719 C 1040.910156 414.609375 1039.132812 414.609375 1038.03125 413.511719 C 1036.933594 412.414062 1036.933594 410.632812 1038.03125 409.535156 C 1039.132812 408.4375 1040.910156 408.4375 1042.011719 409.535156 C 1043.109375 410.632812 1043.109375 412.414062 1042.011719 413.511719 "/>
<path style=" stroke:none;fill-rule:nonzero;fill:rgb(100%,100%,100%);fill-opacity:1;" d="M 1103.507812 413.511719 C 1102.410156 414.609375 1100.628906 414.609375 1099.527344 413.511719 C 1098.429688 412.414062 1098.429688 410.632812 1099.527344 409.535156 C 1100.628906 408.4375 1102.410156 408.4375 1103.507812 409.535156 C 1104.605469 410.632812 1104.605469 412.414062 1103.507812 413.511719 "/>
<g clip-path="url(#clip10)" clip-rule="nonzero">
<path style=" stroke:none;fill-rule:nonzero;fill:rgb(100%,100%,100%);fill-opacity:1;" d="M 1031.46875 455.089844 L 1031.46875 419.332031 L 1037.964844 412.835938 L 1038.5625 413.433594 L 1032.3125 419.679688 L 1032.3125 455.089844 L 1031.46875 455.089844 "/>
</g>
<path style=" stroke:none;fill-rule:nonzero;fill:rgb(100%,100%,100%);fill-opacity:1;" d="M 1153.875 179.027344 C 1153.875 180.578125 1152.617188 181.839844 1151.0625 181.839844 C 1149.507812 181.839844 1148.246094 180.578125 1148.246094 179.027344 C 1148.246094 177.476562 1149.507812 176.214844 1151.0625 176.214844 C 1152.617188 176.214844 1153.875 177.476562 1153.875 179.027344 "/>
<path style=" stroke:none;fill-rule:nonzero;fill:rgb(100%,100%,100%);fill-opacity:1;" d="M 1155.292969 179.027344 C 1155.292969 176.695312 1153.394531 174.792969 1151.0625 174.792969 C 1148.726562 174.792969 1146.828125 176.695312 1146.828125 179.027344 C 1146.828125 181.359375 1148.726562 183.257812 1151.0625 183.257812 C 1153.394531 183.257812 1155.292969 181.359375 1155.292969 179.027344 Z M 1145.984375 179.027344 C 1145.984375 176.230469 1148.261719 173.949219 1151.0625 173.949219 C 1153.863281 173.949219 1156.140625 176.230469 1156.140625 179.027344 C 1156.140625 181.828125 1153.863281 184.101562 1151.0625 184.101562 C 1148.261719 184.101562 1145.984375 181.828125 1145.984375 179.027344 "/>
<g clip-path="url(#clip11)" clip-rule="nonzero">
<path style=" stroke:none;fill-rule:nonzero;fill:rgb(100%,100%,100%);fill-opacity:1;" d="M 1101.097656 455.089844 L 1101.097656 324.792969 L 1109.898438 315.996094 L 1110.496094 316.597656 L 1101.941406 325.144531 L 1101.941406 455.089844 L 1101.097656 455.089844 "/>
</g>
<path style=" stroke:none;fill-rule:nonzero;fill:rgb(100%,100%,100%);fill-opacity:1;" d="M 1115.328125 313.695312 C 1115.328125 312.332031 1114.21875 311.226562 1112.855469 311.226562 C 1111.496094 311.226562 1110.390625 312.332031 1110.390625 313.695312 C 1110.390625 315.054688 1111.496094 316.160156 1112.855469 316.160156 C 1114.21875 316.160156 1115.328125 315.054688 1115.328125 313.695312 Z M 1108.695312 313.695312 C 1108.695312 311.402344 1110.566406 309.535156 1112.855469 309.535156 C 1115.152344 309.535156 1117.019531 311.402344 1117.019531 313.695312 C 1117.019531 315.988281 1115.152344 317.851562 1112.855469 317.851562 C 1110.566406 317.851562 1108.695312 315.988281 1108.695312 313.695312 "/>
<g clip-path="url(#clip12)" clip-rule="nonzero">
<path style=" stroke:none;fill-rule:nonzero;fill:rgb(100%,100%,100%);fill-opacity:1;" d="M 999.347656 455.089844 L 999.347656 378.761719 L 1000.195312 378.761719 L 1000.195312 455.089844 L 999.347656 455.089844 "/>
</g>
<g clip-path="url(#clip13)" clip-rule="nonzero">
<path style=" stroke:none;fill-rule:nonzero;fill:rgb(100%,100%,100%);fill-opacity:1;" d="M 993.519531 455.089844 L 993.519531 370.601562 L 1027.203125 336.929688 L 1068.675781 336.929688 L 1073.777344 331.832031 L 1073.777344 299.199219 L 1079.460938 293.515625 L 1079.460938 248.390625 L 1080.308594 248.390625 L 1080.308594 293.867188 L 1074.621094 299.546875 L 1074.621094 332.183594 L 1069.027344 337.777344 L 1027.550781 337.777344 L 994.367188 370.953125 L 994.367188 455.089844 L 993.519531 455.089844 "/>
</g>
<path style=" stroke:none;fill-rule:nonzero;fill:rgb(100%,100%,100%);fill-opacity:1;" d="M 1055.222656 337.40625 C 1055.222656 339.238281 1053.738281 340.722656 1051.90625 340.722656 C 1050.074219 340.722656 1048.589844 339.238281 1048.589844 337.40625 C 1048.589844 335.578125 1050.074219 334.09375 1051.90625 334.09375 C 1053.738281 334.09375 1055.222656 335.578125 1055.222656 337.40625 "/>
<g clip-path="url(#clip14)" clip-rule="nonzero">
<path style=" stroke:none;fill-rule:nonzero;fill:rgb(100%,100%,100%);fill-opacity:1;" d="M 1071.390625 421.042969 L 1071.390625 420.195312 L 1075.058594 420.195312 L 1083.746094 411.511719 L 1090.519531 411.511719 L 1098.335938 419.332031 L 1098.335938 455.09375 L 1097.488281 455.09375 L 1097.488281 419.679688 L 1090.167969 412.359375 L 1084.097656 412.359375 L 1075.410156 421.042969 L 1071.390625 421.042969 "/>
</g>
<path style=" stroke:none;fill-rule:nonzero;fill:rgb(100%,100%,100%);fill-opacity:1;" d="M 1056.019531 333.96875 L 1056.019531 333.125 L 1066.015625 333.125 L 1069.125 330.011719 L 1069.125 299.726562 L 1069.972656 299.726562 L 1069.972656 330.363281 L 1066.367188 333.96875 L 1056.019531 333.96875 "/>
<path style=" stroke:none;fill-rule:nonzero;fill:rgb(100%,100%,100%);fill-opacity:1;" d="M 1072.363281 295.257812 C 1072.363281 296.8125 1071.105469 298.070312 1069.550781 298.070312 C 1067.996094 298.070312 1066.734375 296.8125 1066.734375 295.257812 C 1066.734375 293.707031 1067.996094 292.449219 1069.550781 292.449219 C 1071.105469 292.449219 1072.363281 293.707031 1072.363281 295.257812 "/>
<path style=" stroke:none;fill-rule:nonzero;fill:rgb(100%,100%,100%);fill-opacity:1;" d="M 1073.78125 295.261719 C 1073.78125 292.925781 1071.882812 291.03125 1069.550781 291.03125 C 1067.214844 291.03125 1065.316406 292.925781 1065.316406 295.261719 C 1065.316406 297.589844 1067.214844 299.492188 1069.550781 299.492188 C 1071.882812 299.492188 1073.78125 297.589844 1073.78125 295.261719 Z M 1064.472656 295.261719 C 1064.472656 292.457031 1066.75 290.183594 1069.550781 290.183594 C 1072.351562 290.183594 1074.628906 292.457031 1074.628906 295.261719 C 1074.628906 298.058594 1072.351562 300.339844 1069.550781 300.339844 C 1066.75 300.339844 1064.472656 298.058594 1064.472656 295.261719 "/>
<g clip-path="url(#clip15)" clip-rule="nonzero">
<path style=" stroke:none;fill-rule:nonzero;fill:rgb(100%,100%,100%);fill-opacity:1;" d="M 980.683594 455.089844 L 980.683594 278.960938 L 1017.046875 242.609375 L 1048.917969 242.609375 L 1058.691406 232.839844 L 1058.691406 222.617188 L 1049.339844 213.273438 L 1049.339844 192.542969 L 1050.1875 192.542969 L 1050.1875 212.921875 L 1059.539062 222.265625 L 1059.539062 233.191406 L 1049.269531 243.457031 L 1017.394531 243.457031 L 981.527344 279.308594 L 981.527344 455.089844 L 980.683594 455.089844 "/>
</g>
<path style=" stroke:none;fill-rule:nonzero;fill:rgb(100%,100%,100%);fill-opacity:1;" d="M 984.421875 290.980469 C 984.421875 292.8125 982.9375 294.296875 981.105469 294.296875 C 979.277344 294.296875 977.792969 292.8125 977.792969 290.980469 C 977.792969 289.152344 979.277344 287.667969 981.105469 287.667969 C 982.9375 287.667969 984.421875 289.152344 984.421875 290.980469 "/>
<path style=" stroke:none;fill-rule:nonzero;fill:rgb(100%,100%,100%);fill-opacity:1;" d="M 1073.5625 214.800781 C 1073.5625 216.628906 1072.074219 218.113281 1070.246094 218.113281 C 1068.414062 218.113281 1066.929688 216.628906 1066.929688 214.800781 C 1066.929688 212.96875 1068.414062 211.488281 1070.246094 211.488281 C 1072.074219 211.488281 1073.5625 212.96875 1073.5625 214.800781 "/>
<path style=" stroke:none;fill-rule:nonzero;fill:rgb(100%,100%,100%);fill-opacity:1;" d="M 1052.21875 189.230469 C 1052.21875 187.871094 1051.109375 186.761719 1049.75 186.761719 C 1048.390625 186.761719 1047.28125 187.871094 1047.28125 189.230469 C 1047.28125 190.589844 1048.390625 191.699219 1049.75 191.699219 C 1051.109375 191.699219 1052.21875 190.589844 1052.21875 189.230469 Z M 1045.589844 189.230469 C 1045.589844 186.933594 1047.453125 185.070312 1049.75 185.070312 C 1052.046875 185.070312 1053.910156 186.933594 1053.910156 189.230469 C 1053.910156 191.523438 1052.046875 193.390625 1049.75 193.390625 C 1047.453125 193.390625 1045.589844 191.523438 1045.589844 189.230469 "/>
<path style=" stroke:none;fill-rule:nonzero;fill:rgb(100%,100%,100%);fill-opacity:1;" d="M 975.601562 402.792969 L 975.601562 276.492188 L 1015.175781 236.933594 L 1046.261719 236.933594 L 1052.269531 230.921875 L 1052.269531 225.4375 L 1043.984375 217.15625 L 1038.101562 217.15625 L 1038.101562 216.308594 L 1044.335938 216.308594 L 1053.117188 225.089844 L 1053.117188 231.273438 L 1046.609375 237.78125 L 1015.527344 237.78125 L 976.449219 276.84375 L 976.449219 402.792969 L 975.601562 402.792969 "/>
<g clip-path="url(#clip16)" clip-rule="nonzero">
<path style=" stroke:none;fill-rule:nonzero;fill:rgb(100%,100%,100%);fill-opacity:1;" d="M 975.601562 455.089844 L 975.601562 409.40625 L 976.449219 409.40625 L 976.449219 455.089844 L 975.601562 455.089844 "/>
</g>
<path style=" stroke:none;fill-rule:nonzero;fill:rgb(100%,100%,100%);fill-opacity:1;" d="M 1036.679688 216.734375 C 1036.679688 218.285156 1035.421875 219.546875 1033.867188 219.546875 C 1032.3125 219.546875 1031.054688 218.285156 1031.054688 216.734375 C 1031.054688 215.179688 1032.3125 213.917969 1033.867188 213.917969 C 1035.421875 213.917969 1036.679688 215.179688 1036.679688 216.734375 "/>
<path style=" stroke:none;fill-rule:nonzero;fill:rgb(100%,100%,100%);fill-opacity:1;" d="M 1038.101562 216.734375 C 1038.101562 214.398438 1036.203125 212.5 1033.867188 212.5 C 1031.535156 212.5 1029.636719 214.398438 1029.636719 216.734375 C 1029.636719 219.066406 1031.535156 220.964844 1033.867188 220.964844 C 1036.203125 220.964844 1038.101562 219.066406 1038.101562 216.734375 Z M 1028.789062 216.734375 C 1028.789062 213.933594 1031.066406 211.65625 1033.867188 211.65625 C 1036.667969 211.65625 1038.945312 213.933594 1038.945312 216.734375 C 1038.945312 219.53125 1036.667969 221.808594 1033.867188 221.808594 C 1031.066406 221.808594 1028.789062 219.53125 1028.789062 216.734375 "/>
<g clip-path="url(#clip17)" clip-rule="nonzero">
<path style=" stroke:none;fill-rule:nonzero;fill:rgb(100%,100%,100%);fill-opacity:1;" d="M 985.199219 455.089844 L 985.199219 280.9375 L 1018.488281 247.652344 L 1051.730469 247.652344 L 1063.324219 236.0625 L 1063.324219 221.210938 L 1067.730469 216.808594 L 1068.328125 217.40625 L 1064.171875 221.5625 L 1064.171875 236.414062 L 1052.082031 248.496094 L 1018.839844 248.496094 L 986.042969 281.285156 L 986.042969 455.089844 L 985.199219 455.089844 "/>
</g>
<path style=" stroke:none;fill-rule:nonzero;fill:rgb(100%,100%,100%);fill-opacity:1;" d="M 1038.523438 254.175781 L 1038.523438 253.328125 L 1053.734375 253.328125 L 1069.546875 237.519531 L 1070.144531 238.117188 L 1054.085938 254.175781 L 1038.523438 254.175781 "/>
<g clip-path="url(#clip18)" clip-rule="nonzero">
<path style=" stroke:none;fill-rule:nonzero;fill:rgb(100%,100%,100%);fill-opacity:1;" d="M 990.0625 455.089844 L 990.0625 284.035156 L 1020.78125 253.328125 L 1031.890625 253.328125 L 1031.890625 254.175781 L 1021.132812 254.175781 L 990.910156 284.386719 L 990.910156 455.089844 L 990.0625 455.089844 "/>
</g>
<path style=" stroke:none;fill-rule:nonzero;fill:rgb(100%,100%,100%);fill-opacity:1;" d="M 1037.675781 253.667969 C 1037.675781 252.308594 1036.570312 251.199219 1035.207031 251.199219 C 1033.84375 251.199219 1032.738281 252.308594 1032.738281 253.667969 C 1032.738281 255.027344 1033.84375 256.136719 1035.207031 256.136719 C 1036.570312 256.136719 1037.675781 255.027344 1037.675781 253.667969 Z M 1031.042969 253.667969 C 1031.042969 251.371094 1032.914062 249.507812 1035.207031 249.507812 C 1037.5 249.507812 1039.371094 251.371094 1039.371094 253.667969 C 1039.371094 255.960938 1037.5 257.828125 1035.207031 257.828125 C 1032.914062 257.828125 1031.042969 255.960938 1031.042969 253.667969 "/>
<g clip-path="url(#clip19)" clip-rule="nonzero">
<path style=" stroke:none;fill-rule:nonzero;fill:rgb(100%,100%,100%);fill-opacity:1;" d="M 978.496094 406.109375 C 978.496094 404.746094 977.386719 403.640625 976.027344 403.640625 C 974.667969 403.640625 973.558594 404.746094 973.558594 406.109375 C 973.558594 407.46875 974.667969 408.574219 976.027344 408.574219 C 977.386719 408.574219 978.496094 407.46875 978.496094 406.109375 Z M 971.867188 406.109375 C 971.867188 403.816406 973.730469 401.949219 976.027344 401.949219 C 978.324219 401.949219 980.1875 403.816406 980.1875 406.109375 C 980.1875 408.402344 978.324219 410.265625 976.027344 410.265625 C 973.730469 410.265625 971.867188 408.402344 971.867188 406.109375 "/>
</g>
<path style=" stroke:none;fill-rule:nonzero;fill:rgb(100%,100%,100%);fill-opacity:1;" d="M 1005.210938 348.929688 C 1005.210938 350.484375 1003.953125 351.742188 1002.398438 351.742188 C 1000.84375 351.742188 999.585938 350.484375 999.585938 348.929688 C 999.585938 347.375 1000.84375 346.117188 1002.398438 346.117188 C 1003.953125 346.117188 1005.210938 347.375 1005.210938 348.929688 "/>
<path style=" stroke:none;fill-rule:nonzero;fill:rgb(100%,100%,100%);fill-opacity:1;" d="M 1005.210938 290.191406 C 1005.210938 291.746094 1003.953125 293.003906 1002.398438 293.003906 C 1000.84375 293.003906 999.585938 291.746094 999.585938 290.191406 C 999.585938 288.636719 1000.84375 287.378906 1002.398438 287.378906 C 1003.953125 287.378906 1005.210938 288.636719 1005.210938 290.191406 "/>
<path style=" stroke:none;fill-rule:nonzero;fill:rgb(100%,100%,100%);fill-opacity:1;" d="M 995.242188 342.371094 L 995.242188 295.980469 L 1001.71875 289.507812 L 1002.316406 290.109375 L 996.089844 296.332031 L 996.089844 342.023438 L 1002.699219 348.628906 L 1002.101562 349.226562 L 995.242188 342.371094 "/>
<path style=" stroke:none;fill-rule:nonzero;fill:rgb(100%,100%,100%);fill-opacity:1;" d="M 1106.742188 351.808594 L 1106.742188 335.8125 L 1107.589844 335.8125 L 1107.589844 351.457031 L 1110.894531 354.757812 L 1110.894531 361.386719 L 1110.046875 361.386719 L 1110.046875 355.109375 L 1106.742188 351.808594 "/>
<path style=" stroke:none;fill-rule:nonzero;fill:rgb(100%,100%,100%);fill-opacity:1;" d="M 1109.0625 330.484375 C 1110.355469 331.777344 1110.355469 333.878906 1109.0625 335.171875 C 1107.769531 336.464844 1105.667969 336.464844 1104.375 335.171875 C 1103.078125 333.878906 1103.078125 331.777344 1104.375 330.484375 C 1105.667969 329.191406 1107.769531 329.191406 1109.0625 330.484375 "/>
<path style=" stroke:none;fill-rule:nonzero;fill:rgb(100%,100%,100%);fill-opacity:1;" d="M 1113.316406 362.132812 C 1114.613281 363.425781 1114.613281 365.527344 1113.316406 366.820312 C 1112.023438 368.113281 1109.925781 368.113281 1108.628906 366.820312 C 1107.335938 365.527344 1107.335938 363.425781 1108.628906 362.132812 C 1109.925781 360.839844 1112.023438 360.839844 1113.316406 362.132812 "/>
<path style=" stroke:none;fill-rule:nonzero;fill:rgb(100%,100%,100%);fill-opacity:1;" d="M 1268 257.195312 L 1268 185.378906 L 1272.851562 180.53125 L 1316.867188 180.53125 L 1341.148438 156.253906 L 1341.148438 104.921875 L 1346.414062 99.652344 L 1346.414062 65.808594 L 1353.617188 58.613281 L 1353.789062 58.613281 L 1397.523438 58.71875 L 1425.417969 30.832031 L 1425.417969 -48.609375 L 1426.265625 -48.609375 L 1426.265625 31.179688 L 1397.875 59.5625 L 1397.699219 59.5625 L 1353.964844 59.457031 L 1347.261719 66.15625 L 1347.261719 100.003906 L 1341.992188 105.273438 L 1341.992188 156.605469 L 1317.214844 181.375 L 1273.203125 181.375 L 1268.847656 185.730469 L 1268.847656 257.195312 L 1268 257.195312 "/>
<path style=" stroke:none;fill-rule:nonzero;fill:rgb(100%,100%,100%);fill-opacity:1;" d="M 1270.894531 260.507812 C 1270.894531 259.148438 1269.785156 258.042969 1268.425781 258.042969 C 1267.0625 258.042969 1265.957031 259.148438 1265.957031 260.507812 C 1265.957031 261.871094 1267.0625 262.976562 1268.425781 262.976562 C 1269.785156 262.976562 1270.894531 261.871094 1270.894531 260.507812 Z M 1264.265625 260.507812 C 1264.265625 258.214844 1266.128906 256.351562 1268.425781 256.351562 C 1270.71875 256.351562 1272.585938 258.214844 1272.585938 260.507812 C 1272.585938 262.800781 1270.71875 264.671875 1268.425781 264.671875 C 1266.128906 264.671875 1264.265625 262.800781 1264.265625 260.507812 "/>
<path style=" stroke:none;fill-rule:nonzero;fill:rgb(100%,100%,100%);fill-opacity:1;" d="M 1247.367188 245.183594 C 1247.367188 243.820312 1246.261719 242.710938 1244.902344 242.710938 C 1243.539062 242.710938 1242.433594 243.820312 1242.433594 245.183594 C 1242.433594 246.539062 1243.539062 247.648438 1244.902344 247.648438 C 1246.261719 247.648438 1247.367188 246.539062 1247.367188 245.183594 Z M 1240.738281 245.183594 C 1240.738281 242.886719 1242.609375 241.019531 1244.902344 241.019531 C 1247.195312 241.019531 1249.0625 242.886719 1249.0625 245.183594 C 1249.0625 247.476562 1247.195312 249.339844 1244.902344 249.339844 C 1242.609375 249.339844 1240.738281 247.476562 1240.738281 245.183594 "/>
<path style=" stroke:none;fill-rule:nonzero;fill:rgb(100%,100%,100%);fill-opacity:1;" d="M 1248.214844 245.605469 L 1248.214844 244.757812 L 1252.210938 244.757812 L 1260.929688 236.042969 L 1260.929688 180.636719 L 1269.765625 171.800781 L 1314.09375 171.800781 L 1333.34375 152.554688 L 1333.34375 101.28125 L 1339.046875 95.578125 L 1339.046875 61.890625 L 1349.613281 51.332031 L 1394.191406 51.332031 L 1417.644531 27.886719 L 1417.644531 -48.609375 L 1418.488281 -48.609375 L 1418.488281 28.234375 L 1394.542969 52.175781 L 1349.960938 52.175781 L 1339.894531 62.242188 L 1339.894531 95.929688 L 1334.191406 101.632812 L 1334.191406 152.902344 L 1314.445312 172.644531 L 1270.117188 172.644531 L 1261.773438 180.984375 L 1261.773438 236.394531 L 1252.558594 245.605469 L 1248.214844 245.605469 "/>
<path style=" stroke:none;fill-rule:nonzero;fill:rgb(100%,100%,100%);fill-opacity:1;" d="M 1258.023438 269.359375 L 1258.023438 245.417969 L 1264.582031 238.863281 L 1264.582031 183.300781 L 1271.601562 176.28125 L 1315.617188 176.28125 L 1337.375 154.53125 L 1337.375 103.195312 L 1343.019531 97.550781 L 1343.019531 63.707031 L 1351.730469 54.996094 L 1395.746094 54.996094 L 1421.453125 29.296875 L 1421.453125 -48.609375 L 1422.296875 -48.609375 L 1422.296875 29.648438 L 1396.09375 55.84375 L 1352.082031 55.84375 L 1343.863281 64.054688 L 1343.863281 97.902344 L 1338.222656 103.542969 L 1338.222656 154.878906 L 1315.964844 177.128906 L 1271.953125 177.128906 L 1265.429688 183.648438 L 1265.429688 239.210938 L 1258.867188 245.769531 L 1258.867188 269.359375 L 1258.023438 269.359375 "/>
<path style=" stroke:none;fill-rule:nonzero;fill:rgb(100%,100%,100%);fill-opacity:1;" d="M 1255.632812 274.363281 C 1255.632812 272.816406 1256.890625 271.554688 1258.445312 271.554688 C 1260 271.554688 1261.257812 272.816406 1261.257812 274.363281 C 1261.257812 275.917969 1260 277.175781 1258.445312 277.175781 C 1256.890625 277.175781 1255.632812 275.917969 1255.632812 274.363281 "/>
<path style=" stroke:none;fill-rule:nonzero;fill:rgb(100%,100%,100%);fill-opacity:1;" d="M 1262.675781 274.363281 C 1262.675781 272.035156 1260.777344 270.132812 1258.445312 270.132812 C 1256.109375 270.132812 1254.214844 272.035156 1254.214844 274.363281 C 1254.214844 276.699219 1256.109375 278.59375 1258.445312 278.59375 C 1260.777344 278.59375 1262.675781 276.699219 1262.675781 274.363281 Z M 1253.367188 274.363281 C 1253.367188 271.566406 1255.644531 269.289062 1258.445312 269.289062 C 1261.246094 269.289062 1263.523438 271.566406 1263.523438 274.363281 C 1263.523438 277.167969 1261.246094 279.441406 1258.445312 279.441406 C 1255.644531 279.441406 1253.367188 277.167969 1253.367188 274.363281 "/>
<path style=" stroke:none;fill-rule:nonzero;fill:rgb(100%,100%,100%);fill-opacity:1;" d="M 1276.433594 205.753906 C 1276.433594 204.394531 1275.324219 203.285156 1273.960938 203.285156 C 1272.601562 203.285156 1271.492188 204.394531 1271.492188 205.753906 C 1271.492188 207.117188 1272.601562 208.226562 1273.960938 208.226562 C 1275.324219 208.226562 1276.433594 207.117188 1276.433594 205.753906 Z M 1269.800781 205.753906 C 1269.800781 203.460938 1271.667969 201.59375 1273.960938 201.59375 C 1276.257812 201.59375 1278.125 203.460938 1278.125 205.753906 C 1278.125 208.050781 1276.257812 209.917969 1273.960938 209.917969 C 1271.667969 209.917969 1269.800781 208.050781 1269.800781 205.753906 "/>
<path style=" stroke:none;fill-rule:nonzero;fill:rgb(100%,100%,100%);fill-opacity:1;" d="M 1433.75 31.035156 C 1433.75 29.671875 1432.640625 28.566406 1431.28125 28.566406 C 1429.917969 28.566406 1428.8125 29.671875 1428.8125 31.035156 C 1428.8125 32.394531 1429.917969 33.5 1431.28125 33.5 C 1432.640625 33.5 1433.75 32.394531 1433.75 31.035156 Z M 1427.117188 31.035156 C 1427.117188 28.742188 1428.988281 26.875 1431.28125 26.875 C 1433.578125 26.875 1435.441406 28.742188 1435.441406 31.035156 C 1435.441406 33.328125 1433.578125 35.195312 1431.28125 35.195312 C 1428.988281 35.195312 1427.117188 33.328125 1427.117188 31.035156 "/>
<path style=" stroke:none;fill-rule:nonzero;fill:rgb(100%,100%,100%);fill-opacity:1;" d="M 1273.539062 203.242188 L 1273.539062 184.53125 L 1319.070312 184.53125 L 1345.167969 158.441406 L 1345.167969 106.722656 L 1350.300781 101.589844 L 1350.300781 67.796875 L 1355.96875 62.128906 L 1399.480469 62.128906 L 1428.914062 32.703125 L 1429.515625 33.300781 L 1399.832031 62.976562 L 1356.320312 62.976562 L 1351.144531 68.148438 L 1351.144531 101.941406 L 1346.015625 107.070312 L 1346.015625 158.792969 L 1319.421875 185.378906 L 1274.386719 185.378906 L 1274.386719 203.242188 L 1273.539062 203.242188 "/>
<path style=" stroke:none;fill-rule:nonzero;fill:rgb(100%,100%,100%);fill-opacity:1;" d="M 1273.660156 195.617188 L 1274.257812 195.019531 L 1280.417969 201.175781 L 1280.417969 222.820312 L 1279.570312 222.820312 L 1279.570312 201.523438 L 1273.660156 195.617188 "/>
<path style=" stroke:none;fill-rule:nonzero;fill:rgb(100%,100%,100%);fill-opacity:1;" d="M 1217.886719 138.226562 L 1217.886719 137.382812 L 1222.054688 137.382812 L 1248.390625 163.707031 L 1254.394531 163.707031 L 1261.582031 156.523438 L 1283.25 156.523438 L 1290.574219 163.84375 L 1310.511719 163.84375 L 1324.90625 149.453125 L 1324.90625 103.707031 L 1335.292969 93.320312 L 1335.292969 60.214844 L 1347.78125 47.734375 L 1392.710938 47.734375 L 1414.113281 26.335938 L 1414.113281 -48.609375 L 1414.960938 -48.609375 L 1414.960938 26.683594 L 1393.058594 48.582031 L 1348.128906 48.582031 L 1336.136719 60.566406 L 1336.136719 93.671875 L 1325.753906 104.058594 L 1325.753906 149.804688 L 1310.859375 164.691406 L 1290.222656 164.691406 L 1282.898438 157.367188 L 1261.933594 157.367188 L 1254.746094 164.554688 L 1248.039062 164.554688 L 1221.707031 138.226562 L 1217.886719 138.226562 "/>
<path style=" stroke:none;fill-rule:nonzero;fill:rgb(100%,100%,100%);fill-opacity:1;" d="M 1322.207031 127.34375 C 1322.207031 125.515625 1323.691406 124.03125 1325.523438 124.03125 C 1327.351562 124.03125 1328.835938 125.515625 1328.835938 127.34375 C 1328.835938 129.175781 1327.351562 130.660156 1325.523438 130.660156 C 1323.691406 130.660156 1322.207031 129.175781 1322.207031 127.34375 "/>
<path style=" stroke:none;fill-rule:nonzero;fill:rgb(100%,100%,100%);fill-opacity:1;" d="M 1247.792969 187.421875 L 1247.792969 167.1875 L 1255.871094 167.1875 L 1263.558594 159.496094 L 1281.542969 159.496094 L 1288.738281 166.691406 L 1311.136719 166.691406 L 1311.136719 167.535156 L 1288.386719 167.535156 L 1281.191406 160.34375 L 1263.910156 160.34375 L 1256.21875 168.03125 L 1248.636719 168.03125 L 1248.636719 187.421875 L 1247.792969 187.421875 "/>
<path style=" stroke:none;fill-rule:nonzero;fill:rgb(100%,100%,100%);fill-opacity:1;" d="M 1210.417969 138.703125 C 1210.417969 137.148438 1211.675781 135.890625 1213.230469 135.890625 C 1214.785156 135.890625 1216.042969 137.148438 1216.042969 138.703125 C 1216.042969 140.257812 1214.785156 141.515625 1213.230469 141.515625 C 1211.675781 141.515625 1210.417969 140.257812 1210.417969 138.703125 "/>
<path style=" stroke:none;fill-rule:nonzero;fill:rgb(100%,100%,100%);fill-opacity:1;" d="M 1217.464844 138.703125 C 1217.464844 136.371094 1215.566406 134.472656 1213.230469 134.472656 C 1210.898438 134.472656 1209 136.371094 1209 138.703125 C 1209 141.039062 1210.898438 142.933594 1213.230469 142.933594 C 1215.566406 142.933594 1217.464844 141.039062 1217.464844 138.703125 Z M 1208.152344 138.703125 C 1208.152344 135.902344 1210.429688 133.625 1213.230469 133.625 C 1216.03125 133.625 1218.308594 135.902344 1218.308594 138.703125 C 1218.308594 141.503906 1216.03125 143.78125 1213.230469 143.78125 C 1210.429688 143.78125 1208.152344 141.503906 1208.152344 138.703125 "/>
<path style=" stroke:none;fill-rule:nonzero;fill:rgb(100%,100%,100%);fill-opacity:1;" d="M 1245.402344 189.398438 C 1245.402344 187.84375 1246.660156 186.585938 1248.214844 186.585938 C 1249.769531 186.585938 1251.027344 187.84375 1251.027344 189.398438 C 1251.027344 190.949219 1249.769531 192.210938 1248.214844 192.210938 C 1246.660156 192.210938 1245.402344 190.949219 1245.402344 189.398438 "/>
<path style=" stroke:none;fill-rule:nonzero;fill:rgb(100%,100%,100%);fill-opacity:1;" d="M 1389.78125 35.402344 L 1395.882812 29.300781 L 1404.660156 29.300781 L 1410.304688 23.65625 L 1410.304688 -48.609375 L 1411.152344 -48.609375 L 1411.152344 24.003906 L 1405.007812 30.144531 L 1396.234375 30.144531 L 1390.378906 36 L 1389.78125 35.402344 "/>
<path style=" stroke:none;fill-rule:nonzero;fill:rgb(100%,100%,100%);fill-opacity:1;" d="M 1390.558594 37.664062 C 1390.558594 36.300781 1389.449219 35.195312 1388.085938 35.195312 C 1386.730469 35.195312 1385.621094 36.300781 1385.621094 37.664062 C 1385.621094 39.023438 1386.730469 40.132812 1388.085938 40.132812 C 1389.449219 40.132812 1390.558594 39.023438 1390.558594 37.664062 Z M 1383.929688 37.664062 C 1383.929688 35.367188 1385.792969 33.5 1388.085938 33.5 C 1390.382812 33.5 1392.25 35.367188 1392.25 37.664062 C 1392.25 39.957031 1390.382812 41.824219 1388.085938 41.824219 C 1385.792969 41.824219 1383.929688 39.957031 1383.929688 37.664062 "/>
<path style=" stroke:none;fill-rule:nonzero;fill:rgb(100%,100%,100%);fill-opacity:1;" d="M 1343.113281 41.144531 L 1343.113281 40.300781 L 1346.574219 40.300781 L 1350.632812 44.359375 L 1372.367188 44.359375 L 1391.226562 25.503906 L 1401.96875 25.503906 L 1406.535156 20.941406 L 1406.535156 -48.609375 L 1407.378906 -48.609375 L 1407.378906 21.292969 L 1402.316406 26.351562 L 1391.578125 26.351562 L 1372.71875 45.207031 L 1350.28125 45.207031 L 1346.222656 41.144531 L 1343.113281 41.144531 "/>
<path style=" stroke:none;fill-rule:nonzero;fill:rgb(100%,100%,100%);fill-opacity:1;" d="M 1335.644531 40.976562 C 1335.644531 39.425781 1336.90625 38.164062 1338.460938 38.164062 C 1340.011719 38.164062 1341.273438 39.425781 1341.273438 40.976562 C 1341.273438 42.53125 1340.011719 43.789062 1338.460938 43.789062 C 1336.90625 43.789062 1335.644531 42.53125 1335.644531 40.976562 "/>
<path style=" stroke:none;fill-rule:nonzero;fill:rgb(100%,100%,100%);fill-opacity:1;" d="M 1342.691406 40.976562 C 1342.691406 38.644531 1340.792969 36.746094 1338.460938 36.746094 C 1336.125 36.746094 1334.226562 38.644531 1334.226562 40.976562 C 1334.226562 43.3125 1336.125 45.207031 1338.460938 45.207031 C 1340.792969 45.207031 1342.691406 43.3125 1342.691406 40.976562 Z M 1333.378906 40.976562 C 1333.378906 38.179688 1335.660156 35.902344 1338.460938 35.902344 C 1341.257812 35.902344 1343.539062 38.179688 1343.539062 40.976562 C 1343.539062 43.777344 1341.257812 46.054688 1338.460938 46.054688 C 1335.660156 46.054688 1333.378906 43.777344 1333.378906 40.976562 "/>
<path style=" stroke:none;fill-rule:nonzero;fill:rgb(100%,100%,100%);fill-opacity:1;" d="M 1258.445312 151.882812 L 1258.445312 151.035156 L 1284.46875 151.035156 L 1292.6875 159.253906 L 1309.160156 159.253906 L 1321.785156 146.628906 L 1321.785156 134.050781 L 1322.632812 134.050781 L 1322.632812 146.980469 L 1309.511719 160.097656 L 1292.339844 160.097656 L 1284.121094 151.882812 L 1258.445312 151.882812 "/>
<path style=" stroke:none;fill-rule:nonzero;fill:rgb(100%,100%,100%);fill-opacity:1;" d="M 1383.839844 14.75 L 1384.4375 14.152344 L 1392.425781 22.136719 L 1399.691406 22.136719 L 1402.40625 19.421875 L 1402.40625 -48.609375 L 1403.253906 -48.609375 L 1403.253906 19.773438 L 1400.042969 22.984375 L 1392.074219 22.984375 L 1383.839844 14.75 "/>
<path style=" stroke:none;fill-rule:nonzero;fill:rgb(100%,100%,100%);fill-opacity:1;" d="M 1379.148438 12.828125 C 1379.148438 11.277344 1380.40625 10.015625 1381.960938 10.015625 C 1383.515625 10.015625 1384.773438 11.277344 1384.773438 12.828125 C 1384.773438 14.382812 1383.515625 15.640625 1381.960938 15.640625 C 1380.40625 15.640625 1379.148438 14.382812 1379.148438 12.828125 "/>
<path style=" stroke:none;fill-rule:nonzero;fill:rgb(100%,100%,100%);fill-opacity:1;" d="M 1277.179688 227.453125 C 1277.179688 225.898438 1278.4375 224.640625 1279.992188 224.640625 C 1281.546875 224.640625 1282.804688 225.898438 1282.804688 227.453125 C 1282.804688 229.003906 1281.546875 230.265625 1279.992188 230.265625 C 1278.4375 230.265625 1277.179688 229.003906 1277.179688 227.453125 "/>
<path style=" stroke:none;fill-rule:nonzero;fill:rgb(100%,100%,100%);fill-opacity:1;" d="M 1284.226562 227.453125 C 1284.226562 225.117188 1282.328125 223.222656 1279.992188 223.222656 C 1277.660156 223.222656 1275.761719 225.117188 1275.761719 227.453125 C 1275.761719 229.785156 1277.660156 231.683594 1279.992188 231.683594 C 1282.328125 231.683594 1284.226562 229.785156 1284.226562 227.453125 Z M 1274.914062 227.453125 C 1274.914062 224.652344 1277.191406 222.375 1279.992188 222.375 C 1282.792969 222.375 1285.070312 224.652344 1285.070312 227.453125 C 1285.070312 230.25 1282.792969 232.527344 1279.992188 232.527344 C 1277.191406 232.527344 1274.914062 230.25 1274.914062 227.453125 "/>
<path style=" stroke:none;fill-rule:nonzero;fill:rgb(100%,100%,100%);fill-opacity:1;" d="M 1320.558594 89.882812 L 1329.113281 81.335938 L 1329.113281 -48.609375 L 1329.957031 -48.609375 L 1329.957031 81.6875 L 1321.15625 90.480469 L 1320.558594 89.882812 "/>
<path style=" stroke:none;fill-rule:nonzero;fill:rgb(100%,100%,100%);fill-opacity:1;" d="M 1320.664062 92.785156 C 1320.664062 91.425781 1319.558594 90.320312 1318.199219 90.320312 C 1316.835938 90.320312 1315.726562 91.425781 1315.726562 92.785156 C 1315.726562 94.148438 1316.835938 95.253906 1318.199219 95.253906 C 1319.558594 95.253906 1320.664062 94.148438 1320.664062 92.785156 Z M 1314.035156 92.785156 C 1314.035156 90.492188 1315.898438 88.628906 1318.199219 88.628906 C 1320.492188 88.628906 1322.355469 90.492188 1322.355469 92.785156 C 1322.355469 95.078125 1320.492188 96.945312 1318.199219 96.945312 C 1315.898438 96.945312 1314.035156 95.078125 1314.035156 92.785156 "/>
<path style=" stroke:none;fill-rule:nonzero;fill:rgb(100%,100%,100%);fill-opacity:1;" d="M 1430.859375 27.71875 L 1430.859375 -48.609375 L 1431.703125 -48.609375 L 1431.703125 27.71875 L 1430.859375 27.71875 "/>
<path style=" stroke:none;fill-rule:nonzero;fill:rgb(100%,100%,100%);fill-opacity:1;" d="M 1350.746094 158.089844 L 1350.746094 112.613281 L 1356.433594 106.933594 L 1356.433594 74.300781 L 1362.027344 68.703125 L 1403.5 68.703125 L 1436.6875 35.527344 L 1436.6875 -48.609375 L 1437.535156 -48.609375 L 1437.535156 35.878906 L 1403.851562 69.550781 L 1362.378906 69.550781 L 1357.277344 74.648438 L 1357.277344 107.28125 L 1351.59375 112.964844 L 1351.59375 158.089844 L 1350.746094 158.089844 "/>
<path style=" stroke:none;fill-rule:nonzero;fill:rgb(100%,100%,100%);fill-opacity:1;" d="M 1375.835938 69.074219 C 1375.835938 67.242188 1377.316406 65.757812 1379.148438 65.757812 C 1380.980469 65.757812 1382.464844 67.242188 1382.464844 69.074219 C 1382.464844 70.902344 1380.980469 72.386719 1379.148438 72.386719 C 1377.316406 72.386719 1375.835938 70.902344 1375.835938 69.074219 "/>
<path style=" stroke:none;fill-rule:nonzero;fill:rgb(100%,100%,100%);fill-opacity:1;" d="M 1361.082031 106.753906 L 1361.082031 76.117188 L 1364.6875 72.511719 L 1375.035156 72.511719 L 1375.035156 73.355469 L 1365.039062 73.355469 L 1361.925781 76.46875 L 1361.925781 106.753906 L 1361.082031 106.753906 "/>
<path style=" stroke:none;fill-rule:nonzero;fill:rgb(100%,100%,100%);fill-opacity:1;" d="M 1358.691406 111.21875 C 1358.691406 109.667969 1359.949219 108.40625 1361.503906 108.40625 C 1363.058594 108.40625 1364.316406 109.667969 1364.316406 111.21875 C 1364.316406 112.773438 1363.058594 114.03125 1361.503906 114.03125 C 1359.949219 114.03125 1358.691406 112.773438 1358.691406 111.21875 "/>
<path style=" stroke:none;fill-rule:nonzero;fill:rgb(100%,100%,100%);fill-opacity:1;" d="M 1365.738281 111.21875 C 1365.738281 108.890625 1363.839844 106.988281 1361.503906 106.988281 C 1359.171875 106.988281 1357.273438 108.890625 1357.273438 111.21875 C 1357.273438 113.554688 1359.171875 115.449219 1361.503906 115.449219 C 1363.839844 115.449219 1365.738281 113.554688 1365.738281 111.21875 Z M 1356.425781 111.21875 C 1356.425781 108.421875 1358.703125 106.144531 1361.503906 106.144531 C 1364.304688 106.144531 1366.582031 108.421875 1366.582031 111.21875 C 1366.582031 114.019531 1364.304688 116.296875 1361.503906 116.296875 C 1358.703125 116.296875 1356.425781 114.019531 1356.425781 111.21875 "/>
<path style=" stroke:none;fill-rule:nonzero;fill:rgb(100%,100%,100%);fill-opacity:1;" d="M 1320.160156 51.71875 L 1320.160156 45.089844 L 1321.007812 45.089844 L 1321.007812 51.371094 L 1324.3125 54.671875 L 1324.3125 70.667969 L 1323.464844 70.667969 L 1323.464844 55.023438 L 1320.160156 51.71875 "/>
<path style=" stroke:none;fill-rule:nonzero;fill:rgb(100%,100%,100%);fill-opacity:1;" d="M 1321.988281 75.996094 C 1320.699219 74.699219 1320.699219 72.601562 1321.988281 71.308594 C 1323.285156 70.011719 1325.386719 70.011719 1326.679688 71.308594 C 1327.976562 72.601562 1327.976562 74.699219 1326.679688 75.996094 C 1325.386719 77.285156 1323.285156 77.285156 1321.988281 75.996094 "/>
<path style=" stroke:none;fill-rule:nonzero;fill:rgb(100%,100%,100%);fill-opacity:1;" d="M 1317.738281 44.347656 C 1316.441406 43.054688 1316.441406 40.953125 1317.738281 39.664062 C 1319.03125 38.367188 1321.128906 38.367188 1322.425781 39.664062 C 1323.71875 40.953125 1323.71875 43.054688 1322.425781 44.347656 C 1321.128906 45.640625 1319.03125 45.640625 1317.738281 44.347656 "/>
<path style=" stroke:none;fill-rule:nonzero;fill:rgb(100%,100%,100%);fill-opacity:1;" d="M 1225.003906 32.234375 L 1225.003906 21.3125 L 1234.351562 11.96875 L 1234.351562 -8.410156 L 1235.199219 -8.410156 L 1235.199219 12.316406 L 1225.851562 21.660156 L 1225.851562 31.886719 L 1235.625 41.65625 L 1267.5 41.65625 L 1303.859375 78.003906 L 1303.859375 159.757812 L 1303.011719 159.757812 L 1303.011719 78.355469 L 1267.148438 42.5 L 1235.273438 42.5 L 1225.003906 32.234375 "/>
<path style=" stroke:none;fill-rule:nonzero;fill:rgb(100%,100%,100%);fill-opacity:1;" d="M 1300.121094 90.027344 C 1300.121094 91.855469 1301.605469 93.339844 1303.433594 93.339844 C 1305.265625 93.339844 1306.75 91.855469 1306.75 90.027344 C 1306.75 88.199219 1305.265625 86.714844 1303.433594 86.714844 C 1301.605469 86.714844 1300.121094 88.199219 1300.121094 90.027344 "/>
<path style=" stroke:none;fill-rule:nonzero;fill:rgb(100%,100%,100%);fill-opacity:1;" d="M 1210.984375 13.84375 C 1210.984375 15.675781 1212.46875 17.160156 1214.296875 17.160156 C 1216.128906 17.160156 1217.613281 15.675781 1217.613281 13.84375 C 1217.613281 12.011719 1216.128906 10.527344 1214.296875 10.527344 C 1212.46875 10.527344 1210.984375 12.011719 1210.984375 13.84375 "/>
<path style=" stroke:none;fill-rule:nonzero;fill:rgb(100%,100%,100%);fill-opacity:1;" d="M 1231.425781 30.316406 L 1231.425781 24.132812 L 1240.203125 15.355469 L 1246.441406 15.355469 L 1246.441406 16.199219 L 1240.554688 16.199219 L 1232.273438 24.484375 L 1232.273438 29.96875 L 1238.28125 35.976562 L 1269.367188 35.976562 L 1308.9375 75.539062 L 1308.9375 107.457031 L 1308.089844 107.457031 L 1308.089844 75.890625 L 1269.015625 36.828125 L 1237.933594 36.828125 L 1231.425781 30.316406 "/>
<path style=" stroke:none;fill-rule:nonzero;fill:rgb(100%,100%,100%);fill-opacity:1;" d="M 1308.089844 159.757812 L 1308.089844 114.074219 L 1308.9375 114.074219 L 1308.9375 159.757812 L 1308.089844 159.757812 "/>
<path style=" stroke:none;fill-rule:nonzero;fill:rgb(100%,100%,100%);fill-opacity:1;" d="M 1247.863281 15.777344 C 1247.863281 17.332031 1249.121094 18.589844 1250.675781 18.589844 C 1252.230469 18.589844 1253.488281 17.332031 1253.488281 15.777344 C 1253.488281 14.222656 1252.230469 12.964844 1250.675781 12.964844 C 1249.121094 12.964844 1247.863281 14.222656 1247.863281 15.777344 "/>
<path style=" stroke:none;fill-rule:nonzero;fill:rgb(100%,100%,100%);fill-opacity:1;" d="M 1254.90625 15.777344 C 1254.90625 13.449219 1253.007812 11.546875 1250.675781 11.546875 C 1248.339844 11.546875 1246.441406 13.449219 1246.441406 15.777344 C 1246.441406 18.113281 1248.339844 20.007812 1250.675781 20.007812 C 1253.007812 20.007812 1254.90625 18.113281 1254.90625 15.777344 Z M 1245.597656 15.777344 C 1245.597656 12.976562 1247.875 10.699219 1250.675781 10.699219 C 1253.476562 10.699219 1255.753906 12.976562 1255.753906 15.777344 C 1255.753906 18.578125 1253.476562 20.855469 1250.675781 20.855469 C 1247.875 20.855469 1245.597656 18.578125 1245.597656 15.777344 "/>
<path style=" stroke:none;fill-rule:nonzero;fill:rgb(100%,100%,100%);fill-opacity:1;" d="M 1216.214844 16.453125 L 1216.8125 15.855469 L 1221.21875 20.257812 L 1221.21875 35.109375 L 1232.8125 46.695312 L 1266.054688 46.695312 L 1299.34375 79.980469 L 1299.34375 159.757812 L 1298.5 159.757812 L 1298.5 80.332031 L 1265.703125 47.542969 L 1232.460938 47.542969 L 1220.371094 35.457031 L 1220.371094 20.605469 L 1216.214844 16.453125 "/>
<path style=" stroke:none;fill-rule:nonzero;fill:rgb(100%,100%,100%);fill-opacity:1;" d="M 1214.398438 37.164062 L 1214.996094 36.566406 L 1230.808594 52.375 L 1246.019531 52.375 L 1246.019531 53.222656 L 1230.457031 53.222656 L 1214.398438 37.164062 "/>
<path style=" stroke:none;fill-rule:nonzero;fill:rgb(100%,100%,100%);fill-opacity:1;" d="M 1252.648438 53.222656 L 1252.648438 52.375 L 1263.761719 52.375 L 1294.476562 83.082031 L 1294.476562 159.757812 L 1293.632812 159.757812 L 1293.632812 83.429688 L 1263.410156 53.222656 L 1252.648438 53.222656 "/>
<path style=" stroke:none;fill-rule:nonzero;fill:rgb(100%,100%,100%);fill-opacity:1;" d="M 1251.804688 52.710938 C 1251.804688 51.351562 1250.695312 50.246094 1249.335938 50.246094 C 1247.972656 50.246094 1246.867188 51.351562 1246.867188 52.710938 C 1246.867188 54.074219 1247.972656 55.179688 1249.335938 55.179688 C 1250.695312 55.179688 1251.804688 54.074219 1251.804688 52.710938 Z M 1245.171875 52.710938 C 1245.171875 50.417969 1247.042969 48.554688 1249.335938 48.554688 C 1251.632812 48.554688 1253.496094 50.417969 1253.496094 52.710938 C 1253.496094 55.007812 1251.632812 56.875 1249.335938 56.875 C 1247.042969 56.875 1245.171875 55.007812 1245.171875 52.710938 "/>
<path style=" stroke:none;fill-rule:nonzero;fill:rgb(100%,100%,100%);fill-opacity:1;" d="M 1310.984375 110.773438 C 1310.984375 109.414062 1309.875 108.304688 1308.511719 108.304688 C 1307.15625 108.304688 1306.046875 109.414062 1306.046875 110.773438 C 1306.046875 112.136719 1307.15625 113.242188 1308.511719 113.242188 C 1309.875 113.242188 1310.984375 112.136719 1310.984375 110.773438 Z M 1304.355469 110.773438 C 1304.355469 108.480469 1306.21875 106.613281 1308.511719 106.613281 C 1310.8125 106.613281 1312.675781 108.480469 1312.675781 110.773438 C 1312.675781 113.066406 1310.8125 114.933594 1308.511719 114.933594 C 1306.21875 114.933594 1304.355469 113.066406 1304.355469 110.773438 "/>
<path style=" stroke:none;fill-rule:nonzero;fill:rgb(100%,100%,100%);fill-opacity:1;" d="M 1279.332031 113.269531 C 1279.332031 114.824219 1280.589844 116.082031 1282.144531 116.082031 C 1283.695312 116.082031 1284.957031 114.824219 1284.957031 113.269531 C 1284.957031 111.714844 1283.695312 110.457031 1282.144531 110.457031 C 1280.589844 110.457031 1279.332031 111.714844 1279.332031 113.269531 "/>
<path style=" stroke:none;fill-rule:nonzero;fill:rgb(100%,100%,100%);fill-opacity:1;" d="M 1279.332031 89.234375 C 1279.332031 90.789062 1280.589844 92.046875 1282.144531 92.046875 C 1283.695312 92.046875 1284.957031 90.789062 1284.957031 89.234375 C 1284.957031 87.683594 1283.695312 86.421875 1282.144531 86.421875 C 1280.589844 86.421875 1279.332031 87.683594 1279.332031 89.234375 "/>
<path style=" stroke:none;fill-rule:nonzero;fill:rgb(100%,100%,100%);fill-opacity:1;" d="M 1281.84375 112.972656 L 1288.453125 106.363281 L 1288.453125 95.378906 L 1282.222656 89.152344 L 1282.824219 88.554688 L 1289.300781 95.027344 L 1289.300781 106.714844 L 1282.441406 113.570312 L 1281.84375 112.972656 "/>
<path style=" stroke:none;fill-rule:nonzero;fill:rgb(100%,100%,100%);fill-opacity:1;" d="M 1380.011719 154.273438 L 1380.011719 72.523438 L 1380.859375 72.523438 L 1380.859375 153.925781 L 1416.726562 189.78125 L 1448.601562 189.78125 L 1458.867188 200.042969 L 1458.867188 210.96875 L 1449.519531 220.3125 L 1449.519531 240.691406 L 1448.671875 240.691406 L 1448.671875 219.960938 L 1458.019531 210.617188 L 1458.019531 200.394531 L 1448.25 190.628906 L 1416.375 190.628906 L 1380.011719 154.273438 "/>
<path style=" stroke:none;fill-rule:nonzero;fill:rgb(100%,100%,100%);fill-opacity:1;" d="M 1383.753906 142.253906 C 1383.753906 140.421875 1382.269531 138.941406 1380.4375 138.941406 C 1378.605469 138.941406 1377.121094 140.421875 1377.121094 142.253906 C 1377.121094 144.085938 1378.605469 145.570312 1380.4375 145.570312 C 1382.269531 145.570312 1383.753906 144.085938 1383.753906 142.253906 "/>
<g clip-path="url(#clip20)" clip-rule="nonzero">
<path style=" stroke:none;fill-rule:nonzero;fill:rgb(100%,100%,100%);fill-opacity:1;" d="M 1472.890625 218.433594 C 1472.890625 216.605469 1471.40625 215.121094 1469.574219 215.121094 C 1467.746094 215.121094 1466.261719 216.605469 1466.261719 218.433594 C 1466.261719 220.265625 1467.746094 221.75 1469.574219 221.75 C 1471.40625 221.75 1472.890625 220.265625 1472.890625 218.433594 "/>
</g>
<path style=" stroke:none;fill-rule:nonzero;fill:rgb(100%,100%,100%);fill-opacity:1;" d="M 1451.550781 244.003906 C 1451.550781 242.648438 1450.441406 241.535156 1449.078125 241.535156 C 1447.71875 241.535156 1446.609375 242.648438 1446.609375 244.003906 C 1446.609375 245.367188 1447.71875 246.472656 1449.078125 246.472656 C 1450.441406 246.472656 1451.550781 245.367188 1451.550781 244.003906 Z M 1444.917969 244.003906 C 1444.917969 241.710938 1446.785156 239.84375 1449.078125 239.84375 C 1451.375 239.84375 1453.242188 241.710938 1453.242188 244.003906 C 1453.242188 246.300781 1451.375 248.167969 1449.078125 248.167969 C 1446.785156 248.167969 1444.917969 246.300781 1444.917969 244.003906 "/>
<path style=" stroke:none;fill-rule:nonzero;fill:rgb(100%,100%,100%);fill-opacity:1;" d="M 1374.933594 156.742188 L 1374.933594 124.820312 L 1375.78125 124.820312 L 1375.78125 156.394531 L 1414.855469 195.457031 L 1445.9375 195.457031 L 1452.449219 201.964844 L 1452.449219 208.148438 L 1443.667969 216.925781 L 1437.429688 216.925781 L 1437.429688 216.078125 L 1443.316406 216.078125 L 1451.601562 207.796875 L 1451.601562 202.316406 L 1445.589844 196.300781 L 1414.503906 196.300781 L 1374.933594 156.742188 "/>
<path style=" stroke:none;fill-rule:nonzero;fill:rgb(100%,100%,100%);fill-opacity:1;" d="M 1374.933594 118.203125 L 1374.933594 72.523438 L 1375.78125 72.523438 L 1375.78125 118.203125 L 1374.933594 118.203125 "/>
<path style=" stroke:none;fill-rule:nonzero;fill:rgb(100%,100%,100%);fill-opacity:1;" d="M 1436.007812 216.5 C 1436.007812 214.949219 1434.75 213.6875 1433.195312 213.6875 C 1431.644531 213.6875 1430.382812 214.949219 1430.382812 216.5 C 1430.382812 218.054688 1431.644531 219.3125 1433.195312 219.3125 C 1434.75 219.3125 1436.007812 218.054688 1436.007812 216.5 "/>
<path style=" stroke:none;fill-rule:nonzero;fill:rgb(100%,100%,100%);fill-opacity:1;" d="M 1437.429688 216.5 C 1437.429688 214.171875 1435.53125 212.269531 1433.195312 212.269531 C 1430.863281 212.269531 1428.964844 214.171875 1428.964844 216.5 C 1428.964844 218.835938 1430.863281 220.730469 1433.195312 220.730469 C 1435.53125 220.730469 1437.429688 218.835938 1437.429688 216.5 Z M 1428.117188 216.5 C 1428.117188 213.703125 1430.394531 211.425781 1433.195312 211.425781 C 1436 211.425781 1438.273438 213.703125 1438.273438 216.5 C 1438.273438 219.300781 1436 221.578125 1433.195312 221.578125 C 1430.394531 221.578125 1428.117188 219.300781 1428.117188 216.5 "/>
<path style=" stroke:none;fill-rule:nonzero;fill:rgb(100%,100%,100%);fill-opacity:1;" d="M 1384.527344 152.300781 L 1384.527344 72.523438 L 1385.371094 72.523438 L 1385.371094 151.953125 L 1418.171875 184.738281 L 1451.414062 184.738281 L 1463.503906 196.824219 L 1463.503906 211.671875 L 1467.65625 215.832031 L 1467.058594 216.429688 L 1462.65625 212.023438 L 1462.65625 197.175781 L 1451.0625 185.582031 L 1417.820312 185.582031 L 1384.527344 152.300781 "/>
<path style=" stroke:none;fill-rule:nonzero;fill:rgb(100%,100%,100%);fill-opacity:1;" d="M 1437.851562 179.90625 L 1437.851562 179.0625 L 1453.417969 179.0625 L 1469.476562 195.117188 L 1468.878906 195.714844 L 1453.066406 179.90625 L 1437.851562 179.90625 "/>
<path style=" stroke:none;fill-rule:nonzero;fill:rgb(100%,100%,100%);fill-opacity:1;" d="M 1389.394531 149.199219 L 1389.394531 72.523438 L 1390.238281 72.523438 L 1390.238281 148.847656 L 1420.464844 179.0625 L 1431.222656 179.0625 L 1431.222656 179.90625 L 1420.113281 179.90625 L 1389.394531 149.199219 "/>
<path style=" stroke:none;fill-rule:nonzero;fill:rgb(100%,100%,100%);fill-opacity:1;" d="M 1437.003906 179.566406 C 1437.003906 178.207031 1435.902344 177.097656 1434.539062 177.097656 C 1433.175781 177.097656 1432.070312 178.207031 1432.070312 179.566406 C 1432.070312 180.929688 1433.175781 182.035156 1434.539062 182.035156 C 1435.902344 182.035156 1437.003906 180.929688 1437.003906 179.566406 Z M 1430.375 179.566406 C 1430.375 177.273438 1432.242188 175.40625 1434.539062 175.40625 C 1436.832031 175.40625 1438.699219 177.273438 1438.699219 179.566406 C 1438.699219 181.863281 1436.832031 183.730469 1434.539062 183.730469 C 1432.242188 183.730469 1430.375 181.863281 1430.375 179.566406 "/>
<path style=" stroke:none;fill-rule:nonzero;fill:rgb(100%,100%,100%);fill-opacity:1;" d="M 1377.828125 121.507812 C 1377.828125 120.144531 1376.71875 119.039062 1375.359375 119.039062 C 1373.996094 119.039062 1372.886719 120.144531 1372.886719 121.507812 C 1372.886719 122.867188 1373.996094 123.976562 1375.359375 123.976562 C 1376.71875 123.976562 1377.828125 122.867188 1377.828125 121.507812 Z M 1371.195312 121.507812 C 1371.195312 119.210938 1373.0625 117.347656 1375.359375 117.347656 C 1377.652344 117.347656 1379.519531 119.210938 1379.519531 121.507812 C 1379.519531 123.800781 1377.652344 125.667969 1375.359375 125.667969 C 1373.0625 125.667969 1371.195312 123.800781 1371.195312 121.507812 "/>
<path style=" stroke:none;fill-rule:nonzero;fill:rgb(100%,100%,100%);fill-opacity:1;" d="M 1404.542969 119.011719 C 1404.542969 117.457031 1403.285156 116.199219 1401.730469 116.199219 C 1400.175781 116.199219 1398.914062 117.457031 1398.914062 119.011719 C 1398.914062 120.5625 1400.175781 121.824219 1401.730469 121.824219 C 1403.285156 121.824219 1404.542969 120.5625 1404.542969 119.011719 "/>
<path style=" stroke:none;fill-rule:nonzero;fill:rgb(100%,100%,100%);fill-opacity:1;" d="M 1404.542969 143.046875 C 1404.542969 141.492188 1403.285156 140.234375 1401.730469 140.234375 C 1400.175781 140.234375 1398.914062 141.492188 1398.914062 143.046875 C 1398.914062 144.601562 1400.175781 145.855469 1401.730469 145.855469 C 1403.285156 145.855469 1404.542969 144.601562 1404.542969 143.046875 "/>
<path style=" stroke:none;fill-rule:nonzero;fill:rgb(100%,100%,100%);fill-opacity:1;" d="M 1394.574219 137.253906 L 1394.574219 125.566406 L 1401.429688 118.710938 L 1402.027344 119.3125 L 1395.421875 125.917969 L 1395.421875 136.902344 L 1401.648438 143.128906 L 1401.046875 143.726562 L 1394.574219 137.253906 "/>
</g>
</svg>
