<?xml version="1.0" encoding="UTF-8"?>
<svg xmlns="http://www.w3.org/2000/svg" xmlns:xlink="http://www.w3.org/1999/xlink" width="1560pt" height="599.999999pt" viewBox="0 0 1560 599.999999" version="1.2">
<defs>
<clipPath id="clip1">
  <path d="M 25.382812 26.5625 L 77.644531 26.5625 L 77.644531 224.5625 L 25.382812 224.5625 Z M 25.382812 26.5625 "/>
</clipPath>
<clipPath id="clip2">
  <path d="M 309.148438 120.277344 L 314.40625 120.277344 L 314.40625 126 L 309.148438 126 Z M 309.148438 120.277344 "/>
</clipPath>
</defs>
<g id="surface1">
<path style=" stroke:none;fill-rule:nonzero;fill:rgb(100%,100%,100%);fill-opacity:1;" d="M 41.792969 169 C 30.832031 141.398438 30.832031 109.742188 41.792969 82.140625 L 42.222656 82.308594 C 31.300781 109.800781 31.300781 141.335938 42.222656 168.828125 L 41.792969 169 "/>
<path style=" stroke:none;fill-rule:nonzero;fill:rgb(100%,100%,100%);fill-opacity:1;" d="M 99.417969 221.726562 C 80.011719 214.109375 64.015625 200.574219 53.152344 182.589844 C 43.066406 165.890625 37.734375 146.171875 37.734375 125.566406 C 37.734375 104.96875 43.066406 85.25 53.152344 68.546875 C 64.015625 50.5625 80.011719 37.03125 99.417969 29.414062 L 99.585938 29.839844 C 61.714844 44.703125 38.195312 81.386719 38.195312 125.566406 C 38.195312 169.75 61.714844 206.433594 99.585938 221.296875 L 99.417969 221.726562 "/>
<path style=" stroke:none;fill-rule:nonzero;fill:rgb(100%,100%,100%);fill-opacity:1;" d="M 44.136719 148.019531 C 41.101562 133.332031 41.101562 117.804688 44.136719 103.117188 L 44.585938 103.210938 C 41.5625 117.835938 41.5625 133.300781 44.585938 147.925781 L 44.136719 148.019531 "/>
<path style=" stroke:none;fill-rule:nonzero;fill:rgb(100%,100%,100%);fill-opacity:1;" d="M 60.476562 170.03125 C 53.679688 156.636719 50.085938 141.261719 50.085938 125.570312 C 50.085938 109.875 53.679688 94.5 60.476562 81.101562 L 60.886719 81.3125 C 47.03125 108.609375 47.03125 142.527344 60.886719 169.824219 L 60.476562 170.03125 "/>
<path style=" stroke:none;fill-rule:nonzero;fill:rgb(100%,100%,100%);fill-opacity:1;" d="M 84.796875 188.4375 C 67.972656 173.226562 58.320312 150.308594 58.320312 125.566406 C 58.320312 100.828125 67.972656 77.914062 84.796875 62.699219 L 85.105469 63.042969 C 68.375 78.167969 58.78125 100.957031 58.78125 125.566406 C 58.78125 150.179688 68.375 172.96875 85.105469 188.097656 L 84.796875 188.4375 "/>
<path style=" stroke:none;fill-rule:nonzero;fill:rgb(100%,100%,100%);fill-opacity:1;" d="M 111.042969 194.917969 C 97.046875 189.421875 85.511719 179.660156 77.675781 166.6875 C 70.402344 154.644531 66.558594 140.425781 66.558594 125.570312 C 66.558594 110.710938 70.402344 96.492188 77.675781 84.449219 C 85.507812 71.476562 97.046875 61.714844 111.042969 56.21875 L 111.210938 56.648438 C 83.949219 67.351562 67.015625 93.757812 67.015625 125.570312 C 67.015625 157.378906 83.949219 183.789062 111.210938 194.488281 L 111.042969 194.917969 "/>
<path style=" stroke:none;fill-rule:nonzero;fill:rgb(100%,100%,100%);fill-opacity:1;" d="M 83.445312 203.535156 C 71.351562 194.753906 61.894531 183.125 55.335938 168.964844 C 49.207031 155.730469 45.96875 140.726562 45.972656 125.566406 C 45.972656 110.410156 49.207031 95.40625 55.335938 82.175781 C 61.894531 68.015625 71.351562 56.382812 83.445312 47.601562 L 83.710938 47.976562 C 60.367188 64.925781 46.429688 93.929688 46.429688 125.566406 C 46.425781 157.207031 60.367188 186.214844 83.710938 203.164062 L 83.445312 203.535156 "/>
<path style=" stroke:none;fill-rule:nonzero;fill:rgb(100%,100%,100%);fill-opacity:1;" d="M 95.542969 201.378906 C 82.453125 193.894531 71.730469 182.636719 64.535156 168.820312 C 57.777344 155.839844 54.203125 140.882812 54.203125 125.570312 C 54.203125 110.253906 57.777344 95.296875 64.535156 82.316406 C 71.730469 68.5 82.453125 57.242188 95.542969 49.761719 L 95.769531 50.160156 C 70.03125 64.871094 54.664062 93.0625 54.664062 125.570312 C 54.664062 158.074219 70.03125 186.265625 95.769531 200.976562 L 95.542969 201.378906 "/>
<path style=" stroke:none;fill-rule:nonzero;fill:rgb(100%,100%,100%);fill-opacity:1;" d="M 80.773438 178.214844 C 68.949219 164.097656 62.4375 145.402344 62.4375 125.570312 C 62.4375 105.738281 68.949219 87.039062 80.773438 72.925781 L 81.121094 73.21875 C 56.949219 102.085938 56.949219 149.054688 81.121094 177.917969 L 80.773438 178.214844 "/>
<path style=" stroke:none;fill-rule:nonzero;fill:rgb(100%,100%,100%);fill-opacity:1;" d="M 79.730469 161.898438 C 67.644531 139.832031 67.644531 111.308594 79.730469 89.238281 L 80.128906 89.457031 C 68.121094 111.394531 68.121094 139.742188 80.128906 161.679688 L 79.730469 161.898438 "/>
<path style=" stroke:none;fill-rule:nonzero;fill:rgb(100%,100%,100%);fill-opacity:1;" d="M 98.804688 172.804688 C 86.160156 161.371094 78.910156 144.15625 78.910156 125.570312 C 78.910156 106.980469 86.160156 89.765625 98.804688 78.335938 L 99.109375 78.675781 C 86.5625 90.019531 79.367188 107.109375 79.367188 125.570312 C 79.367188 144.027344 86.5625 161.117188 99.109375 172.460938 L 98.804688 172.804688 "/>
<path style=" stroke:none;fill-rule:nonzero;fill:rgb(100%,100%,100%);fill-opacity:1;" d="M 77.261719 144.566406 C 73.945312 132.140625 73.945312 119 77.261719 106.566406 L 77.707031 106.6875 C 74.410156 119.039062 74.410156 132.097656 77.707031 144.449219 L 77.261719 144.566406 "/>
<path style=" stroke:none;fill-rule:nonzero;fill:rgb(100%,100%,100%);fill-opacity:1;" d="M 121.503906 180.9375 C 98.128906 173.648438 83.027344 151.914062 83.027344 125.570312 C 83.027344 99.226562 98.128906 77.492188 121.503906 70.199219 L 121.636719 70.640625 C 98.460938 77.871094 83.484375 99.429688 83.484375 125.570312 C 83.484375 151.707031 98.460938 173.269531 121.636719 180.5 L 121.503906 180.9375 "/>
<path style=" stroke:none;fill-rule:nonzero;fill:rgb(100%,100%,100%);fill-opacity:1;" d="M 95.054688 145.703125 C 89.96875 132.90625 89.96875 118.226562 95.054688 105.433594 L 95.480469 105.601562 C 90.4375 118.292969 90.4375 132.847656 95.480469 145.535156 L 95.054688 145.703125 "/>
<path style=" stroke:none;fill-rule:nonzero;fill:rgb(100%,100%,100%);fill-opacity:1;" d="M 112.804688 157.167969 C 104.347656 149.519531 99.496094 138.003906 99.496094 125.566406 C 99.496094 113.132812 104.347656 101.617188 112.804688 93.96875 L 113.113281 94.3125 C 104.75 101.871094 99.953125 113.261719 99.953125 125.566406 C 99.953125 137.871094 104.75 149.265625 113.113281 156.828125 L 112.804688 157.167969 "/>
<path style=" stroke:none;fill-rule:nonzero;fill:rgb(100%,100%,100%);fill-opacity:1;" d="M 108.722656 134.125 C 107.398438 128.527344 107.398438 122.609375 108.722656 117.011719 L 109.167969 117.117188 C 107.859375 122.644531 107.859375 128.492188 109.167969 134.019531 L 108.722656 134.125 "/>
<path style=" stroke:none;fill-rule:nonzero;fill:rgb(100%,100%,100%);fill-opacity:1;" d="M 99.71875 161.679688 C 91.609375 151.996094 87.144531 139.171875 87.144531 125.570312 C 87.144531 111.964844 91.609375 99.140625 99.71875 89.457031 L 100.070312 89.753906 C 83.53125 109.5 83.53125 141.636719 100.070312 161.382812 L 99.71875 161.679688 "/>
<path style=" stroke:none;fill-rule:nonzero;fill:rgb(100%,100%,100%);fill-opacity:1;" d="M 104.285156 153.933594 C 98.542969 146.054688 95.378906 135.984375 95.378906 125.566406 C 95.378906 115.15625 98.542969 105.082031 104.285156 97.207031 L 104.65625 97.476562 C 92.976562 113.492188 92.976562 137.644531 104.65625 153.660156 L 104.285156 153.933594 "/>
<path style=" stroke:none;fill-rule:nonzero;fill:rgb(100%,100%,100%);fill-opacity:1;" d="M 115.605469 154.042969 C 107.984375 147.152344 103.613281 136.773438 103.613281 125.566406 C 103.613281 114.363281 107.984375 103.988281 115.605469 97.097656 L 115.914062 97.4375 C 108.386719 104.238281 104.070312 114.492188 104.070312 125.566406 C 104.070312 136.640625 108.386719 146.894531 115.914062 153.699219 L 115.605469 154.042969 "/>
<path style=" stroke:none;fill-rule:nonzero;fill:rgb(100%,100%,100%);fill-opacity:1;" d="M 141.109375 154.894531 C 121.007812 154.894531 111.847656 139.691406 111.847656 125.566406 C 111.847656 117.890625 114.445312 110.734375 119.164062 105.414062 C 124.484375 99.414062 132.074219 96.242188 141.109375 96.242188 L 141.109375 96.703125 C 132.207031 96.703125 124.738281 99.820312 119.507812 105.71875 C 114.863281 110.953125 112.308594 118.003906 112.308594 125.566406 C 112.308594 139.46875 121.320312 154.433594 141.109375 154.433594 L 141.109375 154.894531 "/>
<path style=" stroke:none;fill-rule:nonzero;fill:rgb(100%,100%,100%);fill-opacity:1;" d="M 117.878906 135.722656 C 115.316406 129.269531 115.316406 121.867188 117.878906 115.414062 L 118.304688 115.585938 C 115.78125 121.929688 115.78125 129.207031 118.304688 135.550781 L 117.878906 135.722656 "/>
<path style=" stroke:none;fill-rule:nonzero;fill:rgb(100%,100%,100%);fill-opacity:1;" d="M 124.179688 138.605469 C 118.757812 131.175781 118.757812 119.964844 124.179688 112.53125 L 124.546875 112.800781 C 119.242188 120.082031 119.242188 131.058594 124.546875 138.335938 L 124.179688 138.605469 "/>
<path style=" stroke:none;fill-rule:nonzero;fill:rgb(100%,100%,100%);fill-opacity:1;" d="M 128.609375 128.457031 C 128.222656 126.566406 128.222656 124.570312 128.609375 122.679688 L 129.0625 122.773438 C 128.683594 124.601562 128.683594 126.535156 129.0625 128.363281 L 128.609375 128.457031 "/>
<path style=" stroke:none;fill-rule:nonzero;fill:rgb(100%,100%,100%);fill-opacity:1;" d="M 133.242188 140.839844 C 127.664062 138.171875 124.199219 132.320312 124.199219 125.570312 C 124.199219 118.820312 127.664062 112.96875 133.242188 110.296875 L 133.441406 110.710938 C 128.023438 113.304688 124.660156 119 124.660156 125.570312 C 124.660156 132.140625 128.023438 137.832031 133.441406 140.425781 L 133.242188 140.839844 "/>
<path style=" stroke:none;fill-rule:nonzero;fill:rgb(100%,100%,100%);fill-opacity:1;" d="M 136.324219 132.988281 C 133.886719 131.480469 132.433594 128.703125 132.433594 125.570312 C 132.433594 122.433594 133.886719 119.660156 136.324219 118.148438 L 136.5625 118.535156 C 134.265625 119.964844 132.894531 122.59375 132.894531 125.570312 C 132.894531 128.542969 134.265625 131.171875 136.5625 132.597656 L 136.324219 132.988281 "/>
<path style=" stroke:none;fill-rule:nonzero;fill:rgb(100%,100%,100%);fill-opacity:1;" d="M 137.074219 127.789062 C 136.375 126.417969 136.375 124.71875 137.074219 123.351562 L 137.480469 123.558594 C 136.851562 124.796875 136.851562 126.339844 137.480469 127.578125 L 137.074219 127.789062 "/>
<g clip-path="url(#clip1)" clip-rule="nonzero">
<path style=" stroke:none;fill-rule:nonzero;fill:rgb(100%,100%,100%);fill-opacity:1;" d="M 77.175781 224.578125 C 60.746094 214.382812 47.316406 199.511719 38.328125 181.578125 C 29.859375 164.675781 25.382812 145.308594 25.382812 125.570312 C 25.382812 105.828125 29.859375 86.464844 38.328125 69.5625 C 47.316406 51.625 60.746094 36.753906 77.175781 26.558594 L 77.417969 26.949219 C 45.121094 46.996094 25.839844 83.863281 25.839844 125.570312 C 25.839844 167.273438 45.121094 204.140625 77.417969 224.1875 L 77.175781 224.578125 "/>
</g>
<path style=" stroke:none;fill-rule:nonzero;fill:rgb(100%,100%,100%);fill-opacity:1;" d="M 42.242188 180.089844 C 33.90625 163.667969 29.5 144.8125 29.5 125.570312 C 29.5 106.324219 33.90625 87.46875 42.242188 71.046875 L 42.652344 71.253906 C 25.648438 104.757812 25.648438 146.378906 42.652344 179.882812 L 42.242188 180.089844 "/>
<path style=" stroke:none;fill-rule:nonzero;fill:rgb(100%,100%,100%);fill-opacity:1;" d="M 143.003906 74.273438 C 142.160156 74.234375 141.300781 74.210938 140.453125 74.210938 L 140.453125 73.699219 C 141.308594 73.699219 142.179688 73.71875 143.03125 73.761719 Z M 148.089844 74.78125 C 147.25 74.652344 146.398438 74.546875 145.554688 74.464844 L 145.605469 73.949219 C 146.457031 74.035156 147.316406 74.140625 148.167969 74.269531 Z M 153.097656 75.785156 C 152.277344 75.578125 151.441406 75.386719 150.605469 75.222656 L 150.707031 74.714844 C 151.546875 74.882812 152.394531 75.078125 153.226562 75.289062 Z M 157.988281 77.296875 C 157.191406 77.007812 156.375 76.730469 155.558594 76.480469 L 155.710938 75.988281 C 156.535156 76.242188 157.359375 76.519531 158.164062 76.8125 Z M 162.703125 79.289062 C 161.941406 78.921875 161.15625 78.566406 160.371094 78.234375 L 160.570312 77.757812 C 161.363281 78.097656 162.15625 78.453125 162.925781 78.824219 Z M 167.195312 81.746094 C 166.472656 81.300781 165.726562 80.871094 164.980469 80.460938 L 165.226562 80.011719 C 165.980469 80.421875 166.734375 80.859375 167.464844 81.308594 Z M 171.414062 84.636719 C 170.738281 84.125 170.042969 83.621094 169.339844 83.136719 L 169.632812 82.714844 C 170.339844 83.199219 171.042969 83.707031 171.726562 84.226562 Z M 175.332031 87.933594 C 174.707031 87.351562 174.0625 86.78125 173.414062 86.234375 L 173.746094 85.839844 C 174.398438 86.390625 175.050781 86.96875 175.679688 87.554688 Z M 178.898438 91.597656 C 178.332031 90.957031 177.75 90.324219 177.160156 89.71875 L 177.527344 89.359375 C 178.121094 89.972656 178.710938 90.609375 179.285156 91.253906 Z M 182.085938 95.597656 C 181.589844 94.910156 181.070312 94.222656 180.539062 93.558594 L 180.941406 93.234375 C 181.480469 93.910156 182.003906 94.601562 182.5 95.292969 Z M 184.859375 99.890625 C 184.433594 99.152344 183.984375 98.417969 183.523438 97.707031 L 183.957031 97.429688 C 184.417969 98.144531 184.871094 98.886719 185.300781 99.632812 Z M 187.191406 104.4375 C 186.84375 103.664062 186.46875 102.890625 186.082031 102.132812 L 186.539062 101.898438 C 186.929688 102.664062 187.308594 103.445312 187.660156 104.222656 Z M 189.058594 109.195312 C 188.789062 108.394531 188.496094 107.582031 188.183594 106.789062 L 188.660156 106.601562 C 188.976562 107.402344 189.273438 108.21875 189.546875 109.03125 Z M 190.445312 114.121094 C 190.253906 113.292969 190.042969 112.457031 189.8125 111.640625 L 190.308594 111.5 C 190.539062 112.324219 190.753906 113.167969 190.945312 114.007812 Z M 191.328125 119.164062 C 191.222656 118.316406 191.09375 117.464844 190.949219 116.632812 L 191.457031 116.542969 C 191.601562 117.382812 191.730469 118.242188 191.839844 119.101562 Z M 191.710938 124.269531 C 191.6875 123.421875 191.644531 122.5625 191.582031 121.714844 L 192.09375 121.671875 C 192.160156 122.53125 192.203125 123.398438 192.222656 124.257812 Z M 192.101562 129.425781 L 191.585938 129.390625 C 191.652344 128.546875 191.691406 127.6875 191.710938 126.832031 L 192.226562 126.84375 C 192.207031 127.707031 192.164062 128.574219 192.101562 129.425781 Z M 191.46875 134.558594 L 190.964844 134.46875 C 191.109375 133.636719 191.234375 132.785156 191.339844 131.9375 L 191.847656 132 C 191.742188 132.855469 191.617188 133.71875 191.46875 134.558594 Z M 190.332031 139.601562 L 189.835938 139.464844 C 190.066406 138.644531 190.273438 137.808594 190.464844 136.980469 L 190.964844 137.09375 C 190.773438 137.933594 190.5625 138.777344 190.332031 139.601562 Z M 188.691406 144.511719 L 188.214844 144.324219 C 188.523438 143.53125 188.816406 142.71875 189.085938 141.914062 L 189.574219 142.074219 C 189.300781 142.890625 189.003906 143.710938 188.691406 144.511719 Z M 186.566406 149.234375 L 186.109375 149 C 186.496094 148.242188 186.871094 147.464844 187.21875 146.6875 L 187.6875 146.902344 C 187.335938 147.683594 186.957031 148.46875 186.566406 149.234375 Z M 183.984375 153.71875 L 183.550781 153.441406 C 184.011719 152.726562 184.460938 151.988281 184.886719 151.253906 L 185.332031 151.507812 C 184.902344 152.253906 184.449219 152.996094 183.984375 153.71875 Z M 180.96875 157.921875 L 180.566406 157.601562 C 181.097656 156.933594 181.613281 156.246094 182.109375 155.558594 L 182.527344 155.859375 C 182.027344 156.554688 181.503906 157.25 180.96875 157.921875 Z M 177.554688 161.800781 L 177.1875 161.441406 C 177.78125 160.832031 178.367188 160.199219 178.921875 159.5625 L 179.308594 159.902344 C 178.746094 160.542969 178.15625 161.183594 177.554688 161.800781 Z M 173.777344 165.324219 L 173.445312 164.929688 C 174.097656 164.378906 174.742188 163.808594 175.359375 163.234375 L 175.710938 163.609375 C 175.085938 164.191406 174.433594 164.769531 173.777344 165.324219 Z M 169.671875 168.449219 L 169.382812 168.023438 C 170.078125 167.546875 170.777344 167.042969 171.453125 166.527344 L 171.761719 166.9375 C 171.078125 167.457031 170.375 167.96875 169.671875 168.449219 Z M 165.277344 171.152344 L 165.03125 170.699219 C 165.769531 170.292969 166.515625 169.863281 167.238281 169.417969 L 167.507812 169.855469 C 166.773438 170.308594 166.023438 170.742188 165.277344 171.152344 Z M 160.640625 173.402344 L 160.441406 172.925781 C 161.21875 172.597656 162 172.242188 162.765625 171.871094 L 162.988281 172.335938 C 162.214844 172.710938 161.425781 173.070312 160.640625 173.402344 Z M 155.800781 175.175781 L 155.648438 174.683594 C 156.457031 174.433594 157.273438 174.15625 158.070312 173.867188 L 158.246094 174.347656 C 157.441406 174.644531 156.617188 174.921875 155.800781 175.175781 Z M 150.800781 176.457031 L 150.699219 175.953125 C 151.53125 175.78125 152.371094 175.589844 153.1875 175.378906 L 153.316406 175.878906 C 152.492188 176.089844 151.644531 176.285156 150.800781 176.457031 Z M 145.699219 177.230469 L 145.648438 176.71875 C 146.492188 176.632812 147.347656 176.523438 148.183594 176.398438 L 148.257812 176.90625 C 147.414062 177.035156 146.550781 177.144531 145.699219 177.230469 Z M 140.546875 177.492188 L 140.546875 176.980469 C 141.390625 176.976562 142.25 176.953125 143.101562 176.910156 L 143.125 177.425781 C 142.269531 177.46875 141.402344 177.492188 140.546875 177.492188 "/>
<path style=" stroke:none;fill-rule:nonzero;fill:rgb(100%,100%,100%);fill-opacity:1;" d="M 140.453125 170.460938 L 140.453125 169.082031 C 164.378906 169.082031 183.847656 149.574219 183.847656 125.59375 C 183.847656 101.617188 164.378906 82.109375 140.453125 82.109375 L 140.453125 80.730469 C 165.136719 80.730469 185.222656 100.855469 185.222656 125.59375 C 185.222656 150.335938 165.136719 170.460938 140.453125 170.460938 "/>
<path style=" stroke:none;fill-rule:nonzero;fill:rgb(100%,100%,100%);fill-opacity:1;" d="M 140.453125 160.265625 C 121.375 160.265625 105.855469 144.710938 105.855469 125.59375 C 105.855469 106.480469 121.375 90.925781 140.453125 90.925781 C 159.527344 90.925781 175.046875 106.480469 175.046875 125.59375 L 171.828125 125.59375 C 171.828125 108.257812 157.75 94.152344 140.453125 94.152344 C 123.152344 94.152344 109.078125 108.257812 109.078125 125.59375 C 109.078125 142.933594 123.152344 157.039062 140.453125 157.039062 C 147.207031 157.039062 153.640625 154.917969 159.058594 150.914062 L 160.96875 153.511719 C 154.992188 157.929688 147.898438 160.265625 140.453125 160.265625 "/>
<path style=" stroke:none;fill-rule:nonzero;fill:rgb(100%,100%,100%);fill-opacity:1;" d="M 205.429688 125.59375 L 202.679688 125.59375 C 202.679688 91.210938 174.765625 63.238281 140.453125 63.238281 L 140.453125 60.480469 C 176.28125 60.480469 205.429688 89.691406 205.429688 125.59375 "/>
<path style=" stroke:none;fill-rule:nonzero;fill:rgb(100%,100%,100%);fill-opacity:1;" d="M 251.464844 134.585938 L 166.726562 134.585938 L 157.984375 125.824219 L 140.453125 125.824219 L 140.453125 125.363281 L 158.175781 125.363281 L 166.914062 134.125 L 250.359375 134.125 L 234.078125 117.8125 L 234.078125 102.917969 L 278.417969 102.917969 L 278.417969 103.375 L 234.539062 103.375 L 234.539062 117.621094 L 251.464844 134.585938 "/>
<path style=" stroke:none;fill-rule:nonzero;fill:rgb(100%,100%,100%);fill-opacity:1;" d="M 265.351562 145.007812 L 242.507812 145.007812 L 234.160156 136.640625 L 165.351562 136.640625 L 156.609375 127.882812 L 140.453125 127.882812 L 140.453125 127.421875 L 156.800781 127.421875 L 165.539062 136.183594 L 234.351562 136.183594 L 242.699219 144.550781 L 264.894531 144.550781 L 264.894531 123.015625 L 310.277344 123.015625 L 310.277344 123.476562 L 265.351562 123.476562 L 265.351562 145.007812 "/>
<path style=" stroke:none;fill-rule:nonzero;fill:rgb(100%,100%,100%);fill-opacity:1;" d="M 292.167969 154.828125 L 225.375 154.828125 L 212.078125 141.507812 L 140.453125 141.507812 L 140.453125 141.046875 L 212.269531 141.046875 L 225.5625 154.371094 L 292.167969 154.371094 L 292.167969 154.828125 "/>
<path style=" stroke:none;fill-rule:nonzero;fill:rgb(100%,100%,100%);fill-opacity:1;" d="M 272.984375 117.703125 L 265.878906 110.582031 L 266.203125 110.257812 L 273.308594 117.378906 L 272.984375 117.703125 "/>
<path style=" stroke:none;fill-rule:nonzero;fill:rgb(100%,100%,100%);fill-opacity:1;" d="M 276.535156 117.703125 L 269.429688 110.582031 L 269.753906 110.257812 L 276.859375 117.378906 L 276.535156 117.703125 "/>
<path style=" stroke:none;fill-rule:nonzero;fill:rgb(100%,100%,100%);fill-opacity:1;" d="M 280.089844 117.703125 L 272.984375 110.582031 L 273.308594 110.257812 L 280.414062 117.378906 L 280.089844 117.703125 "/>
<g clip-path="url(#clip2)" clip-rule="nonzero">
<path style=" stroke:none;fill-rule:nonzero;fill:rgb(100%,100%,100%);fill-opacity:1;" d="M 311.851562 125.804688 L 309.300781 123.246094 L 311.851562 120.6875 L 314.40625 123.246094 L 311.851562 125.804688 "/>
</g>
<path style=" stroke:none;fill-rule:nonzero;fill:rgb(100%,100%,100%);fill-opacity:1;" d="M 279.761719 105.703125 L 277.210938 103.148438 L 279.761719 100.589844 L 282.316406 103.148438 L 279.761719 105.703125 "/>
<path style=" stroke:none;fill-rule:nonzero;fill:rgb(100%,100%,100%);fill-opacity:1;" d="M 292.167969 125.804688 L 289.617188 123.246094 L 292.167969 120.6875 L 294.722656 123.246094 L 292.167969 125.804688 "/>
<path style=" stroke:none;fill-rule:nonzero;fill:rgb(100%,100%,100%);fill-opacity:1;" d="M 265.09375 147.335938 L 262.542969 144.78125 L 265.09375 142.222656 L 267.648438 144.78125 L 265.09375 147.335938 "/>
<path style=" stroke:none;fill-rule:nonzero;fill:rgb(100%,100%,100%);fill-opacity:1;" d="M 234.597656 105.703125 L 232.042969 103.148438 L 234.597656 100.589844 L 237.148438 103.148438 L 234.597656 105.703125 "/>
<path style=" stroke:none;fill-rule:nonzero;fill:rgb(100%,100%,100%);fill-opacity:1;" d="M 225.363281 157.15625 L 222.8125 154.601562 L 225.363281 152.042969 L 227.917969 154.601562 L 225.363281 157.15625 "/>
<path style=" stroke:none;fill-rule:nonzero;fill:rgb(100%,100%,100%);fill-opacity:1;" d="M 154.652344 143.835938 L 152.097656 141.277344 L 154.652344 138.71875 L 157.203125 141.277344 L 154.652344 143.835938 "/>
<path style=" stroke:none;fill-rule:nonzero;fill:rgb(100%,100%,100%);fill-opacity:1;" d="M 293.402344 157.15625 L 290.851562 154.601562 L 293.402344 152.042969 L 295.957031 154.601562 L 293.402344 157.15625 "/>
<path style=" stroke:none;fill-rule:nonzero;fill:rgb(100%,100%,100%);fill-opacity:1;" d="M 242.636719 61.40625 C 240.109375 61.40625 238.050781 63.46875 238.050781 66 C 238.050781 68.53125 240.109375 70.59375 242.636719 70.59375 C 245.164062 70.59375 247.21875 68.53125 247.21875 66 C 247.21875 63.46875 245.164062 61.40625 242.636719 61.40625 Z M 242.636719 71.050781 C 239.855469 71.050781 237.59375 68.785156 237.59375 66 C 237.59375 63.210938 239.855469 60.945312 242.636719 60.945312 C 245.417969 60.945312 247.679688 63.210938 247.679688 66 C 247.679688 68.785156 245.417969 71.050781 242.636719 71.050781 "/>
<path style=" stroke:none;fill-rule:nonzero;fill:rgb(100%,100%,100%);fill-opacity:1;" d="M 242.867188 72.429688 L 242.40625 72.429688 L 242.40625 70.824219 L 242.867188 70.824219 L 242.867188 72.429688 "/>
<path style=" stroke:none;fill-rule:nonzero;fill:rgb(100%,100%,100%);fill-opacity:1;" d="M 242.867188 61.058594 L 242.40625 61.058594 L 242.40625 59.453125 L 242.867188 59.453125 L 242.867188 61.058594 "/>
<path style=" stroke:none;fill-rule:nonzero;fill:rgb(100%,100%,100%);fill-opacity:1;" d="M 249.113281 66.171875 L 247.507812 66.171875 L 247.507812 65.710938 L 249.113281 65.710938 L 249.113281 66.171875 "/>
<path style=" stroke:none;fill-rule:nonzero;fill:rgb(100%,100%,100%);fill-opacity:1;" d="M 237.765625 66.171875 L 236.160156 66.171875 L 236.160156 65.710938 L 237.765625 65.710938 L 237.765625 66.171875 "/>
<path style=" stroke:none;fill-rule:nonzero;fill:rgb(100%,100%,100%);fill-opacity:1;" d="M 191.984375 178.09375 C 189.453125 178.09375 187.398438 180.15625 187.398438 182.6875 C 187.398438 185.222656 189.453125 187.28125 191.984375 187.28125 C 194.511719 187.28125 196.566406 185.222656 196.566406 182.6875 C 196.566406 180.15625 194.511719 178.09375 191.984375 178.09375 Z M 191.984375 187.742188 C 189.203125 187.742188 186.941406 185.476562 186.941406 182.6875 C 186.941406 179.902344 189.203125 177.636719 191.984375 177.636719 C 194.761719 177.636719 197.027344 179.902344 197.027344 182.6875 C 197.027344 185.476562 194.761719 187.742188 191.984375 187.742188 "/>
<path style=" stroke:none;fill-rule:nonzero;fill:rgb(100%,100%,100%);fill-opacity:1;" d="M 192.210938 189.121094 L 191.753906 189.121094 L 191.753906 187.511719 L 192.210938 187.511719 L 192.210938 189.121094 "/>
<path style=" stroke:none;fill-rule:nonzero;fill:rgb(100%,100%,100%);fill-opacity:1;" d="M 192.210938 177.75 L 191.753906 177.75 L 191.753906 176.144531 L 192.210938 176.144531 L 192.210938 177.75 "/>
<path style=" stroke:none;fill-rule:nonzero;fill:rgb(100%,100%,100%);fill-opacity:1;" d="M 198.457031 182.863281 L 196.855469 182.863281 L 196.855469 182.402344 L 198.457031 182.402344 L 198.457031 182.863281 "/>
<path style=" stroke:none;fill-rule:nonzero;fill:rgb(100%,100%,100%);fill-opacity:1;" d="M 187.113281 182.863281 L 185.507812 182.863281 L 185.507812 182.402344 L 187.113281 182.402344 L 187.113281 182.863281 "/>
<path style=" stroke:none;fill-rule:nonzero;fill:rgb(100%,100%,100%);fill-opacity:1;" d="M 252.027344 182.273438 L 251.703125 181.949219 L 257.699219 175.941406 L 251.703125 169.933594 L 252.027344 169.605469 L 258.347656 175.941406 L 252.027344 182.273438 "/>
<path style=" stroke:none;fill-rule:nonzero;fill:rgb(100%,100%,100%);fill-opacity:1;" d="M 251.582031 170.863281 C 251.203125 170.484375 251.203125 169.863281 251.582031 169.484375 C 251.957031 169.105469 252.578125 169.105469 252.957031 169.484375 C 253.335938 169.863281 253.335938 170.484375 252.957031 170.863281 C 252.578125 171.242188 251.957031 171.242188 251.582031 170.863281 "/>
<path style=" stroke:none;fill-rule:nonzero;fill:rgb(100%,100%,100%);fill-opacity:1;" d="M 251.175781 182.800781 C 250.796875 182.421875 250.796875 181.804688 251.175781 181.421875 C 251.554688 181.042969 252.175781 181.042969 252.554688 181.421875 C 252.933594 181.804688 252.933594 182.421875 252.554688 182.800781 C 252.175781 183.183594 251.554688 183.183594 251.175781 182.800781 "/>
<path style=" stroke:none;fill-rule:nonzero;fill:rgb(100%,100%,100%);fill-opacity:1;" d="M 215.347656 87.957031 L 209.027344 81.621094 L 215.347656 75.289062 L 215.671875 75.613281 L 209.675781 81.621094 L 215.671875 87.632812 L 215.347656 87.957031 "/>
<path style=" stroke:none;fill-rule:nonzero;fill:rgb(100%,100%,100%);fill-opacity:1;" d="M 215.792969 86.699219 C 216.171875 87.078125 216.171875 87.699219 215.792969 88.078125 C 215.414062 88.460938 214.792969 88.460938 214.414062 88.078125 C 214.035156 87.699219 214.035156 87.078125 214.414062 86.699219 C 214.792969 86.316406 215.414062 86.316406 215.792969 86.699219 "/>
<path style=" stroke:none;fill-rule:nonzero;fill:rgb(100%,100%,100%);fill-opacity:1;" d="M 216.199219 74.761719 C 216.574219 75.140625 216.574219 75.761719 216.199219 76.140625 C 215.816406 76.523438 215.199219 76.523438 214.820312 76.140625 C 214.441406 75.761719 214.441406 75.140625 214.820312 74.761719 C 215.199219 74.382812 215.816406 74.382812 216.199219 74.761719 "/>
</g>
</svg>
