<?xml version="1.0" encoding="UTF-8"?>
<svg xmlns="http://www.w3.org/2000/svg" xmlns:xlink="http://www.w3.org/1999/xlink" width="810pt" height="809.999993pt" viewBox="0 0 810 809.999993" version="1.2">
<defs>
<clipPath id="clip1">
  <path d="M 44.460938 37 L 808.90625 37 L 808.90625 404 L 44.460938 404 Z M 44.460938 37 "/>
</clipPath>
<clipPath id="clip2">
  <path d="M 491 539 L 505 539 L 505 552.722656 L 491 552.722656 Z M 491 539 "/>
</clipPath>
<clipPath id="clip3">
  <path d="M 294 652.050781 L 588 652.050781 L 588 655 L 294 655 Z M 294 652.050781 "/>
</clipPath>
<clipPath id="clip4">
  <path d="M 591.710938 664.457031 L 595.828125 664.457031 L 595.828125 759.816406 L 591.710938 759.816406 Z M 591.710938 664.457031 "/>
</clipPath>
<clipPath id="clip5">
  <path d="M 591.710938 664.457031 L 623 664.457031 L 623 759.816406 L 591.710938 759.816406 Z M 591.710938 664.457031 "/>
</clipPath>
<clipPath id="clip6">
  <path d="M 591.710938 664.457031 L 650 664.457031 L 650 759.816406 L 591.710938 759.816406 Z M 591.710938 664.457031 "/>
</clipPath>
<clipPath id="clip7">
  <path d="M 591.710938 664.457031 L 677.683594 664.457031 L 677.683594 759.816406 L 591.710938 759.816406 Z M 591.710938 664.457031 "/>
</clipPath>
<clipPath id="clip8">
  <path d="M 591.710938 664.457031 L 700.195312 664.457031 L 700.195312 759.816406 L 591.710938 759.816406 Z M 591.710938 664.457031 "/>
</clipPath>
<clipPath id="clip9">
  <path d="M 591.710938 664.457031 L 728 664.457031 L 728 759.816406 L 591.710938 759.816406 Z M 591.710938 664.457031 "/>
</clipPath>
<clipPath id="clip10">
  <path d="M 610.152344 664.457031 L 755 664.457031 L 755 759.816406 L 610.152344 759.816406 Z M 610.152344 664.457031 "/>
</clipPath>
<clipPath id="clip11">
  <path d="M 591.710938 664.457031 L 610 664.457031 L 610 759.816406 L 591.710938 759.816406 Z M 591.710938 664.457031 "/>
</clipPath>
<clipPath id="clip12">
  <path d="M 591.710938 664.457031 L 636.757812 664.457031 L 636.757812 759.816406 L 591.710938 759.816406 Z M 591.710938 664.457031 "/>
</clipPath>
<clipPath id="clip13">
  <path d="M 591.710938 664.457031 L 664 664.457031 L 664 759.816406 L 591.710938 759.816406 Z M 591.710938 664.457031 "/>
</clipPath>
<clipPath id="clip14">
  <path d="M 591.710938 664.457031 L 691 664.457031 L 691 759.816406 L 591.710938 759.816406 Z M 591.710938 664.457031 "/>
</clipPath>
<clipPath id="clip15">
  <path d="M 591.710938 664.457031 L 714 664.457031 L 714 759.816406 L 591.710938 759.816406 Z M 591.710938 664.457031 "/>
</clipPath>
<clipPath id="clip16">
  <path d="M 597 664.457031 L 741 664.457031 L 741 759.816406 L 597 759.816406 Z M 597 664.457031 "/>
</clipPath>
<clipPath id="clip17">
  <path d="M 624 664.457031 L 768 664.457031 L 768 759.816406 L 624 759.816406 Z M 624 664.457031 "/>
</clipPath>
<clipPath id="clip18">
  <path d="M 640.851562 664.457031 L 785 664.457031 L 785 759.816406 L 640.851562 759.816406 Z M 640.851562 664.457031 "/>
</clipPath>
<clipPath id="clip19">
  <path d="M 668 664.457031 L 807.554688 664.457031 L 807.554688 759.816406 L 668 759.816406 Z M 668 664.457031 "/>
</clipPath>
<clipPath id="clip20">
  <path d="M 695 664.457031 L 807.554688 664.457031 L 807.554688 759.816406 L 695 759.816406 Z M 695 664.457031 "/>
</clipPath>
<clipPath id="clip21">
  <path d="M 722 664.457031 L 807.554688 664.457031 L 807.554688 759.816406 L 722 759.816406 Z M 722 664.457031 "/>
</clipPath>
<clipPath id="clip22">
  <path d="M 745.21875 664.457031 L 807.554688 664.457031 L 807.554688 759.816406 L 745.21875 759.816406 Z M 745.21875 664.457031 "/>
</clipPath>
<clipPath id="clip23">
  <path d="M 772 664.457031 L 807.554688 664.457031 L 807.554688 759.816406 L 772 759.816406 Z M 772 664.457031 "/>
</clipPath>
<clipPath id="clip24">
  <path d="M 799 664.457031 L 807.554688 664.457031 L 807.554688 759.816406 L 799 759.816406 Z M 799 664.457031 "/>
</clipPath>
<clipPath id="clip25">
  <path d="M 654 664.457031 L 798 664.457031 L 798 759.816406 L 654 759.816406 Z M 654 664.457031 "/>
</clipPath>
<clipPath id="clip26">
  <path d="M 681 664.457031 L 807.554688 664.457031 L 807.554688 759.816406 L 681 759.816406 Z M 681 664.457031 "/>
</clipPath>
<clipPath id="clip27">
  <path d="M 708.382812 664.457031 L 807.554688 664.457031 L 807.554688 759.816406 L 708.382812 759.816406 Z M 708.382812 664.457031 "/>
</clipPath>
<clipPath id="clip28">
  <path d="M 735 664.457031 L 807.554688 664.457031 L 807.554688 759.816406 L 735 759.816406 Z M 735 664.457031 "/>
</clipPath>
<clipPath id="clip29">
  <path d="M 758 664.457031 L 807.554688 664.457031 L 807.554688 759.816406 L 758 759.816406 Z M 758 664.457031 "/>
</clipPath>
<clipPath id="clip30">
  <path d="M 785 664.457031 L 807.554688 664.457031 L 807.554688 759.816406 L 785 759.816406 Z M 785 664.457031 "/>
</clipPath>
<clipPath id="clip31">
  <path d="M 575.363281 695.804688 L 685.871094 695.804688 L 685.871094 805.800781 L 575.363281 805.800781 Z M 575.363281 695.804688 "/>
</clipPath>
<clipPath id="clip32">
  <path d="M 191.679688 288 L 253 288 L 253 391 L 191.679688 391 Z M 191.679688 288 "/>
</clipPath>
<clipPath id="clip33">
  <path d="M 191.679688 126.183594 L 334 126.183594 L 334 269 L 191.679688 269 Z M 191.679688 126.183594 "/>
</clipPath>
<clipPath id="clip34">
  <path d="M 191.679688 410 L 334 410 L 334 552.933594 L 191.679688 552.933594 Z M 191.679688 410 "/>
</clipPath>
<clipPath id="clip35">
  <path d="M 354 491 L 395 491 L 395 552.933594 L 354 552.933594 Z M 354 491 "/>
</clipPath>
<clipPath id="clip36">
  <path d="M 354 126.183594 L 456 126.183594 L 456 208 L 354 208 Z M 354 126.183594 "/>
</clipPath>
<clipPath id="clip37">
  <path d="M 435 532 L 456 532 L 456 552.933594 L 435 552.933594 Z M 435 532 "/>
</clipPath>
<clipPath id="clip38">
  <path d="M 476 512 L 497 512 L 497 552.933594 L 476 552.933594 Z M 476 512 "/>
</clipPath>
<clipPath id="clip39">
  <path d="M 516 532 L 538 532 L 538 552.933594 L 516 552.933594 Z M 516 532 "/>
</clipPath>
<clipPath id="clip40">
  <path d="M 557 512 L 618.429688 512 L 618.429688 552.933594 L 557 552.933594 Z M 557 512 "/>
</clipPath>
<clipPath id="clip41">
  <path d="M 516 309 L 618.429688 309 L 618.429688 350 L 516 350 Z M 516 309 "/>
</clipPath>
<clipPath id="clip42">
  <path d="M 577 370 L 618.429688 370 L 618.429688 472 L 577 472 Z M 577 370 "/>
</clipPath>
<clipPath id="clip43">
  <path d="M 476 126.183594 L 618.429688 126.183594 L 618.429688 269 L 476 269 Z M 476 126.183594 "/>
</clipPath>
<clipPath id="clip44">
  <path d="M 598 491 L 618.429688 491 L 618.429688 513 L 598 513 Z M 598 491 "/>
</clipPath>
</defs>
<g id="surface1">
<g clip-path="url(#clip1)" clip-rule="nonzero">
<path style=" stroke:none;fill-rule:nonzero;fill:rgb(0%,100%,100%);fill-opacity:1;" d="M 267.722656 403.820312 L 44.941406 246.777344 L 45.929688 246.050781 L 200.828125 131.4375 L 135.78125 38.277344 L 137.238281 37.261719 L 203.265625 131.835938 L 47.964844 246.742188 L 267.394531 401.421875 L 489.378906 130.371094 L 490.070312 130.972656 L 678.5 295.140625 L 807.660156 166.875 L 808.914062 168.132812 L 678.574219 297.5625 L 677.953125 297.015625 L 489.589844 132.90625 L 267.722656 403.820312 "/>
</g>
<path style=" stroke:none;fill-rule:nonzero;fill:rgb(0%,100%,100%);fill-opacity:1;" d="M 277.769531 402.28125 C 277.769531 408.628906 272.621094 413.777344 266.273438 413.777344 C 259.921875 413.777344 254.769531 408.628906 254.769531 402.28125 C 254.769531 395.929688 259.921875 390.785156 266.273438 390.785156 C 272.621094 390.785156 277.769531 395.929688 277.769531 402.28125 "/>
<path style=" stroke:none;fill-rule:nonzero;fill:rgb(0%,100%,100%);fill-opacity:1;" d="M 266.273438 381.535156 C 254.835938 381.535156 245.527344 390.84375 245.527344 402.28125 C 245.527344 413.71875 254.835938 423.019531 266.273438 423.019531 C 277.710938 423.019531 287.011719 413.71875 287.011719 402.28125 C 287.011719 390.84375 277.710938 381.535156 266.273438 381.535156 Z M 266.273438 424.363281 C 254.09375 424.363281 244.179688 414.460938 244.179688 402.28125 C 244.179688 390.101562 254.09375 380.199219 266.273438 380.199219 C 278.453125 380.199219 288.359375 390.101562 288.359375 402.28125 C 288.359375 414.460938 278.453125 424.363281 266.273438 424.363281 "/>
<path style=" stroke:none;fill-rule:nonzero;fill:rgb(0%,100%,100%);fill-opacity:1;" d="M 212.230469 132.230469 C 212.230469 138.578125 207.078125 143.722656 200.726562 143.722656 C 194.378906 143.722656 189.230469 138.578125 189.230469 132.230469 C 189.230469 125.878906 194.378906 120.734375 200.726562 120.734375 C 207.078125 120.734375 212.230469 125.878906 212.230469 132.230469 "/>
<path style=" stroke:none;fill-rule:nonzero;fill:rgb(0%,100%,100%);fill-opacity:1;" d="M 200.726562 111.492188 C 189.296875 111.492188 179.988281 120.792969 179.988281 132.230469 C 179.988281 143.664062 189.296875 152.972656 200.726562 152.972656 C 212.164062 152.972656 221.476562 143.664062 221.476562 132.230469 C 221.476562 120.792969 212.164062 111.492188 200.726562 111.492188 Z M 200.726562 154.316406 C 188.546875 154.316406 178.644531 144.40625 178.644531 132.230469 C 178.644531 120.050781 188.546875 110.144531 200.726562 110.144531 C 212.910156 110.144531 222.820312 120.050781 222.820312 132.230469 C 222.820312 144.40625 212.910156 154.316406 200.726562 154.316406 "/>
<path style=" stroke:none;fill-rule:nonzero;fill:rgb(0%,100%,100%);fill-opacity:1;" d="M 57.953125 247.351562 C 57.953125 253.699219 52.804688 258.851562 46.457031 258.851562 C 40.105469 258.851562 34.953125 253.699219 34.953125 247.351562 C 34.953125 241 40.105469 235.855469 46.457031 235.855469 C 52.804688 235.855469 57.953125 241 57.953125 247.351562 "/>
<path style=" stroke:none;fill-rule:nonzero;fill:rgb(0%,100%,100%);fill-opacity:1;" d="M 46.457031 226.613281 C 35.019531 226.613281 25.710938 235.914062 25.710938 247.351562 C 25.710938 258.785156 35.019531 268.09375 46.457031 268.09375 C 57.894531 268.09375 67.195312 258.785156 67.195312 247.351562 C 67.195312 235.914062 57.894531 226.613281 46.457031 226.613281 Z M 46.457031 269.4375 C 34.277344 269.4375 24.363281 259.527344 24.363281 247.351562 C 24.363281 235.171875 34.277344 225.265625 46.457031 225.265625 C 58.636719 225.265625 68.542969 235.171875 68.542969 247.351562 C 68.542969 259.527344 58.636719 269.4375 46.457031 269.4375 "/>
<path style=" stroke:none;fill-rule:nonzero;fill:rgb(0%,100%,100%);fill-opacity:1;" d="M 500.78125 132.230469 C 500.78125 138.578125 495.636719 143.722656 489.285156 143.722656 C 482.9375 143.722656 477.792969 138.578125 477.792969 132.230469 C 477.792969 125.878906 482.9375 120.734375 489.285156 120.734375 C 495.636719 120.734375 500.78125 125.878906 500.78125 132.230469 "/>
<path style=" stroke:none;fill-rule:nonzero;fill:rgb(0%,100%,100%);fill-opacity:1;" d="M 489.285156 111.492188 C 477.847656 111.492188 468.539062 120.792969 468.539062 132.230469 C 468.539062 143.664062 477.847656 152.972656 489.285156 152.972656 C 500.726562 152.972656 510.027344 143.664062 510.027344 132.230469 C 510.027344 120.792969 500.726562 111.492188 489.285156 111.492188 Z M 489.285156 154.316406 C 477.105469 154.316406 467.195312 144.40625 467.195312 132.230469 C 467.195312 120.050781 477.105469 110.144531 489.285156 110.144531 C 501.46875 110.144531 511.371094 120.050781 511.371094 132.230469 C 511.371094 144.40625 501.46875 154.316406 489.285156 154.316406 "/>
<path style=" stroke:none;fill-rule:nonzero;fill:rgb(0%,100%,100%);fill-opacity:1;" d="M 690.316406 295.761719 C 690.316406 302.109375 685.171875 307.253906 678.820312 307.253906 C 672.46875 307.253906 667.324219 302.109375 667.324219 295.761719 C 667.324219 289.410156 672.46875 284.265625 678.820312 284.265625 C 685.171875 284.265625 690.316406 289.410156 690.316406 295.761719 "/>
<path style=" stroke:none;fill-rule:nonzero;fill:rgb(0%,100%,100%);fill-opacity:1;" d="M 678.820312 275.023438 C 667.382812 275.023438 658.074219 284.324219 658.074219 295.761719 C 658.074219 307.195312 667.382812 316.503906 678.820312 316.503906 C 690.257812 316.503906 699.566406 307.195312 699.566406 295.761719 C 699.566406 284.324219 690.257812 275.023438 678.820312 275.023438 Z M 678.820312 317.847656 C 666.640625 317.847656 656.726562 307.9375 656.726562 295.761719 C 656.726562 283.582031 666.640625 273.675781 678.820312 273.675781 C 691 273.675781 700.90625 283.582031 700.90625 295.761719 C 700.90625 307.9375 691 317.847656 678.820312 317.847656 "/>
<path style=" stroke:none;fill-rule:nonzero;fill:rgb(0%,100%,100%);fill-opacity:1;" d="M 415.289062 205.902344 L 413.917969 204.78125 L 416.71875 201.355469 L 418.09375 202.476562 L 415.289062 205.902344 "/>
<path style=" stroke:none;fill-rule:nonzero;fill:rgb(0%,100%,100%);fill-opacity:1;" d="M 403.898438 219.8125 L 402.527344 218.6875 L 408.222656 211.730469 L 409.59375 212.855469 Z M 392.507812 233.714844 L 391.136719 232.59375 L 396.832031 225.640625 L 398.203125 226.761719 Z M 381.117188 247.625 L 379.746094 246.503906 L 385.441406 239.550781 L 386.8125 240.671875 Z M 369.726562 261.535156 L 368.355469 260.410156 L 374.050781 253.460938 L 375.421875 254.582031 Z M 358.335938 275.441406 L 356.964844 274.320312 L 362.660156 267.367188 L 364.03125 268.492188 Z M 346.941406 289.351562 L 345.574219 288.230469 L 351.269531 281.277344 L 352.636719 282.402344 Z M 335.550781 303.261719 L 334.183594 302.140625 L 339.878906 295.1875 L 341.246094 296.308594 Z M 324.160156 317.171875 L 322.792969 316.046875 L 328.488281 309.089844 L 329.855469 310.214844 L 324.160156 317.171875 "/>
<path style=" stroke:none;fill-rule:nonzero;fill:rgb(0%,100%,100%);fill-opacity:1;" d="M 315.660156 327.546875 L 314.292969 326.425781 L 317.097656 323 L 318.464844 324.121094 L 315.660156 327.546875 "/>
<path style=" stroke:none;fill-rule:nonzero;fill:rgb(0%,100%,100%);fill-opacity:1;" d="M 111.074219 184.972656 L 110.015625 183.550781 L 117.132812 178.269531 L 118.1875 179.699219 Z M 96.847656 195.523438 L 95.789062 194.105469 L 102.90625 188.824219 L 103.960938 190.246094 Z M 82.621094 206.078125 L 81.570312 204.652344 L 88.679688 199.378906 L 89.738281 200.796875 Z M 68.394531 216.632812 L 67.34375 215.203125 L 74.453125 209.929688 L 75.511719 211.359375 L 68.394531 216.632812 "/>
<path style=" stroke:none;fill-rule:nonzero;fill:rgb(0%,100%,100%);fill-opacity:1;" d="M 470.257812 87.6875 L 469.5625 86.058594 C 475.101562 83.683594 480.984375 82.351562 487.042969 82.082031 L 487.125 83.851562 C 481.277344 84.109375 475.605469 85.402344 470.257812 87.6875 Z M 519.496094 94.378906 C 514.921875 90.730469 509.800781 87.964844 504.269531 86.167969 L 504.816406 84.484375 C 510.546875 86.34375 515.863281 89.207031 520.601562 92.996094 Z M 445.648438 111.210938 L 444.050781 110.4375 C 446.675781 105.007812 450.226562 100.128906 454.605469 95.945312 L 455.828125 97.21875 C 451.601562 101.265625 448.179688 105.972656 445.648438 111.210938 Z M 536.949219 123.59375 C 535.914062 117.859375 533.875 112.414062 530.875 107.402344 L 532.394531 106.492188 C 535.503906 111.6875 537.621094 117.335938 538.691406 123.28125 Z M 440.882812 145.578125 C 439.6875 141.25 439.085938 136.757812 439.085938 132.230469 C 439.085938 130.726562 439.152344 129.207031 439.285156 127.722656 L 441.050781 127.878906 C 440.921875 129.3125 440.859375 130.773438 440.859375 132.230469 C 440.859375 136.601562 441.4375 140.933594 442.589844 145.101562 Z M 536.292969 149.875 L 534.640625 149.253906 C 536.679688 143.816406 537.714844 138.085938 537.714844 132.230469 L 539.488281 132.230469 C 539.488281 138.304688 538.410156 144.238281 536.292969 149.875 Z M 461.621094 174.121094 C 456.582031 170.789062 452.21875 166.617188 448.664062 161.730469 L 450.097656 160.683594 C 453.53125 165.402344 457.734375 169.425781 462.597656 172.648438 Z M 513.074219 176.441406 L 512.230469 174.886719 C 517.359375 172.121094 521.910156 168.488281 525.75 164.09375 L 527.085938 165.261719 C 523.101562 169.816406 518.382812 173.582031 513.074219 176.441406 Z M 489.285156 182.421875 C 485.515625 182.421875 481.753906 182 478.113281 181.175781 L 478.503906 179.445312 C 484.125 180.726562 490.09375 180.984375 495.785156 180.21875 L 496.015625 181.972656 C 493.808594 182.269531 491.542969 182.421875 489.285156 182.421875 "/>
<path style=" stroke:none;fill-rule:nonzero;fill:rgb(0%,100%,100%);fill-opacity:1;" d="M 247.246094 357.734375 L 246.542969 356.109375 C 252.085938 353.734375 257.96875 352.398438 264.027344 352.132812 L 264.109375 353.898438 C 258.261719 354.15625 252.582031 355.449219 247.246094 357.734375 Z M 296.472656 364.421875 C 291.90625 360.773438 286.785156 358.015625 281.253906 356.214844 L 281.796875 354.53125 C 287.535156 356.394531 292.84375 359.261719 297.578125 363.042969 Z M 222.632812 381.257812 L 221.035156 380.492188 C 223.65625 375.058594 227.207031 370.175781 231.585938 365.992188 L 232.8125 367.269531 C 228.585938 371.3125 225.160156 376.019531 222.632812 381.257812 Z M 313.933594 393.644531 C 312.898438 387.910156 310.859375 382.460938 307.859375 377.457031 L 309.378906 376.542969 C 312.484375 381.742188 314.605469 387.382812 315.675781 393.328125 Z M 217.859375 415.628906 C 216.667969 411.296875 216.066406 406.804688 216.066406 402.28125 C 216.066406 400.773438 216.136719 399.257812 216.269531 397.773438 L 218.03125 397.929688 C 217.902344 399.363281 217.839844 400.824219 217.839844 402.28125 C 217.839844 406.648438 218.421875 410.980469 219.570312 415.15625 Z M 313.28125 419.925781 L 311.617188 419.300781 C 313.664062 413.867188 314.699219 408.140625 314.699219 402.28125 L 316.472656 402.28125 C 316.472656 408.351562 315.394531 414.289062 313.28125 419.925781 Z M 238.609375 444.171875 C 233.566406 440.839844 229.207031 436.671875 225.648438 431.777344 L 227.082031 430.738281 C 230.515625 435.453125 234.71875 439.476562 239.585938 442.691406 Z M 290.058594 446.492188 L 289.21875 444.933594 C 294.34375 442.171875 298.894531 438.542969 302.738281 434.144531 L 304.070312 435.316406 C 300.085938 439.871094 295.367188 443.628906 290.058594 446.492188 Z M 266.273438 452.476562 C 262.5 452.476562 258.742188 452.054688 255.09375 451.230469 L 255.484375 449.5 C 261.101562 450.773438 267.066406 451.035156 272.769531 450.269531 L 273.003906 452.03125 C 270.792969 452.324219 268.523438 452.476562 266.273438 452.476562 "/>
<path style=" stroke:none;fill-rule:nonzero;fill:rgb(0%,100%,100%);fill-opacity:1;" d="M 571.4375 219.425781 L 564.753906 213.621094 L 565.910156 212.289062 L 572.601562 218.09375 Z M 584.8125 231.042969 L 578.128906 225.238281 L 579.285156 223.898438 L 585.972656 229.710938 Z M 598.183594 242.65625 L 591.5 236.847656 L 592.664062 235.515625 L 599.347656 241.320312 Z M 611.5625 254.273438 L 604.875 248.464844 L 606.03125 247.128906 L 612.71875 252.933594 Z M 624.929688 265.882812 L 618.246094 260.078125 L 619.402344 258.738281 L 626.09375 264.550781 Z M 634.625 274.304688 L 631.621094 271.691406 L 632.777344 270.355469 L 635.789062 272.96875 L 634.625 274.304688 "/>
<path style=" stroke:none;fill-rule:nonzero;fill:rgb(0%,100%,100%);fill-opacity:1;" d="M 738.835938 270.304688 L 736.328125 267.796875 L 759.28125 244.847656 L 781.792969 267.351562 L 779.285156 269.859375 L 759.28125 249.859375 L 738.835938 270.304688 "/>
<path style=" stroke:none;fill-rule:nonzero;fill:rgb(0%,100%,100%);fill-opacity:1;" d="M 738.835938 287.398438 L 736.328125 284.898438 L 759.28125 261.949219 L 781.792969 284.453125 L 779.285156 286.960938 L 759.28125 266.953125 L 738.835938 287.398438 "/>
<path style=" stroke:none;fill-rule:nonzero;fill:rgb(0%,100%,100%);fill-opacity:1;" d="M 114.851562 105.613281 L 112.34375 103.113281 L 135.296875 80.164062 L 157.808594 102.667969 L 155.300781 105.175781 L 135.296875 85.175781 L 114.851562 105.613281 "/>
<path style=" stroke:none;fill-rule:nonzero;fill:rgb(0%,100%,100%);fill-opacity:1;" d="M 114.851562 122.714844 L 112.34375 120.207031 L 135.296875 97.257812 L 157.808594 119.769531 L 155.300781 122.273438 L 135.296875 102.269531 L 114.851562 122.714844 "/>
<path style=" stroke:none;fill-rule:nonzero;fill:rgb(0%,100%,100%);fill-opacity:1;" d="M 114.851562 139.8125 L 112.34375 137.308594 L 135.296875 114.359375 L 157.808594 136.863281 L 155.300781 139.375 L 135.296875 119.371094 L 114.851562 139.8125 "/>
<path style=" stroke:none;fill-rule:nonzero;fill:rgb(0%,100%,100%);fill-opacity:1;" d="M 607.917969 164.992188 L 605.417969 162.484375 L 628.367188 139.535156 L 650.875 162.046875 L 648.371094 164.550781 L 628.367188 144.546875 L 607.917969 164.992188 "/>
<path style=" stroke:none;fill-rule:nonzero;fill:rgb(0%,100%,100%);fill-opacity:1;" d="M 466.9375 252.160156 L 455.6875 240.90625 L 456.9375 239.65625 L 466.9375 249.652344 L 477.164062 239.433594 L 478.417969 240.683594 L 466.9375 252.160156 "/>
<path style=" stroke:none;fill-rule:nonzero;fill:rgb(0%,100%,100%);fill-opacity:1;" d="M 466.9375 232.382812 L 455.6875 221.128906 L 456.9375 219.875 L 466.9375 229.878906 L 477.164062 219.652344 L 478.417969 220.90625 L 466.9375 232.382812 "/>
<path style=" stroke:none;fill-rule:nonzero;fill:rgb(0%,100%,100%);fill-opacity:1;" d="M 466.9375 222.488281 L 455.6875 211.242188 L 456.9375 209.988281 L 466.9375 219.988281 L 477.164062 209.765625 L 478.417969 211.019531 L 466.9375 222.488281 "/>
<path style=" stroke:none;fill-rule:nonzero;fill:rgb(0%,100%,100%);fill-opacity:1;" d="M 466.9375 271.941406 L 455.6875 260.6875 L 456.9375 259.433594 L 466.9375 269.433594 L 477.164062 259.210938 L 478.417969 260.464844 L 466.9375 271.941406 "/>
<path style=" stroke:none;fill-rule:nonzero;fill:rgb(0%,100%,100%);fill-opacity:1;" d="M 466.9375 262.046875 L 455.6875 250.792969 L 456.9375 249.542969 L 466.9375 259.546875 L 477.164062 249.320312 L 478.417969 250.570312 L 466.9375 262.046875 "/>
<path style=" stroke:none;fill-rule:nonzero;fill:rgb(0%,100%,100%);fill-opacity:1;" d="M 466.9375 242.269531 L 455.6875 231.019531 L 456.9375 229.769531 L 466.9375 239.765625 L 477.164062 229.546875 L 478.417969 230.796875 L 466.9375 242.269531 "/>
<path style=" stroke:none;fill-rule:nonzero;fill:rgb(0%,100%,100%);fill-opacity:1;" d="M 118.203125 387.171875 L 106.953125 375.917969 L 108.203125 374.667969 L 118.203125 384.671875 L 128.429688 374.449219 L 129.683594 375.703125 L 118.203125 387.171875 "/>
<path style=" stroke:none;fill-rule:nonzero;fill:rgb(0%,100%,100%);fill-opacity:1;" d="M 118.203125 367.394531 L 106.953125 356.140625 L 108.203125 354.886719 L 118.203125 364.890625 L 128.429688 354.671875 L 129.683594 355.921875 L 118.203125 367.394531 "/>
<path style=" stroke:none;fill-rule:nonzero;fill:rgb(0%,100%,100%);fill-opacity:1;" d="M 118.203125 357.507812 L 106.953125 346.253906 L 108.203125 345 L 118.203125 355.003906 L 128.429688 344.777344 L 129.683594 346.03125 L 118.203125 357.507812 "/>
<path style=" stroke:none;fill-rule:nonzero;fill:rgb(0%,100%,100%);fill-opacity:1;" d="M 118.203125 406.953125 L 106.953125 395.699219 L 108.203125 394.445312 L 118.203125 404.449219 L 128.429688 394.222656 L 129.683594 395.476562 L 118.203125 406.953125 "/>
<path style=" stroke:none;fill-rule:nonzero;fill:rgb(0%,100%,100%);fill-opacity:1;" d="M 118.203125 397.058594 L 106.953125 385.8125 L 108.203125 384.558594 L 118.203125 394.558594 L 128.429688 384.335938 L 129.683594 385.589844 L 118.203125 397.058594 "/>
<path style=" stroke:none;fill-rule:nonzero;fill:rgb(0%,100%,100%);fill-opacity:1;" d="M 118.203125 377.285156 L 106.953125 366.03125 L 108.203125 364.78125 L 118.203125 374.777344 L 128.429688 364.558594 L 129.683594 365.808594 L 118.203125 377.285156 "/>
<path style=" stroke:none;fill-rule:nonzero;fill:rgb(0%,100%,100%);fill-opacity:1;" d="M 319.59375 211.953125 L 300.070312 211.953125 L 300.070312 210.183594 L 319.59375 210.183594 L 319.59375 211.953125 "/>
<path style=" stroke:none;fill-rule:nonzero;fill:rgb(0%,100%,100%);fill-opacity:1;" d="M 310.710938 220.828125 L 308.941406 220.828125 L 308.941406 201.308594 L 310.710938 201.308594 L 310.710938 220.828125 "/>
<path style=" stroke:none;fill-rule:nonzero;fill:rgb(0%,100%,100%);fill-opacity:1;" d="M 731.089844 349.316406 L 711.566406 349.316406 L 711.566406 347.542969 L 731.089844 347.542969 L 731.089844 349.316406 "/>
<path style=" stroke:none;fill-rule:nonzero;fill:rgb(0%,100%,100%);fill-opacity:1;" d="M 722.214844 358.191406 L 720.441406 358.191406 L 720.441406 338.667969 L 722.214844 338.667969 L 722.214844 358.191406 "/>
<path style=" stroke:none;fill-rule:nonzero;fill:rgb(0%,100%,100%);fill-opacity:1;" d="M 231.90625 296.332031 L 212.386719 296.332031 L 212.386719 294.5625 L 231.90625 294.5625 L 231.90625 296.332031 "/>
<path style=" stroke:none;fill-rule:nonzero;fill:rgb(0%,100%,100%);fill-opacity:1;" d="M 223.03125 305.203125 L 221.257812 305.203125 L 221.257812 285.6875 L 223.03125 285.6875 L 223.03125 305.203125 "/>
<path style=" stroke:none;fill-rule:nonzero;fill:rgb(0%,100%,100%);fill-opacity:1;" d="M 677.082031 439.085938 L 657.558594 439.085938 L 657.558594 437.3125 L 677.082031 437.3125 L 677.082031 439.085938 "/>
<path style=" stroke:none;fill-rule:nonzero;fill:rgb(0%,100%,100%);fill-opacity:1;" d="M 668.207031 447.957031 L 666.433594 447.957031 L 666.433594 428.4375 L 668.207031 428.4375 L 668.207031 447.957031 "/>
<path style=" stroke:none;fill-rule:nonzero;fill:rgb(0%,100%,100%);fill-opacity:1;" d="M 210.492188 515.085938 L 190.96875 515.085938 L 190.96875 513.308594 L 210.492188 513.308594 L 210.492188 515.085938 "/>
<path style=" stroke:none;fill-rule:nonzero;fill:rgb(0%,100%,100%);fill-opacity:1;" d="M 201.617188 523.957031 L 199.84375 523.957031 L 199.84375 504.441406 L 201.617188 504.441406 L 201.617188 523.957031 "/>
<path style=" stroke:none;fill-rule:nonzero;fill:rgb(0%,100%,100%);fill-opacity:1;" d="M 87.394531 339.558594 L 67.867188 339.558594 L 67.867188 337.785156 L 87.394531 337.785156 L 87.394531 339.558594 "/>
<path style=" stroke:none;fill-rule:nonzero;fill:rgb(0%,100%,100%);fill-opacity:1;" d="M 78.515625 348.433594 L 76.746094 348.433594 L 76.746094 328.910156 L 78.515625 328.910156 L 78.515625 348.433594 "/>
<path style=" stroke:none;fill-rule:nonzero;fill:rgb(0%,100%,100%);fill-opacity:1;" d="M 582.605469 100.652344 L 563.085938 100.652344 L 563.085938 98.878906 L 582.605469 98.878906 L 582.605469 100.652344 "/>
<path style=" stroke:none;fill-rule:nonzero;fill:rgb(0%,100%,100%);fill-opacity:1;" d="M 573.734375 109.527344 L 571.964844 109.527344 L 571.964844 90.007812 L 573.734375 90.007812 L 573.734375 109.527344 "/>
<path style=" stroke:none;fill-rule:nonzero;fill:rgb(0%,100%,100%);fill-opacity:1;" d="M 700.082031 211.953125 L 680.554688 211.953125 L 680.554688 210.183594 L 700.082031 210.183594 L 700.082031 211.953125 "/>
<path style=" stroke:none;fill-rule:nonzero;fill:rgb(0%,100%,100%);fill-opacity:1;" d="M 691.203125 220.828125 L 689.433594 220.828125 L 689.433594 201.308594 L 691.203125 201.308594 L 691.203125 220.828125 "/>
<path style=" stroke:none;fill-rule:nonzero;fill:rgb(0%,100%,100%);fill-opacity:1;" d="M 538.257812 449.257812 L 536.488281 449.257812 L 536.488281 328.058594 L 516.460938 308.03125 L 516.460938 225.9375 L 518.230469 225.9375 L 518.230469 307.296875 L 538.257812 327.320312 L 538.257812 449.257812 "/>
<path style=" stroke:none;fill-rule:nonzero;fill:rgb(0%,100%,100%);fill-opacity:1;" d="M 537.992188 317.65625 L 522.367188 302.035156 L 522.367188 243.296875 L 524.136719 243.296875 L 524.136719 301.296875 L 536.21875 313.375 L 536.21875 275.300781 L 537.992188 275.300781 L 537.992188 317.65625 "/>
<path style=" stroke:none;fill-rule:nonzero;fill:rgb(0%,100%,100%);fill-opacity:1;" d="M 498.691406 540.765625 L 496.917969 540.765625 L 496.917969 406.917969 L 497.179688 406.660156 L 528.160156 375.683594 L 528.160156 330.578125 L 516.71875 319.136719 L 517.96875 317.882812 L 529.933594 329.839844 L 529.933594 376.414062 L 498.691406 407.652344 L 498.691406 540.765625 "/>
<path style=" stroke:none;fill-rule:nonzero;fill:rgb(0%,100%,100%);fill-opacity:1;" d="M 537.375 449.269531 C 534.808594 449.269531 532.722656 451.359375 532.722656 453.917969 C 532.722656 456.484375 534.808594 458.574219 537.375 458.574219 C 539.9375 458.574219 542.023438 456.484375 542.023438 453.917969 C 542.023438 451.359375 539.9375 449.269531 537.375 449.269531 Z M 537.375 460.34375 C 533.832031 460.34375 530.949219 457.460938 530.949219 453.917969 C 530.949219 450.382812 533.832031 447.5 537.375 447.5 C 540.914062 447.5 543.796875 450.382812 543.796875 453.917969 C 543.796875 457.460938 540.914062 460.34375 537.375 460.34375 "/>
<path style=" stroke:none;fill-rule:nonzero;fill:rgb(0%,100%,100%);fill-opacity:1;" d="M 366.191406 481.160156 C 363.632812 481.160156 361.542969 483.246094 361.542969 485.808594 C 361.542969 488.375 363.632812 490.453125 366.191406 490.453125 C 368.753906 490.453125 370.839844 488.375 370.839844 485.808594 C 370.839844 483.246094 368.753906 481.160156 366.191406 481.160156 Z M 366.191406 492.226562 C 362.648438 492.226562 359.773438 489.351562 359.773438 485.808594 C 359.773438 482.269531 362.648438 479.386719 366.191406 479.386719 C 369.730469 479.386719 372.613281 482.269531 372.613281 485.808594 C 372.613281 489.351562 369.730469 492.226562 366.191406 492.226562 "/>
<path style=" stroke:none;fill-rule:nonzero;fill:rgb(0%,100%,100%);fill-opacity:1;" d="M 517.34375 216.589844 C 514.78125 216.589844 512.699219 218.675781 512.699219 221.238281 C 512.699219 223.804688 514.78125 225.890625 517.34375 225.890625 C 519.910156 225.890625 521.996094 223.804688 521.996094 221.238281 C 521.996094 218.675781 519.910156 216.589844 517.34375 216.589844 Z M 517.34375 227.65625 C 513.804688 227.65625 510.921875 224.78125 510.921875 221.238281 C 510.921875 217.703125 513.804688 214.820312 517.34375 214.820312 C 520.886719 214.820312 523.769531 217.703125 523.769531 221.238281 C 523.769531 224.78125 520.886719 227.65625 517.34375 227.65625 "/>
<path style=" stroke:none;fill-rule:nonzero;fill:rgb(0%,100%,100%);fill-opacity:1;" d="M 413.429688 285.265625 C 410.863281 285.265625 408.78125 287.347656 408.78125 289.90625 C 408.78125 292.472656 410.863281 294.5625 413.429688 294.5625 C 415.988281 294.5625 418.078125 292.472656 418.078125 289.90625 C 418.078125 287.347656 415.988281 285.265625 413.429688 285.265625 Z M 413.429688 296.332031 C 409.886719 296.332031 407.007812 293.449219 407.007812 289.90625 C 407.007812 286.371094 409.886719 283.488281 413.429688 283.488281 C 416.964844 283.488281 419.847656 286.371094 419.847656 289.90625 C 419.847656 293.449219 416.964844 296.332031 413.429688 296.332031 "/>
<path style=" stroke:none;fill-rule:nonzero;fill:rgb(0%,100%,100%);fill-opacity:1;" d="M 394.746094 323.175781 C 392.183594 323.175781 390.097656 325.257812 390.097656 327.824219 C 390.097656 330.382812 392.183594 332.472656 394.746094 332.472656 C 397.3125 332.472656 399.394531 330.382812 399.394531 327.824219 C 399.394531 325.257812 397.3125 323.175781 394.746094 323.175781 Z M 394.746094 334.242188 C 391.207031 334.242188 388.324219 331.367188 388.324219 327.824219 C 388.324219 324.28125 391.207031 321.402344 394.746094 321.402344 C 398.289062 321.402344 401.167969 324.28125 401.167969 327.824219 C 401.167969 331.367188 398.289062 334.242188 394.746094 334.242188 "/>
<path style=" stroke:none;fill-rule:nonzero;fill:rgb(0%,100%,100%);fill-opacity:1;" d="M 537.101562 264.398438 C 534.539062 264.398438 532.453125 266.484375 532.453125 269.046875 C 532.453125 271.613281 534.539062 273.695312 537.101562 273.695312 C 539.667969 273.695312 541.75 271.613281 541.75 269.046875 C 541.75 266.484375 539.667969 264.398438 537.101562 264.398438 Z M 537.101562 275.472656 C 533.5625 275.472656 530.679688 272.589844 530.679688 269.046875 C 530.679688 265.507812 533.5625 262.628906 537.101562 262.628906 C 540.644531 262.628906 543.523438 265.507812 543.523438 269.046875 C 543.523438 272.589844 540.644531 275.472656 537.101562 275.472656 "/>
<g clip-path="url(#clip2)" clip-rule="nonzero">
<path style=" stroke:none;fill-rule:nonzero;fill:rgb(0%,100%,100%);fill-opacity:1;" d="M 497.808594 541.652344 C 495.238281 541.652344 493.15625 543.734375 493.15625 546.296875 C 493.15625 548.863281 495.238281 550.949219 497.808594 550.949219 C 500.367188 550.949219 502.457031 548.863281 502.457031 546.296875 C 502.457031 543.734375 500.367188 541.652344 497.808594 541.652344 Z M 497.808594 552.722656 C 494.261719 552.722656 491.386719 549.839844 491.386719 546.296875 C 491.386719 542.757812 494.261719 539.875 497.808594 539.875 C 501.351562 539.875 504.226562 542.757812 504.226562 546.296875 C 504.226562 549.839844 501.351562 552.722656 497.808594 552.722656 "/>
</g>
<path style=" stroke:none;fill-rule:nonzero;fill:rgb(0%,100%,100%);fill-opacity:1;" d="M 523.25 353.027344 L 513.425781 353.027344 L 513.425781 351.257812 L 523.25 351.257812 L 523.25 353.027344 "/>
<path style=" stroke:none;fill-rule:nonzero;fill:rgb(0%,100%,100%);fill-opacity:1;" d="M 523.25 356.570312 L 513.425781 356.570312 L 513.425781 354.800781 L 523.25 354.800781 L 523.25 356.570312 "/>
<path style=" stroke:none;fill-rule:nonzero;fill:rgb(0%,100%,100%);fill-opacity:1;" d="M 523.25 360.113281 L 513.425781 360.113281 L 513.425781 358.34375 L 523.25 358.34375 L 523.25 360.113281 "/>
<path style=" stroke:none;fill-rule:nonzero;fill:rgb(0%,100%,100%);fill-opacity:1;" d="M 380.953125 386.113281 L 379.179688 386.113281 L 379.179688 376.292969 L 380.953125 376.292969 L 380.953125 386.113281 "/>
<path style=" stroke:none;fill-rule:nonzero;fill:rgb(0%,100%,100%);fill-opacity:1;" d="M 377.414062 386.113281 L 375.636719 386.113281 L 375.636719 376.292969 L 377.414062 376.292969 L 377.414062 386.113281 "/>
<path style=" stroke:none;fill-rule:nonzero;fill:rgb(0%,100%,100%);fill-opacity:1;" d="M 373.863281 386.113281 L 372.09375 386.113281 L 372.09375 376.292969 L 373.863281 376.292969 L 373.863281 386.113281 "/>
<path style=" stroke:none;fill-rule:nonzero;fill:rgb(0%,100%,100%);fill-opacity:1;" d="M 402.714844 454.171875 L 400.945312 454.171875 L 400.945312 444.347656 L 402.714844 444.347656 L 402.714844 454.171875 "/>
<path style=" stroke:none;fill-rule:nonzero;fill:rgb(0%,100%,100%);fill-opacity:1;" d="M 399.179688 454.171875 L 397.40625 454.171875 L 397.40625 444.347656 L 399.179688 444.347656 L 399.179688 454.171875 "/>
<path style=" stroke:none;fill-rule:nonzero;fill:rgb(0%,100%,100%);fill-opacity:1;" d="M 395.632812 454.171875 L 393.863281 454.171875 L 393.863281 444.347656 L 395.632812 444.347656 L 395.632812 454.171875 "/>
<path style=" stroke:none;fill-rule:nonzero;fill:rgb(0%,100%,100%);fill-opacity:1;" d="M 408.113281 153.78125 L 398.289062 153.78125 L 398.289062 152.007812 L 408.113281 152.007812 L 408.113281 153.78125 "/>
<path style=" stroke:none;fill-rule:nonzero;fill:rgb(0%,100%,100%);fill-opacity:1;" d="M 408.113281 157.324219 L 398.289062 157.324219 L 398.289062 155.550781 L 408.113281 155.550781 L 408.113281 157.324219 "/>
<path style=" stroke:none;fill-rule:nonzero;fill:rgb(0%,100%,100%);fill-opacity:1;" d="M 408.113281 160.859375 L 398.289062 160.859375 L 398.289062 159.089844 L 408.113281 159.089844 L 408.113281 160.859375 "/>
<path style=" stroke:none;fill-rule:nonzero;fill:rgb(0%,100%,100%);fill-opacity:1;" d="M 645.097656 335.003906 L 611.195312 335.003906 L 611.195312 331.710938 L 645.097656 331.710938 L 645.097656 335.003906 "/>
<path style=" stroke:none;fill-rule:nonzero;fill:rgb(0%,100%,100%);fill-opacity:1;" d="M 645.097656 340.316406 L 611.195312 340.316406 L 611.195312 337.027344 L 645.097656 337.027344 L 645.097656 340.316406 "/>
<path style=" stroke:none;fill-rule:nonzero;fill:rgb(0%,100%,100%);fill-opacity:1;" d="M 645.097656 345.632812 L 611.195312 345.632812 L 611.195312 342.339844 L 645.097656 342.339844 L 645.097656 345.632812 "/>
<path style=" stroke:none;fill-rule:nonzero;fill:rgb(0%,100%,100%);fill-opacity:1;" d="M 738.277344 149.226562 L 704.371094 149.226562 L 704.371094 145.933594 L 738.277344 145.933594 L 738.277344 149.226562 "/>
<path style=" stroke:none;fill-rule:nonzero;fill:rgb(0%,100%,100%);fill-opacity:1;" d="M 738.277344 154.539062 L 704.371094 154.539062 L 704.371094 151.246094 L 738.277344 151.246094 L 738.277344 154.539062 "/>
<path style=" stroke:none;fill-rule:nonzero;fill:rgb(0%,100%,100%);fill-opacity:1;" d="M 738.277344 159.855469 L 704.371094 159.855469 L 704.371094 156.554688 L 738.277344 156.554688 L 738.277344 159.855469 "/>
<path style=" stroke:none;fill-rule:nonzero;fill:rgb(0%,100%,100%);fill-opacity:1;" d="M 34.953125 377.199219 L 1.050781 377.199219 L 1.050781 373.90625 L 34.953125 373.90625 L 34.953125 377.199219 "/>
<path style=" stroke:none;fill-rule:nonzero;fill:rgb(0%,100%,100%);fill-opacity:1;" d="M 34.953125 382.511719 L 1.050781 382.511719 L 1.050781 379.222656 L 34.953125 379.222656 L 34.953125 382.511719 "/>
<path style=" stroke:none;fill-rule:nonzero;fill:rgb(0%,100%,100%);fill-opacity:1;" d="M 34.953125 387.828125 L 1.050781 387.828125 L 1.050781 384.535156 L 34.953125 384.535156 L 34.953125 387.828125 "/>
<path style=" stroke:none;fill-rule:nonzero;fill:rgb(0%,100%,100%);fill-opacity:1;" d="M 150.679688 232.9375 L 140.855469 232.9375 L 140.855469 231.167969 L 150.679688 231.167969 L 150.679688 232.9375 "/>
<path style=" stroke:none;fill-rule:nonzero;fill:rgb(0%,100%,100%);fill-opacity:1;" d="M 150.679688 236.480469 L 140.855469 236.480469 L 140.855469 234.710938 L 150.679688 234.710938 L 150.679688 236.480469 "/>
<path style=" stroke:none;fill-rule:nonzero;fill:rgb(0%,100%,100%);fill-opacity:1;" d="M 150.679688 240.023438 L 140.855469 240.023438 L 140.855469 238.253906 L 150.679688 238.253906 L 150.679688 240.023438 "/>
<path style=" stroke:none;fill-rule:nonzero;fill:rgb(0%,100%,100%);fill-opacity:1;" d="M 763.96875 463.132812 L 754.144531 463.132812 L 754.144531 461.363281 L 763.96875 461.363281 L 763.96875 463.132812 "/>
<path style=" stroke:none;fill-rule:nonzero;fill:rgb(0%,100%,100%);fill-opacity:1;" d="M 763.96875 466.671875 L 754.144531 466.671875 L 754.144531 464.898438 L 763.96875 464.898438 L 763.96875 466.671875 "/>
<path style=" stroke:none;fill-rule:nonzero;fill:rgb(0%,100%,100%);fill-opacity:1;" d="M 763.96875 470.214844 L 754.144531 470.214844 L 754.144531 468.441406 L 763.96875 468.441406 L 763.96875 470.214844 "/>
<path style=" stroke:none;fill-rule:nonzero;fill:rgb(0%,100%,100%);fill-opacity:1;" d="M 166.375 441.6875 L 156.550781 441.6875 L 156.550781 439.917969 L 166.375 439.917969 L 166.375 441.6875 "/>
<path style=" stroke:none;fill-rule:nonzero;fill:rgb(0%,100%,100%);fill-opacity:1;" d="M 166.375 445.230469 L 156.550781 445.230469 L 156.550781 443.460938 L 166.375 443.460938 L 166.375 445.230469 "/>
<path style=" stroke:none;fill-rule:nonzero;fill:rgb(0%,100%,100%);fill-opacity:1;" d="M 166.375 448.773438 L 156.550781 448.773438 L 156.550781 447.003906 L 166.375 447.003906 L 166.375 448.773438 "/>
<path style=" stroke:none;fill-rule:nonzero;fill:rgb(0%,100%,100%);fill-opacity:1;" d="M 513.425781 508 L 503.601562 508 L 503.601562 506.230469 L 513.425781 506.230469 L 513.425781 508 "/>
<path style=" stroke:none;fill-rule:nonzero;fill:rgb(0%,100%,100%);fill-opacity:1;" d="M 513.425781 511.542969 L 503.601562 511.542969 L 503.601562 509.773438 L 513.425781 509.773438 L 513.425781 511.542969 "/>
<path style=" stroke:none;fill-rule:nonzero;fill:rgb(0%,100%,100%);fill-opacity:1;" d="M 513.425781 515.085938 L 503.601562 515.085938 L 503.601562 513.308594 L 513.425781 513.308594 L 513.425781 515.085938 "/>
<path style=" stroke:none;fill-rule:nonzero;fill:rgb(0%,100%,100%);fill-opacity:1;" d="M 526.703125 244.179688 L 519.792969 244.179688 L 519.792969 242.410156 L 526.703125 242.410156 L 526.703125 244.179688 "/>
<path style=" stroke:none;fill-rule:nonzero;fill:rgb(0%,100%,100%);fill-opacity:1;" d="M 361.738281 466.671875 L 354.824219 466.671875 L 354.824219 464.898438 L 361.738281 464.898438 L 361.738281 466.671875 "/>
<path style=" stroke:none;fill-rule:nonzero;fill:rgb(0%,100%,100%);fill-opacity:1;" d="M 515.523438 321.578125 L 514.273438 320.328125 L 519.160156 315.441406 L 520.414062 316.691406 L 515.523438 321.578125 "/>
<path style=" stroke:none;fill-rule:nonzero;fill:rgb(0%,100%,100%);fill-opacity:1;" d="M 359.171875 465.789062 L 357.398438 465.789062 L 357.398438 365.417969 L 357.65625 365.15625 L 391.546875 331.265625 L 392.796875 332.519531 L 359.171875 366.148438 L 359.171875 465.789062 "/>
<path style=" stroke:none;fill-rule:nonzero;fill:rgb(0%,100%,100%);fill-opacity:1;" d="M 367.074219 479.953125 L 365.308594 479.953125 L 365.308594 397.953125 L 412.539062 397.953125 L 412.539062 295.761719 L 414.3125 295.761719 L 414.3125 399.726562 L 367.074219 399.726562 L 367.074219 479.953125 "/>
<path style=" stroke:none;fill-rule:nonzero;fill:rgb(0%,100%,100%);fill-opacity:1;" d="M 403.203125 408.816406 L 375.226562 408.816406 L 375.226562 407.046875 L 403.203125 407.046875 L 403.203125 408.816406 "/>
<path style=" stroke:none;fill-rule:nonzero;fill:rgb(0%,100%,100%);fill-opacity:1;" d="M 390.097656 453.917969 L 388.332031 453.917969 L 388.332031 407.929688 L 390.097656 407.929688 L 390.097656 453.917969 "/>
<path style=" stroke:none;fill-rule:nonzero;fill:rgb(0%,100%,100%);fill-opacity:1;" d="M 266.984375 197.664062 C 264.417969 197.664062 262.335938 199.746094 262.335938 202.3125 C 262.335938 204.878906 264.417969 206.960938 266.984375 206.960938 C 269.546875 206.960938 271.632812 204.878906 271.632812 202.3125 C 271.632812 199.746094 269.546875 197.664062 266.984375 197.664062 Z M 266.984375 208.730469 C 263.441406 208.730469 260.566406 205.851562 260.566406 202.3125 C 260.566406 198.777344 263.441406 195.894531 266.984375 195.894531 C 270.523438 195.894531 273.40625 198.777344 273.40625 202.3125 C 273.40625 205.851562 270.523438 208.730469 266.984375 208.730469 "/>
<path style=" stroke:none;fill-rule:nonzero;fill:rgb(0%,100%,100%);fill-opacity:1;" d="M 314.222656 1.765625 C 311.652344 1.765625 309.574219 3.851562 309.574219 6.414062 C 309.574219 8.980469 311.652344 11.0625 314.222656 11.0625 C 316.78125 11.0625 318.871094 8.980469 318.871094 6.414062 C 318.871094 3.851562 316.78125 1.765625 314.222656 1.765625 Z M 314.222656 12.832031 C 310.675781 12.832031 307.800781 9.957031 307.800781 6.414062 C 307.800781 2.875 310.675781 -0.00390625 314.222656 -0.00390625 C 317.757812 -0.00390625 320.640625 2.875 320.640625 6.414062 C 320.640625 9.957031 317.757812 12.832031 314.222656 12.832031 "/>
<path style=" stroke:none;fill-rule:nonzero;fill:rgb(0%,100%,100%);fill-opacity:1;" d="M 295.539062 39.679688 C 292.976562 39.679688 290.890625 41.761719 290.890625 44.328125 C 290.890625 46.890625 292.976562 48.976562 295.539062 48.976562 C 298.105469 48.976562 300.1875 46.890625 300.1875 44.328125 C 300.1875 41.761719 298.105469 39.679688 295.539062 39.679688 Z M 295.539062 50.75 C 292 50.75 289.117188 47.867188 289.117188 44.328125 C 289.117188 40.785156 292 37.910156 295.539062 37.910156 C 299.082031 37.910156 301.957031 40.785156 301.957031 44.328125 C 301.957031 47.867188 299.082031 50.75 295.539062 50.75 "/>
<path style=" stroke:none;fill-rule:nonzero;fill:rgb(0%,100%,100%);fill-opacity:1;" d="M 302.691406 87.835938 L 300.917969 87.835938 L 300.917969 78.007812 L 302.691406 78.007812 L 302.691406 87.835938 "/>
<path style=" stroke:none;fill-rule:nonzero;fill:rgb(0%,100%,100%);fill-opacity:1;" d="M 299.144531 87.835938 L 297.375 87.835938 L 297.375 78.007812 L 299.144531 78.007812 L 299.144531 87.835938 "/>
<path style=" stroke:none;fill-rule:nonzero;fill:rgb(0%,100%,100%);fill-opacity:1;" d="M 295.601562 87.835938 L 293.835938 87.835938 L 293.835938 78.007812 L 295.601562 78.007812 L 295.601562 87.835938 "/>
<path style=" stroke:none;fill-rule:nonzero;fill:rgb(0%,100%,100%);fill-opacity:1;" d="M 262.53125 183.183594 L 255.617188 183.183594 L 255.617188 181.40625 L 262.53125 181.40625 L 262.53125 183.183594 "/>
<path style=" stroke:none;fill-rule:nonzero;fill:rgb(0%,100%,100%);fill-opacity:1;" d="M 259.960938 182.292969 L 258.183594 182.292969 L 258.183594 81.917969 L 258.449219 81.660156 L 292.339844 47.777344 L 293.589844 49.03125 L 259.960938 82.65625 L 259.960938 182.292969 "/>
<path style=" stroke:none;fill-rule:nonzero;fill:rgb(0%,100%,100%);fill-opacity:1;" d="M 267.867188 196.460938 L 266.097656 196.460938 L 266.097656 114.460938 L 313.332031 114.460938 L 313.332031 12.265625 L 315.105469 12.265625 L 315.105469 116.230469 L 267.867188 116.230469 L 267.867188 196.460938 "/>
<path style=" stroke:none;fill-rule:nonzero;fill:rgb(0%,100%,100%);fill-opacity:1;" d="M 101.171875 709.277344 L 63.769531 709.277344 L 63.769531 706.527344 L 100.027344 706.527344 L 141.761719 664.832031 L 587.617188 664.832031 L 587.617188 667.585938 L 142.90625 667.585938 L 101.171875 709.277344 "/>
<path style=" stroke:none;fill-rule:nonzero;fill:rgb(0%,100%,100%);fill-opacity:1;" d="M 587.617188 779.597656 L 550.207031 779.597656 L 549.808594 779.191406 L 508.480469 737.898438 L 2.367188 737.898438 L 2.367188 735.152344 L 509.625 735.152344 L 510.03125 735.550781 L 551.351562 776.84375 L 587.617188 776.84375 L 587.617188 779.597656 "/>
<g clip-path="url(#clip3)" clip-rule="nonzero">
<path style=" stroke:none;fill-rule:nonzero;fill:rgb(0%,100%,100%);fill-opacity:1;" d="M 301.121094 654.066406 L 294.988281 654.066406 L 294.988281 652.019531 L 301.121094 652.019531 Z M 321.585938 654.066406 L 311.351562 654.066406 L 311.351562 652.019531 L 321.585938 652.019531 Z M 342.046875 654.066406 L 331.816406 654.066406 L 331.816406 652.019531 L 342.046875 652.019531 Z M 362.511719 654.066406 L 352.28125 654.066406 L 352.28125 652.019531 L 362.511719 652.019531 Z M 382.976562 654.066406 L 372.746094 654.066406 L 372.746094 652.019531 L 382.976562 652.019531 Z M 403.441406 654.066406 L 393.210938 654.066406 L 393.210938 652.019531 L 403.441406 652.019531 Z M 423.90625 654.066406 L 413.671875 654.066406 L 413.671875 652.019531 L 423.90625 652.019531 Z M 444.371094 654.066406 L 434.136719 654.066406 L 434.136719 652.019531 L 444.371094 652.019531 Z M 464.832031 654.066406 L 454.601562 654.066406 L 454.601562 652.019531 L 464.832031 652.019531 Z M 485.296875 654.066406 L 475.066406 654.066406 L 475.066406 652.019531 L 485.296875 652.019531 Z M 505.761719 654.066406 L 495.53125 654.066406 L 495.53125 652.019531 L 505.761719 652.019531 Z M 526.226562 654.066406 L 515.996094 654.066406 L 515.996094 652.019531 L 526.226562 652.019531 Z M 546.691406 654.066406 L 536.457031 654.066406 L 536.457031 652.019531 L 546.691406 652.019531 Z M 567.15625 654.066406 L 556.921875 654.066406 L 556.921875 652.019531 L 567.15625 652.019531 Z M 587.617188 654.066406 L 577.386719 654.066406 L 577.386719 652.019531 L 587.617188 652.019531 L 587.617188 654.066406 "/>
</g>
<g clip-path="url(#clip4)" clip-rule="nonzero">
<path style=" stroke:none;fill-rule:nonzero;fill:rgb(0%,100%,100%);fill-opacity:1;" d="M 454.113281 767.609375 L 452.164062 765.660156 L 593.703125 624.242188 L 595.652344 626.191406 L 454.113281 767.609375 "/>
</g>
<g clip-path="url(#clip5)" clip-rule="nonzero">
<path style=" stroke:none;fill-rule:nonzero;fill:rgb(0%,100%,100%);fill-opacity:1;" d="M 481.238281 767.609375 L 479.285156 765.660156 L 620.824219 624.242188 L 622.777344 626.191406 L 481.238281 767.609375 "/>
</g>
<g clip-path="url(#clip6)" clip-rule="nonzero">
<path style=" stroke:none;fill-rule:nonzero;fill:rgb(0%,100%,100%);fill-opacity:1;" d="M 508.351562 767.609375 L 506.402344 765.660156 L 647.949219 624.242188 L 649.898438 626.191406 L 508.351562 767.609375 "/>
</g>
<g clip-path="url(#clip7)" clip-rule="nonzero">
<path style=" stroke:none;fill-rule:nonzero;fill:rgb(0%,100%,100%);fill-opacity:1;" d="M 535.476562 767.609375 L 533.523438 765.660156 L 675.070312 624.242188 L 677.023438 626.191406 L 535.476562 767.609375 "/>
</g>
<g clip-path="url(#clip8)" clip-rule="nonzero">
<path style=" stroke:none;fill-rule:nonzero;fill:rgb(0%,100%,100%);fill-opacity:1;" d="M 558.503906 771.179688 L 556.554688 769.230469 L 698.09375 627.820312 L 700.042969 629.769531 L 558.503906 771.179688 "/>
</g>
<g clip-path="url(#clip9)" clip-rule="nonzero">
<path style=" stroke:none;fill-rule:nonzero;fill:rgb(0%,100%,100%);fill-opacity:1;" d="M 585.621094 771.179688 L 583.667969 769.230469 L 725.214844 627.820312 L 727.167969 629.769531 L 585.621094 771.179688 "/>
</g>
<g clip-path="url(#clip10)" clip-rule="nonzero">
<path style=" stroke:none;fill-rule:nonzero;fill:rgb(0%,100%,100%);fill-opacity:1;" d="M 612.742188 771.179688 L 610.792969 769.230469 L 752.339844 627.820312 L 754.289062 629.769531 L 612.742188 771.179688 "/>
</g>
<g clip-path="url(#clip11)" clip-rule="nonzero">
<path style=" stroke:none;fill-rule:nonzero;fill:rgb(0%,100%,100%);fill-opacity:1;" d="M 467.671875 767.609375 L 465.722656 765.660156 L 607.269531 624.242188 L 609.21875 626.191406 L 467.671875 767.609375 "/>
</g>
<g clip-path="url(#clip12)" clip-rule="nonzero">
<path style=" stroke:none;fill-rule:nonzero;fill:rgb(0%,100%,100%);fill-opacity:1;" d="M 494.792969 767.609375 L 492.84375 765.660156 L 634.390625 624.242188 L 636.339844 626.191406 L 494.792969 767.609375 "/>
</g>
<g clip-path="url(#clip13)" clip-rule="nonzero">
<path style=" stroke:none;fill-rule:nonzero;fill:rgb(0%,100%,100%);fill-opacity:1;" d="M 521.917969 767.609375 L 519.96875 765.660156 L 661.503906 624.242188 L 663.457031 626.191406 L 521.917969 767.609375 "/>
</g>
<g clip-path="url(#clip14)" clip-rule="nonzero">
<path style=" stroke:none;fill-rule:nonzero;fill:rgb(0%,100%,100%);fill-opacity:1;" d="M 549.03125 767.609375 L 547.082031 765.660156 L 688.628906 624.242188 L 690.578125 626.191406 L 549.03125 767.609375 "/>
</g>
<g clip-path="url(#clip15)" clip-rule="nonzero">
<path style=" stroke:none;fill-rule:nonzero;fill:rgb(0%,100%,100%);fill-opacity:1;" d="M 572.0625 771.179688 L 570.113281 769.230469 L 711.660156 627.820312 L 713.609375 629.769531 L 572.0625 771.179688 "/>
</g>
<g clip-path="url(#clip16)" clip-rule="nonzero">
<path style=" stroke:none;fill-rule:nonzero;fill:rgb(0%,100%,100%);fill-opacity:1;" d="M 599.1875 771.179688 L 597.234375 769.230469 L 738.773438 627.820312 L 740.722656 629.769531 L 599.1875 771.179688 "/>
</g>
<g clip-path="url(#clip17)" clip-rule="nonzero">
<path style=" stroke:none;fill-rule:nonzero;fill:rgb(0%,100%,100%);fill-opacity:1;" d="M 626.300781 771.179688 L 624.351562 769.230469 L 765.898438 627.820312 L 767.847656 629.769531 L 626.300781 771.179688 "/>
</g>
<g clip-path="url(#clip18)" clip-rule="nonzero">
<path style=" stroke:none;fill-rule:nonzero;fill:rgb(0%,100%,100%);fill-opacity:1;" d="M 642.832031 767.609375 L 640.882812 765.660156 L 782.429688 624.242188 L 784.378906 626.191406 L 642.832031 767.609375 "/>
</g>
<g clip-path="url(#clip19)" clip-rule="nonzero">
<path style=" stroke:none;fill-rule:nonzero;fill:rgb(0%,100%,100%);fill-opacity:1;" d="M 669.957031 767.609375 L 668.003906 765.660156 L 809.550781 624.242188 L 811.5 626.191406 L 669.957031 767.609375 "/>
</g>
<g clip-path="url(#clip20)" clip-rule="nonzero">
<path style=" stroke:none;fill-rule:nonzero;fill:rgb(0%,100%,100%);fill-opacity:1;" d="M 697.078125 767.609375 L 695.128906 765.660156 L 836.667969 624.242188 L 838.617188 626.191406 L 697.078125 767.609375 "/>
</g>
<g clip-path="url(#clip21)" clip-rule="nonzero">
<path style=" stroke:none;fill-rule:nonzero;fill:rgb(0%,100%,100%);fill-opacity:1;" d="M 724.191406 767.609375 L 722.242188 765.660156 L 863.789062 624.242188 L 865.738281 626.191406 L 724.191406 767.609375 "/>
</g>
<g clip-path="url(#clip22)" clip-rule="nonzero">
<path style=" stroke:none;fill-rule:nonzero;fill:rgb(0%,100%,100%);fill-opacity:1;" d="M 747.222656 771.179688 L 745.273438 769.230469 L 886.820312 627.820312 L 888.769531 629.769531 L 747.222656 771.179688 "/>
</g>
<g clip-path="url(#clip23)" clip-rule="nonzero">
<path style=" stroke:none;fill-rule:nonzero;fill:rgb(0%,100%,100%);fill-opacity:1;" d="M 774.347656 771.179688 L 772.394531 769.230469 L 913.941406 627.820312 L 915.894531 629.769531 L 774.347656 771.179688 "/>
</g>
<g clip-path="url(#clip24)" clip-rule="nonzero">
<path style=" stroke:none;fill-rule:nonzero;fill:rgb(0%,100%,100%);fill-opacity:1;" d="M 801.46875 771.179688 L 799.511719 769.230469 L 941.058594 627.820312 L 943.007812 629.769531 L 801.46875 771.179688 "/>
</g>
<g clip-path="url(#clip25)" clip-rule="nonzero">
<path style=" stroke:none;fill-rule:nonzero;fill:rgb(0%,100%,100%);fill-opacity:1;" d="M 656.398438 767.609375 L 654.445312 765.660156 L 795.984375 624.242188 L 797.9375 626.191406 L 656.398438 767.609375 "/>
</g>
<g clip-path="url(#clip26)" clip-rule="nonzero">
<path style=" stroke:none;fill-rule:nonzero;fill:rgb(0%,100%,100%);fill-opacity:1;" d="M 683.511719 767.609375 L 681.5625 765.660156 L 823.109375 624.242188 L 825.058594 626.191406 L 683.511719 767.609375 "/>
</g>
<g clip-path="url(#clip27)" clip-rule="nonzero">
<path style=" stroke:none;fill-rule:nonzero;fill:rgb(0%,100%,100%);fill-opacity:1;" d="M 710.636719 767.609375 L 708.683594 765.660156 L 850.230469 624.242188 L 852.183594 626.191406 L 710.636719 767.609375 "/>
</g>
<g clip-path="url(#clip28)" clip-rule="nonzero">
<path style=" stroke:none;fill-rule:nonzero;fill:rgb(0%,100%,100%);fill-opacity:1;" d="M 737.757812 767.609375 L 735.808594 765.660156 L 877.347656 624.242188 L 879.296875 626.191406 L 737.757812 767.609375 "/>
</g>
<g clip-path="url(#clip29)" clip-rule="nonzero">
<path style=" stroke:none;fill-rule:nonzero;fill:rgb(0%,100%,100%);fill-opacity:1;" d="M 760.78125 771.179688 L 758.832031 769.230469 L 900.378906 627.820312 L 902.328125 629.769531 L 760.78125 771.179688 "/>
</g>
<g clip-path="url(#clip30)" clip-rule="nonzero">
<path style=" stroke:none;fill-rule:nonzero;fill:rgb(0%,100%,100%);fill-opacity:1;" d="M 787.902344 771.179688 L 785.953125 769.230469 L 927.5 627.820312 L 929.449219 629.769531 L 787.902344 771.179688 "/>
</g>
<g clip-path="url(#clip31)" clip-rule="nonzero">
<path style=" stroke:none;fill-rule:nonzero;fill:rgb(0%,100%,100%);fill-opacity:1;" d="M 630.800781 805.816406 L 575.8125 750.886719 L 630.800781 695.945312 L 685.789062 750.886719 L 630.800781 805.816406 "/>
</g>
<g clip-path="url(#clip32)" clip-rule="nonzero">
<path style=" stroke:none;fill-rule:nonzero;fill:rgb(0%,100%,100%);fill-opacity:1;" d="M 212 370.039062 L 232.320312 370.039062 L 232.320312 309.074219 L 252.644531 309.074219 L 252.644531 288.753906 L 191.679688 288.753906 L 191.679688 329.398438 L 212 329.398438 L 212 349.71875 L 191.679688 349.71875 L 191.679688 390.359375 L 212 390.359375 Z M 212 370.039062 "/>
</g>
<g clip-path="url(#clip33)" clip-rule="nonzero">
<path style=" stroke:none;fill-rule:nonzero;fill:rgb(0%,100%,100%);fill-opacity:1;" d="M 232.320312 268.433594 L 333.929688 268.433594 L 333.929688 126.183594 L 191.679688 126.183594 L 191.679688 268.433594 Z M 212 146.503906 L 313.609375 146.503906 L 313.609375 248.113281 L 212 248.113281 Z M 212 146.503906 "/>
</g>
<path style=" stroke:none;fill-rule:nonzero;fill:rgb(0%,100%,100%);fill-opacity:1;" d="M 272.964844 227.789062 L 293.285156 227.789062 L 293.285156 166.824219 L 232.320312 166.824219 L 232.320312 227.789062 Z M 272.964844 227.789062 "/>
<path style=" stroke:none;fill-rule:nonzero;fill:rgb(0%,100%,100%);fill-opacity:1;" d="M 252.644531 329.398438 L 252.644531 370.039062 L 272.964844 370.039062 L 272.964844 390.359375 L 293.285156 390.359375 L 293.285156 329.398438 Z M 252.644531 329.398438 "/>
<path style=" stroke:none;fill-rule:nonzero;fill:rgb(0%,100%,100%);fill-opacity:1;" d="M 252.644531 451.324219 L 232.320312 451.324219 L 232.320312 512.289062 L 293.285156 512.289062 L 293.285156 451.324219 Z M 252.644531 451.324219 "/>
<g clip-path="url(#clip34)" clip-rule="nonzero">
<path style=" stroke:none;fill-rule:nonzero;fill:rgb(0%,100%,100%);fill-opacity:1;" d="M 293.285156 410.683594 L 191.679688 410.683594 L 191.679688 552.933594 L 333.929688 552.933594 L 333.929688 410.683594 Z M 313.605469 532.609375 L 212 532.609375 L 212 431.003906 L 313.609375 431.003906 L 313.609375 532.609375 Z M 313.605469 532.609375 "/>
</g>
<path style=" stroke:none;fill-rule:nonzero;fill:rgb(0%,100%,100%);fill-opacity:1;" d="M 333.929688 309.074219 L 374.570312 309.074219 L 374.570312 329.398438 L 394.894531 329.398438 L 394.894531 309.074219 L 435.535156 309.074219 L 435.535156 288.753906 L 455.855469 288.753906 L 455.855469 207.46875 L 435.535156 207.46875 L 435.535156 268.433594 L 415.214844 268.433594 L 415.214844 288.753906 L 394.894531 288.753906 L 394.894531 268.433594 L 374.570312 268.433594 L 374.570312 248.109375 L 354.25 248.109375 L 354.25 288.753906 L 272.964844 288.753906 L 272.964844 309.074219 L 293.285156 309.074219 L 293.285156 329.398438 L 313.605469 329.398438 L 313.605469 309.074219 Z M 333.929688 309.074219 "/>
<path style=" stroke:none;fill-rule:nonzero;fill:rgb(0%,100%,100%);fill-opacity:1;" d="M 313.605469 329.398438 L 313.605469 349.71875 L 333.929688 349.71875 L 333.929688 329.398438 Z M 313.605469 329.398438 "/>
<g clip-path="url(#clip35)" clip-rule="nonzero">
<path style=" stroke:none;fill-rule:nonzero;fill:rgb(0%,100%,100%);fill-opacity:1;" d="M 374.570312 491.96875 L 354.25 491.96875 L 354.25 552.933594 L 394.894531 552.933594 L 394.894531 512.289062 L 374.570312 512.289062 Z M 374.570312 491.96875 "/>
</g>
<path style=" stroke:none;fill-rule:nonzero;fill:rgb(0%,100%,100%);fill-opacity:1;" d="M 394.894531 227.789062 L 415.214844 227.789062 L 415.214844 207.46875 L 394.894531 207.46875 Z M 394.894531 227.789062 "/>
<path style=" stroke:none;fill-rule:nonzero;fill:rgb(0%,100%,100%);fill-opacity:1;" d="M 415.214844 248.109375 L 394.894531 248.109375 L 394.894531 268.433594 L 415.214844 268.433594 Z M 415.214844 248.109375 "/>
<path style=" stroke:none;fill-rule:nonzero;fill:rgb(0%,100%,100%);fill-opacity:1;" d="M 415.214844 512.289062 L 415.214844 491.96875 L 394.894531 491.96875 L 394.894531 512.289062 Z M 415.214844 512.289062 "/>
<g clip-path="url(#clip36)" clip-rule="nonzero">
<path style=" stroke:none;fill-rule:nonzero;fill:rgb(0%,100%,100%);fill-opacity:1;" d="M 455.855469 187.148438 L 455.855469 166.824219 L 435.535156 166.824219 L 435.535156 146.503906 L 455.855469 146.503906 L 455.855469 126.183594 L 415.214844 126.183594 L 415.214844 146.503906 L 394.894531 146.503906 L 394.894531 126.183594 L 374.570312 126.183594 L 374.570312 166.824219 L 354.25 166.824219 L 354.25 187.148438 L 374.570312 187.148438 L 374.570312 207.46875 L 394.894531 207.46875 L 394.894531 166.824219 L 415.214844 166.824219 L 415.214844 207.46875 L 435.535156 207.46875 L 435.535156 187.148438 Z M 455.855469 187.148438 "/>
</g>
<path style=" stroke:none;fill-rule:nonzero;fill:rgb(0%,100%,100%);fill-opacity:1;" d="M 435.535156 349.71875 L 455.855469 349.71875 L 455.855469 329.398438 L 435.535156 329.398438 Z M 435.535156 349.71875 "/>
<path style=" stroke:none;fill-rule:nonzero;fill:rgb(0%,100%,100%);fill-opacity:1;" d="M 455.855469 370.039062 L 435.535156 370.039062 L 435.535156 390.359375 L 455.855469 390.359375 Z M 455.855469 370.039062 "/>
<path style=" stroke:none;fill-rule:nonzero;fill:rgb(0%,100%,100%);fill-opacity:1;" d="M 435.535156 512.289062 L 455.855469 512.289062 L 455.855469 491.96875 L 435.535156 491.96875 Z M 435.535156 512.289062 "/>
<g clip-path="url(#clip37)" clip-rule="nonzero">
<path style=" stroke:none;fill-rule:nonzero;fill:rgb(0%,100%,100%);fill-opacity:1;" d="M 435.535156 552.933594 L 455.855469 552.933594 L 455.855469 532.609375 L 435.535156 532.609375 Z M 435.535156 552.933594 "/>
</g>
<path style=" stroke:none;fill-rule:nonzero;fill:rgb(0%,100%,100%);fill-opacity:1;" d="M 476.179688 309.074219 L 476.179688 329.398438 L 496.5 329.398438 L 496.5 288.753906 L 455.855469 288.753906 L 455.855469 309.074219 Z M 476.179688 309.074219 "/>
<path style=" stroke:none;fill-rule:nonzero;fill:rgb(0%,100%,100%);fill-opacity:1;" d="M 496.5 349.71875 L 476.179688 349.71875 L 476.179688 390.359375 L 496.5 390.359375 Z M 496.5 349.71875 "/>
<g clip-path="url(#clip38)" clip-rule="nonzero">
<path style=" stroke:none;fill-rule:nonzero;fill:rgb(0%,100%,100%);fill-opacity:1;" d="M 476.179688 552.933594 L 496.5 552.933594 L 496.5 512.289062 L 476.179688 512.289062 Z M 476.179688 552.933594 "/>
</g>
<path style=" stroke:none;fill-rule:nonzero;fill:rgb(0%,100%,100%);fill-opacity:1;" d="M 516.820312 512.289062 L 537.144531 512.289062 L 537.144531 491.96875 L 516.820312 491.96875 Z M 516.820312 512.289062 "/>
<g clip-path="url(#clip39)" clip-rule="nonzero">
<path style=" stroke:none;fill-rule:nonzero;fill:rgb(0%,100%,100%);fill-opacity:1;" d="M 516.820312 552.933594 L 537.144531 552.933594 L 537.144531 532.609375 L 516.820312 532.609375 Z M 516.820312 552.933594 "/>
</g>
<path style=" stroke:none;fill-rule:nonzero;fill:rgb(0%,100%,100%);fill-opacity:1;" d="M 537.144531 166.824219 L 516.820312 166.824219 L 516.820312 227.789062 L 577.785156 227.789062 L 577.785156 166.824219 Z M 537.144531 166.824219 "/>
<path style=" stroke:none;fill-rule:nonzero;fill:rgb(0%,100%,100%);fill-opacity:1;" d="M 557.464844 390.359375 L 557.464844 370.039062 L 516.820312 370.039062 L 516.820312 390.359375 Z M 557.464844 390.359375 "/>
<path style=" stroke:none;fill-rule:nonzero;fill:rgb(0%,100%,100%);fill-opacity:1;" d="M 537.144531 410.683594 L 537.144531 431.003906 L 516.820312 431.003906 L 516.820312 390.359375 L 496.5 390.359375 L 496.5 410.683594 L 476.179688 410.683594 L 476.179688 390.359375 L 455.855469 390.359375 L 455.855469 431.003906 L 435.535156 431.003906 L 435.535156 390.359375 L 415.214844 390.359375 L 415.214844 349.71875 L 374.570312 349.71875 L 374.570312 329.398438 L 354.25 329.398438 L 354.25 349.71875 L 333.929688 349.71875 L 333.929688 370.039062 L 313.605469 370.039062 L 313.605469 390.363281 L 354.25 390.363281 L 354.25 370.039062 L 374.570312 370.039062 L 374.570312 390.363281 L 354.25 390.363281 L 354.25 471.648438 L 374.570312 471.648438 L 374.570312 491.96875 L 394.894531 491.96875 L 394.894531 451.328125 L 374.570312 451.328125 L 374.570312 410.683594 L 394.894531 410.683594 L 394.894531 431.003906 L 415.214844 431.003906 L 415.214844 471.648438 L 435.535156 471.648438 L 435.535156 451.324219 L 455.859375 451.324219 L 455.859375 471.648438 L 476.179688 471.648438 L 476.179688 491.96875 L 496.5 491.96875 L 496.5 471.648438 L 516.824219 471.648438 L 516.824219 451.324219 L 557.464844 451.324219 L 557.464844 410.683594 Z M 496.5 451.324219 L 476.179688 451.324219 L 476.179688 431.003906 L 496.5 431.003906 Z M 496.5 451.324219 "/>
<path style=" stroke:none;fill-rule:nonzero;fill:rgb(0%,100%,100%);fill-opacity:1;" d="M 557.464844 288.753906 L 557.464844 309.074219 L 577.785156 309.074219 L 577.785156 288.753906 Z M 557.464844 288.753906 "/>
<path style=" stroke:none;fill-rule:nonzero;fill:rgb(0%,100%,100%);fill-opacity:1;" d="M 577.785156 451.324219 L 557.464844 451.324219 L 557.464844 491.96875 L 598.105469 491.96875 L 598.105469 471.648438 L 577.785156 471.648438 Z M 577.785156 451.324219 "/>
<g clip-path="url(#clip40)" clip-rule="nonzero">
<path style=" stroke:none;fill-rule:nonzero;fill:rgb(0%,100%,100%);fill-opacity:1;" d="M 557.464844 512.289062 L 557.464844 552.933594 L 618.429688 552.933594 L 618.429688 532.609375 L 598.105469 532.609375 L 598.105469 512.289062 Z M 557.464844 512.289062 "/>
</g>
<g clip-path="url(#clip41)" clip-rule="nonzero">
<path style=" stroke:none;fill-rule:nonzero;fill:rgb(0%,100%,100%);fill-opacity:1;" d="M 577.785156 309.074219 L 577.785156 329.398438 L 516.820312 329.398438 L 516.820312 349.71875 L 618.429688 349.71875 L 618.429688 309.074219 Z M 577.785156 309.074219 "/>
</g>
<g clip-path="url(#clip42)" clip-rule="nonzero">
<path style=" stroke:none;fill-rule:nonzero;fill:rgb(0%,100%,100%);fill-opacity:1;" d="M 598.105469 370.039062 L 577.785156 370.039062 L 577.785156 431.003906 L 598.105469 431.003906 L 598.105469 471.648438 L 618.429688 471.648438 L 618.429688 390.359375 L 598.105469 390.359375 Z M 598.105469 370.039062 "/>
</g>
<g clip-path="url(#clip43)" clip-rule="nonzero">
<path style=" stroke:none;fill-rule:nonzero;fill:rgb(0%,100%,100%);fill-opacity:1;" d="M 598.105469 126.183594 L 476.179688 126.183594 L 476.179688 268.433594 L 618.429688 268.433594 L 618.429688 126.183594 Z M 598.105469 248.109375 L 496.5 248.109375 L 496.5 146.503906 L 598.105469 146.503906 Z M 598.105469 248.109375 "/>
</g>
<g clip-path="url(#clip44)" clip-rule="nonzero">
<path style=" stroke:none;fill-rule:nonzero;fill:rgb(0%,100%,100%);fill-opacity:1;" d="M 618.429688 512.289062 L 618.429688 491.96875 L 598.105469 491.96875 L 598.105469 512.289062 Z M 618.429688 512.289062 "/>
</g>
</g>
</svg>
